SplineFontDB: 3.2
FontName: NotoSerifEthiopic-Regular
FullName: Noto Serif Ethiopic Regular
FamilyName: Noto Serif Ethiopic
Weight: Book
Copyright: Copyright 2017 Google Inc. All Rights Reserved.
Version: 2.000; ttfautohint (v1.8.4) -l 8 -r 50 -G 200 -x 14 -D ethi -f none -a qsq -X ""
ItalicAngle: 0
UnderlinePosition: -125
UnderlineWidth: 50
Ascent: 800
Descent: 200
InvalidEm: 0
sfntRevision: 0x00020000
LayerCount: 2
Layer: 0 1 "+BBcEMAQ0BD0EOAQ5 +BD8EOwQwBD0A" 1
Layer: 1 1 "+BB8ENQRABDUENAQ9BDgEOQAA +BD8EOwQwBD0A" 0
XUID: [1021 59 1751208496 12230]
StyleMap: 0x0040
FSType: 0
OS2Version: 4
OS2_WeightWidthSlopeOnly: 1
OS2_UseTypoMetrics: 0
CreationTime: 1481812494
ModificationTime: 1635207777
PfmFamily: 17
TTFWeight: 400
TTFWidth: 5
LineGap: 0
VLineGap: 0
Panose: 2 2 5 2 6 5 5 2 2 4
OS2TypoAscent: 1069
OS2TypoAOffset: 0
OS2TypoDescent: -293
OS2TypoDOffset: 0
OS2TypoLinegap: 0
OS2WinAscent: 1069
OS2WinAOffset: 0
OS2WinDescent: 293
OS2WinDOffset: 0
HheadAscent: 1069
HheadAOffset: 0
HheadDescent: -293
HheadDOffset: 0
OS2SubXSize: 650
OS2SubYSize: 600
OS2SubXOff: 0
OS2SubYOff: 75
OS2SupXSize: 650
OS2SupYSize: 600
OS2SupXOff: 0
OS2SupYOff: 350
OS2StrikeYSize: 50
OS2StrikeYPos: 322
OS2CapHeight: 714
OS2XHeight: 536
OS2Vendor: 'GOOG'
OS2CodePages: 00000001.00000000
OS2UnicodeRanges: 80000043.00002040.00000800.00000000
Lookup: 3 0 0 "'aalt' +BBIEQQQ1 +BDAEOwRMBEIENQRABD0EMARCBDgEMgQ9BEsENQAA +BDIEMARABDgEMAQ9BEIESwAA in +BC0ERAQ4BD4EPwRBBDoEOAQ5 lookup 0" { "'aalt' +BBIEQQQ1 +BDAEOwRMBEIENQRABD0EMARCBDgEMgQ9BEsENQAA +BDIEMARABDgEMAQ9BEIESwAA in +BC0ERAQ4BD4EPwRBBDoEOAQ5 lookup 0 subtable"  } ['aalt' ('DFLT' <'dflt' > 'ethi' <'dflt' > ) ]

StartChar: .notdef
Encoding: 1114112 -1 0
Width: 600
Flags: W
LayerCount: 2
Fore
SplineSet
94 0 m 1,0,-1
 94 714 l 1,1,-1
 505 714 l 1,2,-1
 505 0 l 1,3,-1
 94 0 l 1,0,-1
145 51 m 1,4,-1
 454 51 l 1,5,-1
 454 663 l 1,6,-1
 145 663 l 1,7,-1
 145 51 l 1,4,-1
EndSplineSet
EndChar

StartChar: uni12A0
Encoding: 4768 4768 3
Width: 578
GlyphClass: 2
Flags: W
AnchorPoint: "+BBEENQQ3BEsEPARPBD0EPQQ+BDUA--0" 288 718 basechar 0
LayerCount: 2
Fore
SplineSet
106 -5 m 1,0,1
 96 12 96 12 91 28 c 128,-1,2
 86 44 86 44 86 66 c 0,3,4
 86 95 86 95 94.5 126.5 c 128,-1,5
 103 158 103 158 119 199 c 2,6,-1
 173 344 l 2,7,8
 183 371 183 371 192 395.5 c 128,-1,9
 201 420 201 420 201 442 c 0,10,11
 201 462 201 462 188.5 470.5 c 128,-1,12
 176 479 176 479 147 479 c 2,13,-1
 86 479 l 1,14,-1
 86 593 l 2,15,16
 86 634 86 634 75.5 650.5 c 128,-1,17
 65 667 65 667 28 667 c 1,18,-1
 28 709 l 1,19,-1
 159 718 l 1,20,21
 172 702 172 702 176 682 c 128,-1,22
 180 662 180 662 180 633 c 2,23,-1
 180 536 l 1,24,-1
 223 536 l 2,25,26
 258 536 258 536 279.5 517 c 128,-1,27
 301 498 301 498 301 466 c 0,28,29
 301 449 301 449 296 428.5 c 128,-1,30
 291 408 291 408 280 377 c 1,31,32
 339 366 339 366 374.5 347 c 128,-1,33
 410 328 410 328 429.5 299 c 128,-1,34
 449 270 449 270 460 228 c 128,-1,35
 471 186 471 186 480 129 c 0,36,37
 488 78 488 78 503 60 c 128,-1,38
 518 42 518 42 548 42 c 1,39,-1
 548 4 l 1,40,-1
 424 -5 l 1,41,42
 410 12 410 12 402 34.5 c 128,-1,43
 394 57 394 57 389 93 c 0,44,45
 379 164 379 164 368.5 212 c 128,-1,46
 358 260 358 260 335 288.5 c 128,-1,47
 312 317 312 317 263 329 c 1,48,-1
 263 329 l 1,49,-1
 210 183 l 2,50,51
 197 146 197 146 191.5 125 c 128,-1,52
 186 104 186 104 186 88 c 0,53,54
 186 62 186 62 200 52 c 128,-1,55
 214 42 214 42 233 42 c 1,56,-1
 233 4 l 1,57,-1
 106 -5 l 1,0,1
EndSplineSet
EndChar

StartChar: uni12D0
Encoding: 4816 4816 4
Width: 638
GlyphClass: 2
Flags: W
AnchorPoint: "+BBEENQQ3BEsEPARPBD0EPQQ+BDUA--0" 319 723 basechar 0
LayerCount: 2
Fore
SplineSet
316 -10 m 0,0,1
 235 -10 235 -10 184 21 c 128,-1,2
 133 52 133 52 109 104.5 c 128,-1,3
 85 157 85 157 85 221 c 2,4,-1
 85 489 l 2,5,6
 85 554 85 554 109 607 c 128,-1,7
 133 660 133 660 184 691.5 c 128,-1,8
 235 723 235 723 316 723 c 0,9,10
 402 723 402 723 454 690.5 c 128,-1,11
 506 658 506 658 529.5 605.5 c 128,-1,12
 553 553 553 553 553 494 c 2,13,-1
 553 222 l 2,14,15
 553 163 553 163 529.5 110 c 128,-1,16
 506 57 506 57 454 23.5 c 128,-1,17
 402 -10 402 -10 316 -10 c 0,0,1
321 40 m 0,18,19
 374 40 374 40 403.5 63 c 128,-1,20
 433 86 433 86 445 126.5 c 128,-1,21
 457 167 457 167 457 220 c 2,22,-1
 457 493 l 2,23,24
 457 546 457 546 445 586.5 c 128,-1,25
 433 627 433 627 403.5 650 c 128,-1,26
 374 673 374 673 321 673 c 0,27,28
 243 673 243 673 212 626.5 c 128,-1,29
 181 580 181 580 181 494 c 2,30,-1
 181 219 l 2,31,32
 181 134 181 134 212 87 c 128,-1,33
 243 40 243 40 321 40 c 0,18,19
EndSplineSet
EndChar

StartChar: uni12A3
Encoding: 4771 4771 5
Width: 575
GlyphClass: 2
Flags: W
AnchorPoint: "+BBEENQQ3BEsEPARPBD0EPQQ+BDUA--0" 286 718 basechar 0
LayerCount: 2
Fore
SplineSet
117 135 m 1,0,1
 109 152 109 152 105 167 c 128,-1,2
 101 182 101 182 101 202 c 0,3,4
 101 226 101 226 113.5 257 c 128,-1,5
 126 288 126 288 155 337 c 0,6,7
 181 381 181 381 191 402 c 128,-1,8
 201 423 201 423 201 442 c 0,9,10
 201 462 201 462 188.5 470.5 c 128,-1,11
 176 479 176 479 147 479 c 2,12,-1
 86 479 l 1,13,-1
 86 593 l 2,14,15
 86 634 86 634 75.5 650.5 c 128,-1,16
 65 667 65 667 28 667 c 1,17,-1
 28 709 l 1,18,-1
 159 718 l 1,19,20
 172 702 172 702 176 682 c 128,-1,21
 180 662 180 662 180 633 c 2,22,-1
 180 536 l 1,23,-1
 223 536 l 2,24,25
 258 536 258 536 279.5 517 c 128,-1,26
 301 498 301 498 301 466 c 0,27,28
 301 446 301 446 295.5 425.5 c 128,-1,29
 290 405 290 405 276 376 c 1,30,31
 335 364 335 364 371 345 c 128,-1,32
 407 326 407 326 427 297 c 128,-1,33
 447 268 447 268 457.5 226.5 c 128,-1,34
 468 185 468 185 477 129 c 0,35,36
 485 78 485 78 500 60 c 128,-1,37
 515 42 515 42 545 42 c 1,38,-1
 545 4 l 1,39,-1
 421 -5 l 1,40,41
 407 12 407 12 399 34.5 c 128,-1,42
 391 57 391 57 386 93 c 0,43,44
 376 161 376 161 365.5 208.5 c 128,-1,45
 355 256 355 256 330 285.5 c 128,-1,46
 305 315 305 315 252 330 c 1,47,48
 249 324 249 324 246 318 c 0,49,50
 222 274 222 274 212 254 c 128,-1,51
 202 234 202 234 202 218 c 0,52,53
 202 199 202 199 216 190.5 c 128,-1,54
 230 182 230 182 249 182 c 1,55,-1
 249 144 l 1,56,-1
 117 135 l 1,0,1
EndSplineSet
EndChar

StartChar: uni12D3
Encoding: 4819 4819 6
Width: 656
GlyphClass: 2
Flags: W
AnchorPoint: "+BBEENQQ3BEsEPARPBD0EPQQ+BDUA--0" 323 723 basechar 0
LayerCount: 2
Fore
SplineSet
261 294 m 2,0,1
 180 294 180 294 129 322.5 c 128,-1,2
 78 351 78 351 54 397.5 c 128,-1,3
 30 444 30 444 30 498 c 2,4,-1
 30 516 l 2,5,6
 30 571 30 571 54 618 c 128,-1,7
 78 665 78 665 129 694 c 128,-1,8
 180 723 180 723 261 723 c 0,9,10
 347 723 347 723 399 693 c 128,-1,11
 451 663 451 663 474.5 616.5 c 128,-1,12
 498 570 498 570 498 521 c 2,13,-1
 498 499 l 2,14,15
 498 458 498 458 482 417.5 c 128,-1,16
 466 377 466 377 430 347 c 1,17,-1
 494 347 l 2,18,19
 546 347 546 347 567.5 325.5 c 128,-1,20
 589 304 589 304 589 272 c 0,21,22
 589 248 589 248 582 214 c 128,-1,23
 575 180 575 180 567.5 147.5 c 128,-1,24
 560 115 560 115 560 98 c 0,25,26
 560 72 560 72 573 58 c 128,-1,27
 586 44 586 44 616 44 c 1,28,-1
 616 4 l 1,29,-1
 493 -5 l 1,30,31
 478 6 478 6 469.5 23.5 c 128,-1,32
 461 41 461 41 461 70 c 0,33,34
 461 93 461 93 468.5 126 c 128,-1,35
 476 159 476 159 483 191 c 128,-1,36
 490 223 490 223 490 243 c 0,37,38
 490 272 490 272 476 283 c 128,-1,39
 462 294 462 294 432 294 c 2,40,-1
 265 294 l 1,41,-1
 265 294 l 1,42,-1
 261 294 l 2,0,1
266 344 m 0,43,44
 319 344 319 344 348.5 364.5 c 128,-1,45
 378 385 378 385 390 419.5 c 128,-1,46
 402 454 402 454 402 497 c 2,47,-1
 402 520 l 2,48,49
 402 563 402 563 390 597.5 c 128,-1,50
 378 632 378 632 348.5 652.5 c 128,-1,51
 319 673 319 673 266 673 c 0,52,53
 188 673 188 673 157 632.5 c 128,-1,54
 126 592 126 592 126 521 c 2,55,-1
 126 496 l 2,56,57
 126 426 126 426 157 385 c 128,-1,58
 188 344 188 344 266 344 c 0,43,44
EndSplineSet
EndChar

StartChar: uni1260
Encoding: 4704 4704 7
Width: 646
GlyphClass: 2
Flags: W
AnchorPoint: "+BBEENQQ3BEsEPARPBD0EPQQ+BDUA--0" 343 726 basechar 0
LayerCount: 2
Fore
SplineSet
354 726 m 0,0,1
 458 726 458 726 499 669 c 128,-1,2
 540 612 540 612 540 499 c 0,3,4
 540 472 540 472 539.5 429 c 128,-1,5
 539 386 539 386 538.5 334 c 128,-1,6
 538 282 538 282 537.5 226.5 c 128,-1,7
 537 171 537 171 537 120 c 0,8,9
 537 76 537 76 551 61.5 c 128,-1,10
 565 47 565 47 596 47 c 1,11,-1
 596 5 l 1,12,-1
 463 -4 l 1,13,14
 437 23 437 23 437 94 c 0,15,16
 437 170 437 170 437.5 245 c 128,-1,17
 438 320 438 320 438.5 387 c 128,-1,18
 439 454 439 454 439 506 c 0,19,20
 439 592 439 592 417 635 c 128,-1,21
 395 678 395 678 339 678 c 0,22,23
 292 678 292 678 258.5 651 c 128,-1,24
 225 624 225 624 207.5 564 c 128,-1,25
 190 504 190 504 190 404 c 2,26,-1
 190 120 l 2,27,28
 190 76 190 76 204 61.5 c 128,-1,29
 218 47 218 47 249 47 c 1,30,-1
 249 5 l 1,31,-1
 116 -4 l 1,32,33
 102 11 102 11 96 37 c 128,-1,34
 90 63 90 63 90 94 c 2,35,-1
 90 429 l 2,36,37
 90 529 90 529 124.5 594.5 c 128,-1,38
 159 660 159 660 218.5 693 c 128,-1,39
 278 726 278 726 354 726 c 0,0,1
EndSplineSet
EndChar

StartChar: uni1263
Encoding: 4707 4707 8
Width: 622
GlyphClass: 2
Flags: W
AnchorPoint: "+BBEENQQ3BEsEPARPBD0EPQQ+BDUA--0" 319 726 basechar 0
LayerCount: 2
Fore
SplineSet
439 -4 m 1,0,1
 413 23 413 23 413 94 c 0,2,3
 413 170 413 170 413.5 245 c 128,-1,4
 414 320 414 320 414.5 387 c 128,-1,5
 415 454 415 454 415 506 c 0,6,7
 415 592 415 592 393 635 c 128,-1,8
 371 678 371 678 315 678 c 0,9,10
 268 678 268 678 234.5 651 c 128,-1,11
 201 624 201 624 183.5 564 c 128,-1,12
 166 504 166 504 166 404 c 2,13,-1
 166 363 l 2,14,15
 166 319 166 319 180 304.5 c 128,-1,16
 194 290 194 290 225 290 c 1,17,-1
 225 248 l 1,18,-1
 92 239 l 1,19,20
 78 254 78 254 72 280 c 128,-1,21
 66 306 66 306 66 337 c 2,22,-1
 66 429 l 2,23,24
 66 529 66 529 100.5 594.5 c 128,-1,25
 135 660 135 660 194.5 693 c 128,-1,26
 254 726 254 726 330 726 c 0,27,28
 434 726 434 726 475 669 c 128,-1,29
 516 612 516 612 516 499 c 0,30,31
 516 472 516 472 515.5 429 c 128,-1,32
 515 386 515 386 514.5 334 c 128,-1,33
 514 282 514 282 513.5 226.5 c 128,-1,34
 513 171 513 171 513 120 c 0,35,36
 513 76 513 76 527 61.5 c 128,-1,37
 541 47 541 47 572 47 c 1,38,-1
 572 5 l 1,39,-1
 439 -4 l 1,0,1
EndSplineSet
EndChar

StartChar: uniAB28
Encoding: 43816 43816 9
Width: 668
GlyphClass: 2
Flags: W
AnchorPoint: "+BBEENQQ3BEsEPARPBD0EPQQ+BDUA--0" 349 890 basechar 0
LayerCount: 2
Fore
SplineSet
113 708 m 0,0,1
 95 708 95 708 81.5 713 c 128,-1,2
 68 718 68 718 60 723 c 1,3,4
 76 739 76 739 83.5 757.5 c 128,-1,5
 91 776 91 776 91 801 c 0,6,7
 91 828 91 828 82 846 c 128,-1,8
 73 864 73 864 60 875 c 1,9,10
 68 881 68 881 81.5 885.5 c 128,-1,11
 95 890 95 890 113 890 c 0,12,13
 150 890 150 890 171 870.5 c 128,-1,14
 192 851 192 851 197 824 c 1,15,-1
 482 824 l 1,16,17
 487 850 487 850 508 870 c 128,-1,18
 529 890 529 890 566 890 c 0,19,20
 584 890 584 890 598 885 c 128,-1,21
 612 880 612 880 619 875 c 1,22,23
 603 859 603 859 595.5 841 c 128,-1,24
 588 823 588 823 588 797 c 0,25,26
 588 770 588 770 597 752 c 128,-1,27
 606 734 606 734 619 723 c 1,28,29
 612 717 612 717 598 712.5 c 128,-1,30
 584 708 584 708 566 708 c 0,31,32
 529 708 529 708 508 727.5 c 128,-1,33
 487 747 487 747 482 774 c 1,34,-1
 197 774 l 1,35,36
 193 749 193 749 171.5 728.5 c 128,-1,37
 150 708 150 708 113 708 c 0,0,1
124 -5 m 1,38,39
 117 10 117 10 112 30.5 c 128,-1,40
 107 51 107 51 107 81 c 0,41,42
 107 126 107 126 126.5 169 c 128,-1,43
 146 212 146 212 190 260 c 128,-1,44
 234 308 234 308 309 368 c 1,45,46
 227 382 227 382 185 425 c 128,-1,47
 143 468 143 468 143 541 c 0,48,49
 143 624 143 624 193 671.5 c 128,-1,50
 243 719 243 719 321 719 c 2,51,-1
 357 719 l 2,52,53
 428 719 428 719 475.5 678.5 c 128,-1,54
 523 638 523 638 523 562 c 0,55,56
 523 493 523 493 489.5 442 c 128,-1,57
 456 391 456 391 393 339 c 1,58,59
 439 329 439 329 469.5 317 c 128,-1,60
 500 305 500 305 518.5 283 c 128,-1,61
 537 261 537 261 549 224 c 128,-1,62
 561 187 561 187 570 129 c 0,63,64
 578 78 578 78 593 60 c 128,-1,65
 608 42 608 42 638 42 c 1,66,-1
 638 4 l 1,67,-1
 514 -5 l 1,68,69
 500 12 500 12 492 34.5 c 128,-1,70
 484 57 484 57 479 93 c 0,71,72
 471 150 471 150 462 187 c 128,-1,73
 453 224 453 224 440 246.5 c 128,-1,74
 427 269 427 269 406 282.5 c 128,-1,75
 385 296 385 296 352 305 c 1,76,77
 270 236 270 236 235 189 c 128,-1,78
 200 142 200 142 200 100 c 0,79,80
 200 69 200 69 213.5 56 c 128,-1,81
 227 43 227 43 254 43 c 1,82,-1
 254 4 l 1,83,-1
 124 -5 l 1,38,39
355 404 m 1,84,85
 395 442 395 442 415 478.5 c 128,-1,86
 435 515 435 515 435 561 c 0,87,88
 435 624 435 624 405.5 650.5 c 128,-1,89
 376 677 376 677 335 677 c 0,90,91
 290 677 290 677 260.5 644.5 c 128,-1,92
 231 612 231 612 231 550 c 0,93,94
 231 435 231 435 355 404 c 1,84,85
EndSplineSet
EndChar

StartChar: uniAB2B
Encoding: 43819 43819 10
Width: 666
GlyphClass: 2
Flags: W
AnchorPoint: "+BBEENQQ3BEsEPARPBD0EPQQ+BDUA--0" 348 890 basechar 0
LayerCount: 2
Fore
SplineSet
113 708 m 0,0,1
 95 708 95 708 81.5 713 c 128,-1,2
 68 718 68 718 60 723 c 1,3,4
 76 739 76 739 83.5 757.5 c 128,-1,5
 91 776 91 776 91 801 c 0,6,7
 91 828 91 828 82 846 c 128,-1,8
 73 864 73 864 60 875 c 1,9,10
 68 881 68 881 81.5 885.5 c 128,-1,11
 95 890 95 890 113 890 c 0,12,13
 150 890 150 890 171 870.5 c 128,-1,14
 192 851 192 851 197 824 c 1,15,-1
 482 824 l 1,16,17
 487 850 487 850 508 870 c 128,-1,18
 529 890 529 890 566 890 c 0,19,20
 584 890 584 890 598 885 c 128,-1,21
 612 880 612 880 619 875 c 1,22,23
 603 859 603 859 595.5 841 c 128,-1,24
 588 823 588 823 588 797 c 0,25,26
 588 770 588 770 597 752 c 128,-1,27
 606 734 606 734 619 723 c 1,28,29
 612 717 612 717 598 712.5 c 128,-1,30
 584 708 584 708 566 708 c 0,31,32
 529 708 529 708 508 727.5 c 128,-1,33
 487 747 487 747 482 774 c 1,34,-1
 197 774 l 1,35,36
 193 749 193 749 171.5 728.5 c 128,-1,37
 150 708 150 708 113 708 c 0,0,1
119 114 m 1,38,39
 113 129 113 129 108.5 145 c 128,-1,40
 104 161 104 161 104 183 c 0,41,42
 104 241 104 241 145 289.5 c 128,-1,43
 186 338 186 338 289 390 c 1,44,45
 252 399 252 399 218 418 c 128,-1,46
 184 437 184 437 162.5 470 c 128,-1,47
 141 503 141 503 141 552 c 0,48,49
 141 631 141 631 191 675 c 128,-1,50
 241 719 241 719 319 719 c 2,51,-1
 355 719 l 2,52,53
 402 719 402 719 442 700.5 c 128,-1,54
 482 682 482 682 506 647 c 128,-1,55
 530 612 530 612 530 561 c 0,56,57
 530 492 530 492 490.5 445 c 128,-1,58
 451 398 451 398 368 355 c 1,59,60
 422 340 422 340 456.5 325.5 c 128,-1,61
 491 311 491 311 512 288 c 128,-1,62
 533 265 533 265 545.5 227.5 c 128,-1,63
 558 190 558 190 568 129 c 0,64,65
 576 78 576 78 591 60 c 128,-1,66
 606 42 606 42 636 42 c 1,67,-1
 636 4 l 1,68,-1
 512 -5 l 1,69,70
 498 12 498 12 490 34.5 c 128,-1,71
 482 57 482 57 477 93 c 0,72,73
 468 155 468 155 458 194 c 128,-1,74
 448 233 448 233 432 256.5 c 128,-1,75
 416 280 416 280 388.5 295.5 c 128,-1,76
 361 311 361 311 316 327 c 1,77,78
 248 289 248 289 222.5 259.5 c 128,-1,79
 197 230 197 230 197 203 c 0,80,81
 197 184 197 184 209 173 c 128,-1,82
 221 162 221 162 246 162 c 1,83,-1
 246 123 l 1,84,-1
 119 114 l 1,38,39
348 421 m 1,85,86
 395 447 395 447 418.5 480.5 c 128,-1,87
 442 514 442 514 442 560 c 0,88,89
 442 602 442 602 426 628 c 128,-1,90
 410 654 410 654 385 665.5 c 128,-1,91
 360 677 360 677 333 677 c 0,92,93
 288 677 288 677 258.5 648 c 128,-1,94
 229 619 229 619 229 561 c 0,95,96
 229 502 229 502 258.5 470 c 128,-1,97
 288 438 288 438 348 421 c 1,85,86
EndSplineSet
EndChar

StartChar: uniAB2D
Encoding: 43821 43821 11
Width: 771
GlyphClass: 2
Flags: W
AnchorPoint: "+BBEENQQ3BEsEPARPBD0EPQQ+BDUA--0" 408 890 basechar 0
LayerCount: 2
Fore
SplineSet
113 708 m 0,0,1
 95 708 95 708 81.5 713 c 128,-1,2
 68 718 68 718 60 723 c 1,3,4
 76 739 76 739 83.5 757.5 c 128,-1,5
 91 776 91 776 91 801 c 0,6,7
 91 828 91 828 82 846 c 128,-1,8
 73 864 73 864 60 875 c 1,9,10
 68 881 68 881 81.5 885.5 c 128,-1,11
 95 890 95 890 113 890 c 0,12,13
 150 890 150 890 171 870.5 c 128,-1,14
 192 851 192 851 197 824 c 1,15,-1
 482 824 l 1,16,17
 487 850 487 850 508 870 c 128,-1,18
 529 890 529 890 566 890 c 0,19,20
 584 890 584 890 598 885 c 128,-1,21
 612 880 612 880 619 875 c 1,22,23
 603 859 603 859 595.5 841 c 128,-1,24
 588 823 588 823 588 797 c 0,25,26
 588 770 588 770 597 752 c 128,-1,27
 606 734 606 734 619 723 c 1,28,29
 612 717 612 717 598 712.5 c 128,-1,30
 584 708 584 708 566 708 c 0,31,32
 529 708 529 708 508 727.5 c 128,-1,33
 487 747 487 747 482 774 c 1,34,-1
 197 774 l 1,35,36
 193 749 193 749 171.5 728.5 c 128,-1,37
 150 708 150 708 113 708 c 0,0,1
124 -5 m 1,38,39
 117 10 117 10 112 30.5 c 128,-1,40
 107 51 107 51 107 81 c 0,41,42
 107 126 107 126 126.5 169 c 128,-1,43
 146 212 146 212 190 260 c 128,-1,44
 234 308 234 308 309 368 c 1,45,46
 227 382 227 382 185 425 c 128,-1,47
 143 468 143 468 143 541 c 0,48,49
 143 624 143 624 193 671.5 c 128,-1,50
 243 719 243 719 321 719 c 2,51,-1
 357 719 l 2,52,53
 428 719 428 719 475.5 678.5 c 128,-1,54
 523 638 523 638 523 562 c 0,55,56
 523 549 523 549 522 536 c 1,57,-1
 730 536 l 1,58,59
 728 529 728 529 725 513.5 c 128,-1,60
 722 498 722 498 722 480 c 0,61,62
 722 425 722 425 756 397 c 1,63,64
 734 381 734 381 698 381 c 0,65,66
 655 381 655 381 633 405 c 128,-1,67
 611 429 611 429 611 463 c 0,68,69
 611 470 611 470 611.5 475.5 c 128,-1,70
 612 481 612 481 613 486 c 1,71,-1
 511 486 l 1,72,73
 496 446 496 446 466.5 410.5 c 128,-1,74
 437 375 437 375 393 339 c 1,75,76
 439 329 439 329 469.5 317 c 128,-1,77
 500 305 500 305 518.5 283 c 128,-1,78
 537 261 537 261 549 224 c 128,-1,79
 561 187 561 187 570 129 c 0,80,81
 578 78 578 78 593 60 c 128,-1,82
 608 42 608 42 638 42 c 1,83,-1
 638 4 l 1,84,-1
 514 -5 l 1,85,86
 500 12 500 12 492 34.5 c 128,-1,87
 484 57 484 57 479 93 c 0,88,89
 471 150 471 150 462 187 c 128,-1,90
 453 224 453 224 440 246.5 c 128,-1,91
 427 269 427 269 406 282.5 c 128,-1,92
 385 296 385 296 352 305 c 1,93,94
 270 236 270 236 235 189 c 128,-1,95
 200 142 200 142 200 100 c 0,96,97
 200 69 200 69 213.5 56 c 128,-1,98
 227 43 227 43 254 43 c 1,99,-1
 254 4 l 1,100,-1
 124 -5 l 1,38,39
355 404 m 1,101,102
 395 442 395 442 415 478.5 c 128,-1,103
 435 515 435 515 435 561 c 0,104,105
 435 624 435 624 405.5 650.5 c 128,-1,106
 376 677 376 677 335 677 c 0,107,108
 290 677 290 677 260.5 644.5 c 128,-1,109
 231 612 231 612 231 550 c 0,110,111
 231 435 231 435 355 404 c 1,101,102
EndSplineSet
EndChar

StartChar: uniAB2C
Encoding: 43820 43820 12
Width: 825
GlyphClass: 2
Flags: W
AnchorPoint: "+BBEENQQ3BEsEPARPBD0EPQQ+BDUA--0" 430 890 basechar 0
LayerCount: 2
Fore
SplineSet
113 708 m 0,0,1
 95 708 95 708 81.5 713 c 128,-1,2
 68 718 68 718 60 723 c 1,3,4
 76 739 76 739 83.5 757.5 c 128,-1,5
 91 776 91 776 91 801 c 0,6,7
 91 828 91 828 82 846 c 128,-1,8
 73 864 73 864 60 875 c 1,9,10
 68 881 68 881 81.5 885.5 c 128,-1,11
 95 890 95 890 113 890 c 0,12,13
 150 890 150 890 171 870.5 c 128,-1,14
 192 851 192 851 197 824 c 1,15,-1
 482 824 l 1,16,17
 487 850 487 850 508 870 c 128,-1,18
 529 890 529 890 566 890 c 0,19,20
 584 890 584 890 598 885 c 128,-1,21
 612 880 612 880 619 875 c 1,22,23
 603 859 603 859 595.5 841 c 128,-1,24
 588 823 588 823 588 797 c 0,25,26
 588 770 588 770 597 752 c 128,-1,27
 606 734 606 734 619 723 c 1,28,29
 612 717 612 717 598 712.5 c 128,-1,30
 584 708 584 708 566 708 c 0,31,32
 529 708 529 708 508 727.5 c 128,-1,33
 487 747 487 747 482 774 c 1,34,-1
 197 774 l 1,35,36
 193 749 193 749 171.5 728.5 c 128,-1,37
 150 708 150 708 113 708 c 0,0,1
121 -5 m 1,38,39
 114 10 114 10 109 30.5 c 128,-1,40
 104 51 104 51 104 81 c 0,41,42
 104 126 104 126 123.5 169 c 128,-1,43
 143 212 143 212 187 260 c 128,-1,44
 231 308 231 308 306 368 c 1,45,46
 224 382 224 382 182 425 c 128,-1,47
 140 468 140 468 140 541 c 0,48,49
 140 624 140 624 190 671.5 c 128,-1,50
 240 719 240 719 318 719 c 2,51,-1
 354 719 l 2,52,53
 425 719 425 719 472.5 678.5 c 128,-1,54
 520 638 520 638 520 562 c 0,55,56
 520 493 520 493 486.5 442 c 128,-1,57
 453 391 453 391 390 339 c 1,58,59
 438 328 438 328 468 314.5 c 128,-1,60
 498 301 498 301 515.5 278 c 128,-1,61
 533 255 533 255 543 216 c 1,62,63
 574 230 574 230 617 230 c 2,64,-1
 694 230 l 2,65,66
 747 230 747 230 773.5 203.5 c 128,-1,67
 800 177 800 177 800 127 c 0,68,69
 800 75 800 75 766.5 37.5 c 128,-1,70
 733 0 733 0 675 0 c 2,71,-1
 567 0 l 2,72,73
 529 0 529 0 504.5 24.5 c 128,-1,74
 480 49 480 49 476 89 c 0,75,76
 466 165 466 165 453 208.5 c 128,-1,77
 440 252 440 252 416.5 273.5 c 128,-1,78
 393 295 393 295 351 306 c 1,79,80
 268 237 268 237 232.5 189.5 c 128,-1,81
 197 142 197 142 197 100 c 0,82,83
 197 69 197 69 210.5 56 c 128,-1,84
 224 43 224 43 251 43 c 1,85,-1
 251 4 l 1,86,-1
 121 -5 l 1,38,39
352 404 m 1,87,88
 392 442 392 442 412 478.5 c 128,-1,89
 432 515 432 515 432 561 c 0,90,91
 432 624 432 624 402.5 650.5 c 128,-1,92
 373 677 373 677 332 677 c 0,93,94
 287 677 287 677 257.5 644.5 c 128,-1,95
 228 612 228 612 228 550 c 0,96,97
 228 435 228 435 352 404 c 1,87,88
629 35 m 0,98,99
 670 35 670 35 691 61.5 c 128,-1,100
 712 88 712 88 712 126 c 0,101,102
 712 156 712 156 695 173.5 c 128,-1,103
 678 191 678 191 646 191 c 0,104,105
 608 191 608 191 586 167 c 128,-1,106
 564 143 564 143 564 102 c 0,107,108
 564 72 564 72 581 53.5 c 128,-1,109
 598 35 598 35 629 35 c 0,98,99
EndSplineSet
EndChar

StartChar: uniAB2A
Encoding: 43818 43818 13
Width: 874
GlyphClass: 2
Flags: W
AnchorPoint: "+BBEENQQ3BEsEPARPBD0EPQQ+BDUA--0" 459 890 basechar 0
LayerCount: 2
Fore
SplineSet
113 708 m 0,0,1
 95 708 95 708 81.5 713 c 128,-1,2
 68 718 68 718 60 723 c 1,3,4
 76 739 76 739 83.5 757.5 c 128,-1,5
 91 776 91 776 91 801 c 0,6,7
 91 828 91 828 82 846 c 128,-1,8
 73 864 73 864 60 875 c 1,9,10
 68 881 68 881 81.5 885.5 c 128,-1,11
 95 890 95 890 113 890 c 0,12,13
 150 890 150 890 171 870.5 c 128,-1,14
 192 851 192 851 197 824 c 1,15,-1
 482 824 l 1,16,17
 487 850 487 850 508 870 c 128,-1,18
 529 890 529 890 566 890 c 0,19,20
 584 890 584 890 598 885 c 128,-1,21
 612 880 612 880 619 875 c 1,22,23
 603 859 603 859 595.5 841 c 128,-1,24
 588 823 588 823 588 797 c 0,25,26
 588 770 588 770 597 752 c 128,-1,27
 606 734 606 734 619 723 c 1,28,29
 612 717 612 717 598 712.5 c 128,-1,30
 584 708 584 708 566 708 c 0,31,32
 529 708 529 708 508 727.5 c 128,-1,33
 487 747 487 747 482 774 c 1,34,-1
 197 774 l 1,35,36
 193 749 193 749 171.5 728.5 c 128,-1,37
 150 708 150 708 113 708 c 0,0,1
121 -5 m 1,38,39
 114 10 114 10 109 30.5 c 128,-1,40
 104 51 104 51 104 81 c 0,41,42
 104 126 104 126 123.5 169 c 128,-1,43
 143 212 143 212 187 260 c 128,-1,44
 231 308 231 308 306 368 c 1,45,46
 224 382 224 382 182 425 c 128,-1,47
 140 468 140 468 140 541 c 0,48,49
 140 624 140 624 190 671.5 c 128,-1,50
 240 719 240 719 318 719 c 2,51,-1
 354 719 l 2,52,53
 425 719 425 719 472.5 678.5 c 128,-1,54
 520 638 520 638 520 562 c 0,55,56
 520 493 520 493 486.5 442 c 128,-1,57
 453 391 453 391 391 339 c 1,58,59
 437 330 437 330 467 319 c 128,-1,60
 497 308 497 308 515.5 287.5 c 128,-1,61
 534 267 534 267 546 231 c 128,-1,62
 558 195 558 195 567 137 c 0,63,64
 575 86 575 86 590 68 c 128,-1,65
 605 50 605 50 635 50 c 2,66,-1
 718 50 l 1,67,68
 723 76 723 76 743 95.5 c 128,-1,69
 763 115 763 115 803 115 c 0,70,71
 821 115 821 115 836.5 110.5 c 128,-1,72
 852 106 852 106 859 101 c 1,73,74
 843 85 843 85 835.5 67 c 128,-1,75
 828 49 828 49 828 23 c 0,76,77
 828 -4 828 -4 837 -22 c 128,-1,78
 846 -40 846 -40 859 -51 c 1,79,80
 852 -57 852 -57 836.5 -62 c 128,-1,81
 821 -67 821 -67 803 -67 c 0,82,83
 763 -67 763 -67 743 -47 c 128,-1,84
 723 -27 723 -27 718 0 c 1,85,-1
 511 0 l 1,86,87
 497 17 497 17 489 39.5 c 128,-1,88
 481 62 481 62 476 98 c 0,89,90
 468 155 468 155 459 191.5 c 128,-1,91
 450 228 450 228 437 249.5 c 128,-1,92
 424 271 424 271 403 283.5 c 128,-1,93
 382 296 382 296 349 305 c 1,94,95
 268 236 268 236 232.5 189 c 128,-1,96
 197 142 197 142 197 100 c 0,97,98
 197 69 197 69 210.5 56 c 128,-1,99
 224 43 224 43 251 43 c 1,100,-1
 251 4 l 1,101,-1
 121 -5 l 1,38,39
352 404 m 1,102,103
 392 442 392 442 412 478.5 c 128,-1,104
 432 515 432 515 432 561 c 0,105,106
 432 624 432 624 402.5 650.5 c 128,-1,107
 373 677 373 677 332 677 c 0,108,109
 287 677 287 677 257.5 644.5 c 128,-1,110
 228 612 228 612 228 550 c 0,111,112
 228 435 228 435 352 404 c 1,102,103
EndSplineSet
EndChar

StartChar: uniAB2E
Encoding: 43822 43822 14
Width: 652
GlyphClass: 2
Flags: W
AnchorPoint: "+BBEENQQ3BEsEPARPBD0EPQQ+BDUA--0" 341 890 basechar 0
LayerCount: 2
Fore
SplineSet
113 708 m 0,0,1
 95 708 95 708 81.5 713 c 128,-1,2
 68 718 68 718 60 723 c 1,3,4
 76 739 76 739 83.5 757.5 c 128,-1,5
 91 776 91 776 91 801 c 0,6,7
 91 828 91 828 82 846 c 128,-1,8
 73 864 73 864 60 875 c 1,9,10
 68 881 68 881 81.5 885.5 c 128,-1,11
 95 890 95 890 113 890 c 0,12,13
 150 890 150 890 171 870.5 c 128,-1,14
 192 851 192 851 197 824 c 1,15,-1
 482 824 l 1,16,17
 487 850 487 850 508 870 c 128,-1,18
 529 890 529 890 566 890 c 0,19,20
 584 890 584 890 598 885 c 128,-1,21
 612 880 612 880 619 875 c 1,22,23
 603 859 603 859 595.5 841 c 128,-1,24
 588 823 588 823 588 797 c 0,25,26
 588 770 588 770 597 752 c 128,-1,27
 606 734 606 734 619 723 c 1,28,29
 612 717 612 717 598 712.5 c 128,-1,30
 584 708 584 708 566 708 c 0,31,32
 529 708 529 708 508 727.5 c 128,-1,33
 487 747 487 747 482 774 c 1,34,-1
 197 774 l 1,35,36
 193 749 193 749 171.5 728.5 c 128,-1,37
 150 708 150 708 113 708 c 0,0,1
125 -5 m 1,38,39
 118 10 118 10 113 30.5 c 128,-1,40
 108 51 108 51 108 81 c 0,41,42
 108 126 108 126 127.5 169 c 128,-1,43
 147 212 147 212 191 260 c 128,-1,44
 235 308 235 308 310 368 c 1,45,46
 228 382 228 382 186 425 c 128,-1,47
 144 468 144 468 144 541 c 0,48,49
 144 624 144 624 194 671.5 c 128,-1,50
 244 719 244 719 322 719 c 2,51,-1
 358 719 l 2,52,53
 429 719 429 719 476.5 678.5 c 128,-1,54
 524 638 524 638 524 562 c 0,55,56
 524 493 524 493 491 442.5 c 128,-1,57
 458 392 458 392 396 341 c 1,58,59
 455 329 455 329 486.5 313.5 c 128,-1,60
 518 298 518 298 534 273 c 128,-1,61
 550 248 550 248 560 210 c 0,62,63
 567 185 567 185 579.5 172.5 c 128,-1,64
 592 160 592 160 622 160 c 1,65,-1
 622 122 l 1,66,-1
 498 113 l 1,67,68
 487 124 487 124 480 141.5 c 128,-1,69
 473 159 473 159 469 177 c 0,70,71
 461 214 461 214 450 239.5 c 128,-1,72
 439 265 439 265 417 281.5 c 128,-1,73
 395 298 395 298 355 306 c 1,74,75
 272 236 272 236 236.5 189 c 128,-1,76
 201 142 201 142 201 100 c 0,77,78
 201 69 201 69 214.5 56 c 128,-1,79
 228 43 228 43 255 43 c 1,80,-1
 255 4 l 1,81,-1
 125 -5 l 1,38,39
356 404 m 1,82,83
 396 442 396 442 416 478.5 c 128,-1,84
 436 515 436 515 436 561 c 0,85,86
 436 624 436 624 406.5 650.5 c 128,-1,87
 377 677 377 677 336 677 c 0,88,89
 291 677 291 677 261.5 644.5 c 128,-1,90
 232 612 232 612 232 550 c 0,91,92
 232 435 232 435 356 404 c 1,82,83
EndSplineSet
EndChar

StartChar: uniAB29
Encoding: 43817 43817 15
Width: 815
GlyphClass: 2
Flags: W
AnchorPoint: "+BBEENQQ3BEsEPARPBD0EPQQ+BDUA--0" 427 890 basechar 0
LayerCount: 2
Fore
SplineSet
113 708 m 0,0,1
 95 708 95 708 81.5 713 c 128,-1,2
 68 718 68 718 60 723 c 1,3,4
 76 739 76 739 83.5 757.5 c 128,-1,5
 91 776 91 776 91 801 c 0,6,7
 91 828 91 828 82 846 c 128,-1,8
 73 864 73 864 60 875 c 1,9,10
 68 881 68 881 81.5 885.5 c 128,-1,11
 95 890 95 890 113 890 c 0,12,13
 150 890 150 890 171 870.5 c 128,-1,14
 192 851 192 851 197 824 c 1,15,-1
 482 824 l 1,16,17
 487 850 487 850 508 870 c 128,-1,18
 529 890 529 890 566 890 c 0,19,20
 584 890 584 890 598 885 c 128,-1,21
 612 880 612 880 619 875 c 1,22,23
 603 859 603 859 595.5 841 c 128,-1,24
 588 823 588 823 588 797 c 0,25,26
 588 770 588 770 597 752 c 128,-1,27
 606 734 606 734 619 723 c 1,28,29
 612 717 612 717 598 712.5 c 128,-1,30
 584 708 584 708 566 708 c 0,31,32
 529 708 529 708 508 727.5 c 128,-1,33
 487 747 487 747 482 774 c 1,34,-1
 197 774 l 1,35,36
 193 749 193 749 171.5 728.5 c 128,-1,37
 150 708 150 708 113 708 c 0,0,1
124 -5 m 1,38,39
 117 10 117 10 112 30.5 c 128,-1,40
 107 51 107 51 107 81 c 0,41,42
 107 126 107 126 126.5 169 c 128,-1,43
 146 212 146 212 190 260 c 128,-1,44
 234 308 234 308 309 368 c 1,45,46
 227 382 227 382 185 425 c 128,-1,47
 143 468 143 468 143 541 c 0,48,49
 143 624 143 624 193 671.5 c 128,-1,50
 243 719 243 719 321 719 c 2,51,-1
 357 719 l 2,52,53
 428 719 428 719 475.5 678.5 c 128,-1,54
 523 638 523 638 523 562 c 0,55,56
 523 493 523 493 489.5 442 c 128,-1,57
 456 391 456 391 393 339 c 1,58,59
 443 329 443 329 474 315.5 c 128,-1,60
 505 302 505 302 523.5 276.5 c 128,-1,61
 542 251 542 251 554 207 c 1,62,-1
 659 207 l 1,63,64
 664 233 664 233 684 252.5 c 128,-1,65
 704 272 704 272 744 272 c 0,66,67
 762 272 762 272 777.5 267.5 c 128,-1,68
 793 263 793 263 800 258 c 1,69,70
 784 242 784 242 776.5 224 c 128,-1,71
 769 206 769 206 769 180 c 0,72,73
 769 153 769 153 778 135 c 128,-1,74
 787 117 787 117 800 106 c 1,75,76
 793 100 793 100 777.5 95 c 128,-1,77
 762 90 762 90 744 90 c 0,78,79
 704 90 704 90 684 110 c 128,-1,80
 664 130 664 130 659 157 c 1,81,-1
 565 157 l 1,82,83
 568 144 568 144 570 129 c 0,84,85
 578 78 578 78 593 60 c 128,-1,86
 608 42 608 42 638 42 c 1,87,-1
 638 4 l 1,88,-1
 514 -5 l 1,89,90
 500 12 500 12 492 34.5 c 128,-1,91
 484 57 484 57 479 93 c 0,92,93
 471 150 471 150 462 187 c 128,-1,94
 453 224 453 224 440 246.5 c 128,-1,95
 427 269 427 269 406 282.5 c 128,-1,96
 385 296 385 296 352 305 c 1,97,98
 270 236 270 236 235 189 c 128,-1,99
 200 142 200 142 200 100 c 0,100,101
 200 69 200 69 213.5 56 c 128,-1,102
 227 43 227 43 254 43 c 1,103,-1
 254 4 l 1,104,-1
 124 -5 l 1,38,39
355 404 m 1,105,106
 395 442 395 442 415 478.5 c 128,-1,107
 435 515 435 515 435 561 c 0,108,109
 435 624 435 624 405.5 650.5 c 128,-1,110
 376 677 376 677 335 677 c 0,111,112
 290 677 290 677 260.5 644.5 c 128,-1,113
 231 612 231 612 231 550 c 0,114,115
 231 435 231 435 355 404 c 1,105,106
EndSplineSet
EndChar

StartChar: uni1265
Encoding: 4709 4709 16
Width: 787
GlyphClass: 2
Flags: W
AnchorPoint: "+BBEENQQ3BEsEPARPBD0EPQQ+BDUA--0" 371 726 basechar 0
LayerCount: 2
Fore
SplineSet
63 180 m 0,0,1
 27 180 27 180 5 196 c 1,2,3
 39 224 39 224 39 279 c 0,4,5
 39 297 39 297 36 312.5 c 128,-1,6
 33 328 33 328 31 335 c 1,7,-1
 231 335 l 1,8,-1
 231 429 l 2,9,10
 231 529 231 529 265.5 594.5 c 128,-1,11
 300 660 300 660 359.5 693 c 128,-1,12
 419 726 419 726 495 726 c 0,13,14
 599 726 599 726 640 669 c 128,-1,15
 681 612 681 612 681 499 c 0,16,17
 681 472 681 472 680.5 429 c 128,-1,18
 680 386 680 386 679.5 334 c 128,-1,19
 679 282 679 282 678.5 226.5 c 128,-1,20
 678 171 678 171 678 120 c 0,21,22
 678 76 678 76 692 61.5 c 128,-1,23
 706 47 706 47 737 47 c 1,24,-1
 737 5 l 1,25,-1
 604 -4 l 1,26,27
 578 23 578 23 578 94 c 0,28,29
 578 170 578 170 578.5 245 c 128,-1,30
 579 320 579 320 579.5 387 c 128,-1,31
 580 454 580 454 580 506 c 0,32,33
 580 592 580 592 558 635 c 128,-1,34
 536 678 536 678 480 678 c 0,35,36
 433 678 433 678 399.5 651 c 128,-1,37
 366 624 366 624 348.5 564 c 128,-1,38
 331 504 331 504 331 404 c 2,39,-1
 331 120 l 2,40,41
 331 76 331 76 345 61.5 c 128,-1,42
 359 47 359 47 390 47 c 1,43,-1
 390 5 l 1,44,-1
 257 -4 l 1,45,46
 243 11 243 11 237 37 c 128,-1,47
 231 63 231 63 231 94 c 2,48,-1
 231 285 l 1,49,-1
 148 285 l 1,50,51
 149 280 149 280 149.5 274.5 c 128,-1,52
 150 269 150 269 150 262 c 0,53,54
 150 228 150 228 128.5 204 c 128,-1,55
 107 180 107 180 63 180 c 0,0,1
EndSplineSet
EndChar

StartChar: uni1264
Encoding: 4708 4708 17
Width: 806
GlyphClass: 2
Flags: W
AnchorPoint: "+BBEENQQ3BEsEPARPBD0EPQQ+BDUA--0" 435 726 basechar 0
LayerCount: 2
Fore
SplineSet
116 -4 m 1,0,1
 102 11 102 11 96 37 c 128,-1,2
 90 63 90 63 90 94 c 2,3,-1
 90 429 l 2,4,5
 90 529 90 529 124.5 594.5 c 128,-1,6
 159 660 159 660 218.5 693 c 128,-1,7
 278 726 278 726 354 726 c 0,8,9
 458 726 458 726 499 669 c 128,-1,10
 540 612 540 612 540 499 c 0,11,12
 540 458 540 458 539 406 c 128,-1,13
 538 354 538 354 537.5 305 c 128,-1,14
 537 256 537 256 537 222 c 1,15,-1
 648 222 l 2,16,17
 781 222 781 222 781 126 c 0,18,19
 781 74 781 74 743 37 c 128,-1,20
 705 0 705 0 634 0 c 2,21,-1
 507 0 l 1,22,23
 475 7 475 7 456 27 c 128,-1,24
 437 47 437 47 437 83 c 0,25,26
 437 166 437 166 437.5 244 c 128,-1,27
 438 322 438 322 438.5 389.5 c 128,-1,28
 439 457 439 457 439 506 c 0,29,30
 439 592 439 592 417 635 c 128,-1,31
 395 678 395 678 339 678 c 0,32,33
 292 678 292 678 258.5 651 c 128,-1,34
 225 624 225 624 207.5 564 c 128,-1,35
 190 504 190 504 190 404 c 2,36,-1
 190 120 l 2,37,38
 190 76 190 76 204 61.5 c 128,-1,39
 218 47 218 47 249 47 c 1,40,-1
 249 5 l 1,41,-1
 116 -4 l 1,0,1
605 35 m 0,42,43
 687 35 687 35 687 122 c 0,44,45
 687 155 687 155 669.5 169.5 c 128,-1,46
 652 184 652 184 617 184 c 2,47,-1
 537 184 l 1,48,-1
 537 90 l 2,49,50
 537 58 537 58 554.5 46.5 c 128,-1,51
 572 35 572 35 605 35 c 0,42,43
EndSplineSet
EndChar

StartChar: uni1262
Encoding: 4706 4706 18
Width: 788
GlyphClass: 2
Flags: W
AnchorPoint: "+BBEENQQ3BEsEPARPBD0EPQQ+BDUA--0" 431 726 basechar 0
LayerCount: 2
Fore
SplineSet
717 -67 m 0,0,1
 677 -67 677 -67 657 -47 c 128,-1,2
 637 -27 637 -27 632 0 c 1,3,-1
 461 0 l 1,4,5
 449 14 449 14 443 36 c 128,-1,6
 437 58 437 58 437 94 c 0,7,8
 437 170 437 170 437.5 245 c 128,-1,9
 438 320 438 320 438.5 387 c 128,-1,10
 439 454 439 454 439 506 c 0,11,12
 439 592 439 592 417 635 c 128,-1,13
 395 678 395 678 339 678 c 0,14,15
 292 678 292 678 258.5 651 c 128,-1,16
 225 624 225 624 207.5 564 c 128,-1,17
 190 504 190 504 190 404 c 2,18,-1
 190 120 l 2,19,20
 190 76 190 76 204 61.5 c 128,-1,21
 218 47 218 47 249 47 c 1,22,-1
 249 5 l 1,23,-1
 116 -4 l 1,24,25
 102 11 102 11 96 37 c 128,-1,26
 90 63 90 63 90 94 c 2,27,-1
 90 429 l 2,28,29
 90 529 90 529 124.5 594.5 c 128,-1,30
 159 660 159 660 218.5 693 c 128,-1,31
 278 726 278 726 354 726 c 0,32,33
 458 726 458 726 499 669 c 128,-1,34
 540 612 540 612 540 499 c 0,35,36
 540 472 540 472 539.5 429 c 128,-1,37
 539 386 539 386 538.5 334 c 128,-1,38
 538 282 538 282 537.5 226.5 c 128,-1,39
 537 171 537 171 537 120 c 0,40,41
 537 76 537 76 551 63 c 128,-1,42
 565 50 565 50 596 50 c 2,43,-1
 632 50 l 1,44,45
 637 76 637 76 657 95.5 c 128,-1,46
 677 115 677 115 717 115 c 0,47,48
 735 115 735 115 750.5 110.5 c 128,-1,49
 766 106 766 106 773 101 c 1,50,51
 757 85 757 85 749.5 67 c 128,-1,52
 742 49 742 49 742 23 c 0,53,54
 742 -4 742 -4 751 -22 c 128,-1,55
 760 -40 760 -40 773 -51 c 1,56,57
 766 -57 766 -57 750.5 -62 c 128,-1,58
 735 -67 735 -67 717 -67 c 0,0,1
EndSplineSet
EndChar

StartChar: uni1266
Encoding: 4710 4710 19
Width: 626
GlyphClass: 2
Flags: W
AnchorPoint: "+BBEENQQ3BEsEPARPBD0EPQQ+BDUA--0" 343 726 basechar 0
LayerCount: 2
Fore
SplineSet
116 -4 m 1,0,1
 102 11 102 11 96 37 c 128,-1,2
 90 63 90 63 90 94 c 2,3,-1
 90 429 l 2,4,5
 90 529 90 529 124.5 594.5 c 128,-1,6
 159 660 159 660 218.5 693 c 128,-1,7
 278 726 278 726 354 726 c 0,8,9
 458 726 458 726 499 669 c 128,-1,10
 540 612 540 612 540 499 c 0,11,12
 540 484 540 484 539 459 c 128,-1,13
 538 434 538 434 537.5 408.5 c 128,-1,14
 537 383 537 383 537 365 c 0,15,16
 537 321 537 321 551 306.5 c 128,-1,17
 565 292 565 292 596 292 c 1,18,-1
 596 250 l 1,19,-1
 463 241 l 1,20,21
 437 268 437 268 437 339 c 0,22,23
 437 378 437 378 438 425.5 c 128,-1,24
 439 473 439 473 439 506 c 0,25,26
 439 592 439 592 417 635 c 128,-1,27
 395 678 395 678 339 678 c 0,28,29
 292 678 292 678 258.5 651 c 128,-1,30
 225 624 225 624 207.5 564 c 128,-1,31
 190 504 190 504 190 404 c 2,32,-1
 190 120 l 2,33,34
 190 76 190 76 204 61.5 c 128,-1,35
 218 47 218 47 249 47 c 1,36,-1
 249 5 l 1,37,-1
 116 -4 l 1,0,1
EndSplineSet
EndChar

StartChar: uni2D85
Encoding: 11653 11653 20
Width: 774
GlyphClass: 2
Flags: W
AnchorPoint: "+BBEENQQ3BEsEPARPBD0EPQQ+BDUA--0" 379 726 basechar 0
LayerCount: 2
Fore
SplineSet
71 232 m 0,0,1
 53 232 53 232 38 237 c 128,-1,2
 23 242 23 242 15 248 c 1,3,4
 28 259 28 259 37 277 c 128,-1,5
 46 295 46 295 46 322 c 0,6,7
 46 348 46 348 38.5 366 c 128,-1,8
 31 384 31 384 15 400 c 1,9,10
 23 405 23 405 38 409.5 c 128,-1,11
 53 414 53 414 71 414 c 0,12,13
 111 414 111 414 131.5 394.5 c 128,-1,14
 152 375 152 375 156 349 c 1,15,-1
 238 349 l 1,16,-1
 238 429 l 2,17,18
 238 529 238 529 272.5 594.5 c 128,-1,19
 307 660 307 660 366.5 693 c 128,-1,20
 426 726 426 726 502 726 c 0,21,22
 606 726 606 726 647 669 c 128,-1,23
 688 612 688 612 688 499 c 0,24,25
 688 484 688 484 687 459 c 128,-1,26
 686 434 686 434 685.5 408.5 c 128,-1,27
 685 383 685 383 685 365 c 0,28,29
 685 321 685 321 699 306.5 c 128,-1,30
 713 292 713 292 744 292 c 1,31,-1
 744 250 l 1,32,-1
 611 241 l 1,33,34
 585 268 585 268 585 339 c 0,35,36
 585 378 585 378 586 425.5 c 128,-1,37
 587 473 587 473 587 506 c 0,38,39
 587 592 587 592 565 635 c 128,-1,40
 543 678 543 678 487 678 c 0,41,42
 440 678 440 678 406.5 651 c 128,-1,43
 373 624 373 624 355.5 564 c 128,-1,44
 338 504 338 504 338 404 c 2,45,-1
 338 120 l 2,46,47
 338 76 338 76 352 61.5 c 128,-1,48
 366 47 366 47 397 47 c 1,49,-1
 397 5 l 1,50,-1
 264 -4 l 1,51,52
 250 11 250 11 244 37 c 128,-1,53
 238 63 238 63 238 94 c 2,54,-1
 238 299 l 1,55,-1
 156 299 l 1,56,57
 151 272 151 272 131 252 c 128,-1,58
 111 232 111 232 71 232 c 0,0,1
EndSplineSet
EndChar

StartChar: uni1261
Encoding: 4705 4705 21
Width: 772
GlyphClass: 2
Flags: W
AnchorPoint: "+BBEENQQ3BEsEPARPBD0EPQQ+BDUA--0" 432 726 basechar 0
LayerCount: 2
Fore
SplineSet
116 -4 m 1,0,1
 102 11 102 11 96 37 c 128,-1,2
 90 63 90 63 90 94 c 2,3,-1
 90 429 l 2,4,5
 90 529 90 529 124.5 594.5 c 128,-1,6
 159 660 159 660 218.5 693 c 128,-1,7
 278 726 278 726 354 726 c 0,8,9
 458 726 458 726 499 669 c 128,-1,10
 540 612 540 612 540 499 c 0,11,12
 540 474 540 474 539.5 435 c 128,-1,13
 539 396 539 396 539 349 c 1,14,-1
 626 349 l 1,15,16
 631 375 631 375 651 394.5 c 128,-1,17
 671 414 671 414 711 414 c 0,18,19
 729 414 729 414 744.5 409.5 c 128,-1,20
 760 405 760 405 767 400 c 1,21,22
 751 384 751 384 743.5 366 c 128,-1,23
 736 348 736 348 736 322 c 0,24,25
 736 295 736 295 745 277 c 128,-1,26
 754 259 754 259 767 248 c 1,27,28
 760 242 760 242 744.5 237 c 128,-1,29
 729 232 729 232 711 232 c 0,30,31
 671 232 671 232 651 252 c 128,-1,32
 631 272 631 272 626 299 c 1,33,-1
 538 299 l 1,34,35
 538 255 538 255 537.5 209 c 128,-1,36
 537 163 537 163 537 120 c 0,37,38
 537 76 537 76 551 61.5 c 128,-1,39
 565 47 565 47 596 47 c 1,40,-1
 596 5 l 1,41,-1
 463 -4 l 1,42,43
 437 23 437 23 437 94 c 0,44,45
 437 170 437 170 437.5 245 c 128,-1,46
 438 320 438 320 438.5 387 c 128,-1,47
 439 454 439 454 439 506 c 0,48,49
 439 592 439 592 417 635 c 128,-1,50
 395 678 395 678 339 678 c 0,51,52
 292 678 292 678 258.5 651 c 128,-1,53
 225 624 225 624 207.5 564 c 128,-1,54
 190 504 190 504 190 404 c 2,55,-1
 190 120 l 2,56,57
 190 76 190 76 204 61.5 c 128,-1,58
 218 47 218 47 249 47 c 1,59,-1
 249 5 l 1,60,-1
 116 -4 l 1,0,1
EndSplineSet
EndChar

StartChar: uni1267
Encoding: 4711 4711 22
Width: 751
GlyphClass: 2
Flags: W
AnchorPoint: "+BBEENQQ3BEsEPARPBD0EPQQ+BDUA--0" 375 726 basechar 0
LayerCount: 2
Fore
SplineSet
73 -105 m 0,0,1
 37 -105 37 -105 15 -89 c 1,2,3
 49 -61 49 -61 49 -6 c 0,4,5
 49 12 49 12 46 27.5 c 128,-1,6
 43 43 43 43 41 50 c 1,7,-1
 428 50 l 1,8,-1
 428 506 l 2,9,10
 428 592 428 592 406.5 635 c 128,-1,11
 385 678 385 678 329 678 c 0,12,13
 282 678 282 678 248.5 651 c 128,-1,14
 215 624 215 624 197.5 564 c 128,-1,15
 180 504 180 504 180 404 c 2,16,-1
 180 363 l 2,17,18
 180 319 180 319 194 304.5 c 128,-1,19
 208 290 208 290 239 290 c 1,20,-1
 239 248 l 1,21,-1
 106 239 l 1,22,23
 92 254 92 254 86 280 c 128,-1,24
 80 306 80 306 80 337 c 2,25,-1
 80 429 l 2,26,27
 80 529 80 529 114.5 594.5 c 128,-1,28
 149 660 149 660 208.5 693 c 128,-1,29
 268 726 268 726 344 726 c 0,30,31
 448 726 448 726 488.5 669 c 128,-1,32
 529 612 529 612 529 499 c 2,33,-1
 529 50 l 1,34,-1
 710 50 l 1,35,36
 708 43 708 43 705 27.5 c 128,-1,37
 702 12 702 12 702 -6 c 0,38,39
 702 -61 702 -61 736 -89 c 1,40,41
 714 -105 714 -105 678 -105 c 0,42,43
 635 -105 635 -105 613 -81 c 128,-1,44
 591 -57 591 -57 591 -23 c 0,45,46
 591 -16 591 -16 591.5 -10.5 c 128,-1,47
 592 -5 592 -5 593 0 c 1,48,-1
 158 0 l 1,49,50
 159 -5 159 -5 159.5 -10.5 c 128,-1,51
 160 -16 160 -16 160 -23 c 0,52,53
 160 -57 160 -57 138.5 -81 c 128,-1,54
 117 -105 117 -105 73 -105 c 0,0,1
EndSplineSet
EndChar

StartChar: uni1384
Encoding: 4996 4996 23
Width: 991
GlyphClass: 2
Flags: W
AnchorPoint: "+BBEENQQ3BEsEPARPBD0EPQQ+BDUA--0" 533 726 basechar 0
LayerCount: 2
Fore
SplineSet
756 198 m 2,0,1
 717 198 717 198 693.5 226 c 128,-1,2
 670 254 670 254 670 298 c 0,3,4
 670 316 670 316 673 332 c 1,5,-1
 538 332 l 1,6,7
 538 281 538 281 537.5 226 c 128,-1,8
 537 171 537 171 537 120 c 0,9,10
 537 76 537 76 551 61.5 c 128,-1,11
 565 47 565 47 596 47 c 1,12,-1
 596 5 l 1,13,-1
 463 -4 l 1,14,15
 437 23 437 23 437 94 c 0,16,17
 437 170 437 170 437.5 245 c 128,-1,18
 438 320 438 320 438.5 387 c 128,-1,19
 439 454 439 454 439 506 c 0,20,21
 439 592 439 592 417 635 c 128,-1,22
 395 678 395 678 339 678 c 0,23,24
 292 678 292 678 258.5 651 c 128,-1,25
 225 624 225 624 207.5 564 c 128,-1,26
 190 504 190 504 190 404 c 2,27,-1
 190 120 l 2,28,29
 190 76 190 76 204 61.5 c 128,-1,30
 218 47 218 47 249 47 c 1,31,-1
 249 5 l 1,32,-1
 116 -4 l 1,33,34
 102 11 102 11 96 37 c 128,-1,35
 90 63 90 63 90 94 c 2,36,-1
 90 429 l 2,37,38
 90 529 90 529 124.5 594.5 c 128,-1,39
 159 660 159 660 218.5 693 c 128,-1,40
 278 726 278 726 354 726 c 0,41,42
 458 726 458 726 499 669 c 128,-1,43
 540 612 540 612 540 499 c 0,44,45
 540 479 540 479 539.5 448.5 c 128,-1,46
 539 418 539 418 539 382 c 1,47,-1
 694 382 l 1,48,49
 710 404 710 404 737.5 416 c 128,-1,50
 765 428 765 428 803 428 c 2,51,-1
 876 428 l 2,52,53
 926 428 926 428 951 401.5 c 128,-1,54
 976 375 976 375 976 325 c 0,55,56
 976 292 976 292 962.5 263 c 128,-1,57
 949 234 949 234 924.5 216 c 128,-1,58
 900 198 900 198 867 198 c 2,59,-1
 756 198 l 2,0,1
814 233 m 0,60,61
 852 233 852 233 872.5 259.5 c 128,-1,62
 893 286 893 286 893 324 c 0,63,64
 893 354 893 354 877 371.5 c 128,-1,65
 861 389 861 389 830 389 c 0,66,67
 794 389 794 389 773.5 365 c 128,-1,68
 753 341 753 341 753 300 c 0,69,70
 753 270 753 270 769 251.5 c 128,-1,71
 785 233 785 233 814 233 c 0,60,61
EndSplineSet
EndChar

StartChar: uni1387
Encoding: 4999 4999 24
Width: 1130
GlyphClass: 2
Flags: W
AnchorPoint: "+BBEENQQ3BEsEPARPBD0EPQQ+BDUA--0" 560 726 basechar 0
LayerCount: 2
Fore
SplineSet
63 246 m 0,0,1
 27 246 27 246 5 262 c 1,2,3
 39 290 39 290 39 345 c 0,4,5
 39 363 39 363 36 378.5 c 128,-1,6
 33 394 33 394 31 401 c 1,7,-1
 229 401 l 1,8,-1
 229 429 l 2,9,10
 229 529 229 529 263.5 594.5 c 128,-1,11
 298 660 298 660 357.5 693 c 128,-1,12
 417 726 417 726 493 726 c 0,13,14
 597 726 597 726 638 669 c 128,-1,15
 679 612 679 612 679 499 c 0,16,17
 679 479 679 479 678.5 448.5 c 128,-1,18
 678 418 678 418 678 382 c 1,19,-1
 833 382 l 1,20,21
 849 404 849 404 876.5 416 c 128,-1,22
 904 428 904 428 942 428 c 2,23,-1
 1015 428 l 2,24,25
 1065 428 1065 428 1090 401.5 c 128,-1,26
 1115 375 1115 375 1115 325 c 0,27,28
 1115 292 1115 292 1101.5 263 c 128,-1,29
 1088 234 1088 234 1063.5 216 c 128,-1,30
 1039 198 1039 198 1006 198 c 2,31,-1
 895 198 l 2,32,33
 856 198 856 198 832.5 226 c 128,-1,34
 809 254 809 254 809 298 c 0,35,36
 809 316 809 316 812 332 c 1,37,-1
 677 332 l 1,38,39
 677 281 677 281 676.5 226 c 128,-1,40
 676 171 676 171 676 120 c 0,41,42
 676 76 676 76 690 61.5 c 128,-1,43
 704 47 704 47 735 47 c 1,44,-1
 735 5 l 1,45,-1
 602 -4 l 1,46,47
 576 23 576 23 576 94 c 0,48,49
 576 170 576 170 576.5 245 c 128,-1,50
 577 320 577 320 577.5 387 c 128,-1,51
 578 454 578 454 578 506 c 0,52,53
 578 592 578 592 556 635 c 128,-1,54
 534 678 534 678 478 678 c 0,55,56
 431 678 431 678 397.5 651 c 128,-1,57
 364 624 364 624 346.5 564 c 128,-1,58
 329 504 329 504 329 404 c 2,59,-1
 329 120 l 2,60,61
 329 76 329 76 343 61.5 c 128,-1,62
 357 47 357 47 388 47 c 1,63,-1
 388 5 l 1,64,-1
 255 -4 l 1,65,66
 241 11 241 11 235 37 c 128,-1,67
 229 63 229 63 229 94 c 2,68,-1
 229 351 l 1,69,-1
 148 351 l 1,70,71
 149 346 149 346 149.5 340.5 c 128,-1,72
 150 335 150 335 150 328 c 0,73,74
 150 294 150 294 128.5 270 c 128,-1,75
 107 246 107 246 63 246 c 0,0,1
953 233 m 0,76,77
 991 233 991 233 1011.5 259.5 c 128,-1,78
 1032 286 1032 286 1032 324 c 0,79,80
 1032 354 1032 354 1016 371.5 c 128,-1,81
 1000 389 1000 389 969 389 c 0,82,83
 933 389 933 389 912.5 365 c 128,-1,84
 892 341 892 341 892 300 c 0,85,86
 892 270 892 270 908 251.5 c 128,-1,87
 924 233 924 233 953 233 c 0,76,77
EndSplineSet
EndChar

StartChar: uni1386
Encoding: 4998 4998 25
Width: 779
GlyphClass: 2
Flags: W
AnchorPoint: "+BBEENQQ3BEsEPARPBD0EPQQ+BDUA--0" 410 726 basechar 0
LayerCount: 2
Fore
SplineSet
263 -105 m 0,0,1
 227 -105 227 -105 205 -89 c 1,2,3
 239 -61 239 -61 239 -6 c 0,4,5
 239 12 239 12 236 27.5 c 128,-1,6
 233 43 233 43 231 50 c 1,7,-1
 429 50 l 1,8,9
 415 75 415 75 415 113 c 2,10,-1
 415 506 l 2,11,12
 415 592 415 592 393 635 c 128,-1,13
 371 678 371 678 315 678 c 0,14,15
 268 678 268 678 234.5 651 c 128,-1,16
 201 624 201 624 183.5 564 c 128,-1,17
 166 504 166 504 166 404 c 2,18,-1
 166 363 l 2,19,20
 166 319 166 319 180 304.5 c 128,-1,21
 194 290 194 290 225 290 c 1,22,-1
 225 248 l 1,23,-1
 92 239 l 1,24,25
 78 254 78 254 72 280 c 128,-1,26
 66 306 66 306 66 337 c 2,27,-1
 66 429 l 2,28,29
 66 529 66 529 100.5 594.5 c 128,-1,30
 135 660 135 660 194.5 693 c 128,-1,31
 254 726 254 726 330 726 c 0,32,33
 434 726 434 726 473.5 669 c 128,-1,34
 513 612 513 612 513 499 c 2,35,-1
 513 222 l 1,36,-1
 621 222 l 2,37,38
 754 222 754 222 754 126 c 0,39,40
 754 74 754 74 716 37 c 128,-1,41
 678 0 678 0 607 0 c 2,42,-1
 348 0 l 1,43,44
 349 -5 349 -5 349.5 -10.5 c 128,-1,45
 350 -16 350 -16 350 -23 c 0,46,47
 350 -57 350 -57 328.5 -81 c 128,-1,48
 307 -105 307 -105 263 -105 c 0,0,1
578 35 m 0,49,50
 660 35 660 35 660 122 c 0,51,52
 660 155 660 155 642.5 169.5 c 128,-1,53
 625 184 625 184 590 184 c 2,54,-1
 513 184 l 1,55,-1
 513 120 l 2,56,57
 513 73 513 73 529 54 c 128,-1,58
 545 35 545 35 578 35 c 0,49,50
EndSplineSet
EndChar

StartChar: uni1385
Encoding: 4997 4997 26
Width: 949
GlyphClass: 2
Flags: W
AnchorPoint: "+BBEENQQ3BEsEPARPBD0EPQQ+BDUA--0" 512 726 basechar 0
LayerCount: 2
Fore
SplineSet
647 244 m 1,0,-1
 647 328 l 1,1,-1
 538 328 l 1,2,3
 538 277 538 277 537.5 223.5 c 128,-1,4
 537 170 537 170 537 120 c 0,5,6
 537 76 537 76 551 61.5 c 128,-1,7
 565 47 565 47 596 47 c 1,8,-1
 596 5 l 1,9,-1
 463 -4 l 1,10,11
 437 23 437 23 437 94 c 0,12,13
 437 170 437 170 437.5 245 c 128,-1,14
 438 320 438 320 438.5 387 c 128,-1,15
 439 454 439 454 439 506 c 0,16,17
 439 592 439 592 417 635 c 128,-1,18
 395 678 395 678 339 678 c 0,19,20
 292 678 292 678 258.5 651 c 128,-1,21
 225 624 225 624 207.5 564 c 128,-1,22
 190 504 190 504 190 404 c 2,23,-1
 190 120 l 2,24,25
 190 76 190 76 204 61.5 c 128,-1,26
 218 47 218 47 249 47 c 1,27,-1
 249 5 l 1,28,-1
 116 -4 l 1,29,30
 102 11 102 11 96 37 c 128,-1,31
 90 63 90 63 90 94 c 2,32,-1
 90 429 l 2,33,34
 90 529 90 529 124.5 594.5 c 128,-1,35
 159 660 159 660 218.5 693 c 128,-1,36
 278 726 278 726 354 726 c 0,37,38
 458 726 458 726 499 669 c 128,-1,39
 540 612 540 612 540 499 c 0,40,41
 540 478 540 478 539.5 447 c 128,-1,42
 539 416 539 416 539 378 c 1,43,-1
 647 378 l 1,44,-1
 647 481 l 1,45,-1
 729 481 l 1,46,-1
 729 294 l 1,47,-1
 908 294 l 1,48,49
 906 287 906 287 903 271.5 c 128,-1,50
 900 256 900 256 900 238 c 0,51,52
 900 183 900 183 934 155 c 1,53,54
 912 139 912 139 876 139 c 0,55,56
 833 139 833 139 811 163 c 128,-1,57
 789 187 789 187 789 221 c 0,58,59
 789 228 789 228 789.5 233.5 c 128,-1,60
 790 239 790 239 791 244 c 1,61,-1
 647 244 l 1,0,-1
EndSplineSet
EndChar

StartChar: uni1278
Encoding: 4728 4728 27
Width: 681
GlyphClass: 2
Flags: W
AnchorPoint: "+BBEENQQ3BEsEPARPBD0EPQQ+BDUA--0" 340 826 basechar 0
LayerCount: 2
Fore
SplineSet
320 -5 m 1,0,1
 307 8 307 8 299 26.5 c 128,-1,2
 291 45 291 45 291 73 c 2,3,-1
 291 471 l 1,4,-1
 168 471 l 1,5,6
 169 466 169 466 169.5 460.5 c 128,-1,7
 170 455 170 455 170 448 c 0,8,9
 170 414 170 414 148.5 390 c 128,-1,10
 127 366 127 366 83 366 c 0,11,12
 47 366 47 366 25 382 c 1,13,14
 59 410 59 410 59 465 c 0,15,16
 59 483 59 483 56 498.5 c 128,-1,17
 53 514 53 514 51 521 c 1,18,-1
 291 521 l 1,19,-1
 291 710 l 1,20,-1
 196 710 l 1,21,22
 192 685 192 685 170.5 664.5 c 128,-1,23
 149 644 149 644 112 644 c 0,24,25
 94 644 94 644 80.5 649 c 128,-1,26
 67 654 67 654 59 659 c 1,27,28
 75 675 75 675 82.5 693.5 c 128,-1,29
 90 712 90 712 90 737 c 0,30,31
 90 764 90 764 81 782 c 128,-1,32
 72 800 72 800 59 811 c 1,33,34
 67 817 67 817 80.5 821.5 c 128,-1,35
 94 826 94 826 112 826 c 0,36,37
 149 826 149 826 170 806.5 c 128,-1,38
 191 787 191 787 196 760 c 1,39,-1
 481 760 l 1,40,41
 486 786 486 786 507 806 c 128,-1,42
 528 826 528 826 565 826 c 0,43,44
 583 826 583 826 597 821 c 128,-1,45
 611 816 611 816 618 811 c 1,46,47
 602 795 602 795 594.5 777 c 128,-1,48
 587 759 587 759 587 733 c 0,49,50
 587 706 587 706 596 688 c 128,-1,51
 605 670 605 670 618 659 c 1,52,53
 611 653 611 653 597 648.5 c 128,-1,54
 583 644 583 644 565 644 c 0,55,56
 528 644 528 644 507 663.5 c 128,-1,57
 486 683 486 683 481 710 c 1,58,-1
 389 710 l 1,59,-1
 389 521 l 1,60,-1
 630 521 l 1,61,62
 628 514 628 514 625 498.5 c 128,-1,63
 622 483 622 483 622 465 c 0,64,65
 622 410 622 410 656 382 c 1,66,67
 634 366 634 366 598 366 c 0,68,69
 555 366 555 366 533 390 c 128,-1,70
 511 414 511 414 511 448 c 0,71,72
 511 455 511 455 511.5 460.5 c 128,-1,73
 512 466 512 466 513 471 c 1,74,-1
 389 471 l 1,75,-1
 389 111 l 2,76,77
 389 71 389 71 402 57.5 c 128,-1,78
 415 44 415 44 438 44 c 1,79,-1
 438 4 l 1,80,-1
 320 -5 l 1,0,1
EndSplineSet
EndChar

StartChar: uni127B
Encoding: 4731 4731 28
Width: 682
GlyphClass: 2
Flags: W
AnchorPoint: "+BBEENQQ3BEsEPARPBD0EPQQ+BDUA--0" 351 826 basechar 0
LayerCount: 2
Fore
SplineSet
84 -99 m 0,0,1
 68 -99 68 -99 55.5 -95.5 c 128,-1,2
 43 -92 43 -92 35 -88 c 1,3,4
 45 -73 45 -73 51 -50 c 128,-1,5
 57 -27 57 -27 57 -2 c 0,6,7
 57 12 57 12 56 23 c 128,-1,8
 55 34 55 34 53 43 c 1,9,-1
 114 43 l 2,10,11
 220 43 220 43 263 94 c 128,-1,12
 306 145 306 145 306 248 c 2,13,-1
 306 462 l 1,14,-1
 179 462 l 1,15,16
 180 457 180 457 180.5 451.5 c 128,-1,17
 181 446 181 446 181 439 c 0,18,19
 181 405 181 405 159.5 381 c 128,-1,20
 138 357 138 357 94 357 c 0,21,22
 58 357 58 357 36 373 c 1,23,24
 70 401 70 401 70 456 c 0,25,26
 70 474 70 474 67 489.5 c 128,-1,27
 64 505 64 505 62 512 c 1,28,-1
 306 512 l 1,29,-1
 306 710 l 1,30,-1
 212 710 l 1,31,32
 208 685 208 685 186.5 664.5 c 128,-1,33
 165 644 165 644 128 644 c 0,34,35
 110 644 110 644 96.5 649 c 128,-1,36
 83 654 83 654 75 659 c 1,37,38
 91 675 91 675 98.5 693.5 c 128,-1,39
 106 712 106 712 106 737 c 0,40,41
 106 764 106 764 97 782 c 128,-1,42
 88 800 88 800 75 811 c 1,43,44
 83 817 83 817 96.5 821.5 c 128,-1,45
 110 826 110 826 128 826 c 0,46,47
 165 826 165 826 186 806.5 c 128,-1,48
 207 787 207 787 212 760 c 1,49,-1
 497 760 l 1,50,51
 502 786 502 786 523 806 c 128,-1,52
 544 826 544 826 581 826 c 0,53,54
 599 826 599 826 613 821 c 128,-1,55
 627 816 627 816 634 811 c 1,56,57
 618 795 618 795 610.5 777 c 128,-1,58
 603 759 603 759 603 733 c 0,59,60
 603 706 603 706 612 688 c 128,-1,61
 621 670 621 670 634 659 c 1,62,63
 627 653 627 653 613 648.5 c 128,-1,64
 599 644 599 644 581 644 c 0,65,66
 544 644 544 644 523 663.5 c 128,-1,67
 502 683 502 683 497 710 c 1,68,-1
 404 710 l 1,69,-1
 404 512 l 1,70,-1
 641 512 l 1,71,72
 639 505 639 505 636 489.5 c 128,-1,73
 633 474 633 474 633 456 c 0,74,75
 633 401 633 401 667 373 c 1,76,77
 645 357 645 357 609 357 c 0,78,79
 566 357 566 357 544 381 c 128,-1,80
 522 405 522 405 522 439 c 0,81,82
 522 446 522 446 522.5 451.5 c 128,-1,83
 523 457 523 457 524 462 c 1,84,-1
 404 462 l 1,85,-1
 404 243 l 2,86,87
 404 131 404 131 342 63 c 128,-1,88
 280 -5 280 -5 167 -5 c 2,89,-1
 163 -5 l 1,90,91
 164 -11 164 -11 164 -14 c 128,-1,92
 164 -17 164 -17 164 -21 c 0,93,94
 164 -51 164 -51 143 -75 c 128,-1,95
 122 -99 122 -99 84 -99 c 0,0,1
EndSplineSet
EndChar

StartChar: uni2DA8
Encoding: 11688 11688 29
Width: 701
GlyphClass: 2
Flags: W
AnchorPoint: "+BBEENQQ3BEsEPARPBD0EPQQ+BDUA--0" 350 826 basechar 0
LayerCount: 2
Fore
SplineSet
117 115 m 0,0,1
 81 115 81 115 59 131 c 1,2,3
 93 159 93 159 93 214 c 0,4,5
 93 232 93 232 90 247.5 c 128,-1,6
 87 263 87 263 85 270 c 1,7,-1
 301 270 l 1,8,-1
 301 471 l 1,9,-1
 178 471 l 1,10,11
 179 466 179 466 179.5 460.5 c 128,-1,12
 180 455 180 455 180 448 c 0,13,14
 180 414 180 414 158.5 390 c 128,-1,15
 137 366 137 366 93 366 c 0,16,17
 57 366 57 366 35 382 c 1,18,19
 69 410 69 410 69 465 c 0,20,21
 69 483 69 483 66 498.5 c 128,-1,22
 63 514 63 514 61 521 c 1,23,-1
 301 521 l 1,24,-1
 301 710 l 1,25,-1
 206 710 l 1,26,27
 202 685 202 685 180.5 664.5 c 128,-1,28
 159 644 159 644 122 644 c 0,29,30
 104 644 104 644 90.5 649 c 128,-1,31
 77 654 77 654 69 659 c 1,32,33
 85 675 85 675 92.5 693.5 c 128,-1,34
 100 712 100 712 100 737 c 0,35,36
 100 764 100 764 91 782 c 128,-1,37
 82 800 82 800 69 811 c 1,38,39
 77 817 77 817 90.5 821.5 c 128,-1,40
 104 826 104 826 122 826 c 0,41,42
 159 826 159 826 180 806.5 c 128,-1,43
 201 787 201 787 206 760 c 1,44,-1
 491 760 l 1,45,46
 496 786 496 786 517 806 c 128,-1,47
 538 826 538 826 575 826 c 0,48,49
 593 826 593 826 607 821 c 128,-1,50
 621 816 621 816 628 811 c 1,51,52
 612 795 612 795 604.5 777 c 128,-1,53
 597 759 597 759 597 733 c 0,54,55
 597 706 597 706 606 688 c 128,-1,56
 615 670 615 670 628 659 c 1,57,58
 621 653 621 653 607 648.5 c 128,-1,59
 593 644 593 644 575 644 c 0,60,61
 538 644 538 644 517 663.5 c 128,-1,62
 496 683 496 683 491 710 c 1,63,-1
 399 710 l 1,64,-1
 399 521 l 1,65,-1
 640 521 l 1,66,67
 638 514 638 514 635 498.5 c 128,-1,68
 632 483 632 483 632 465 c 0,69,70
 632 410 632 410 666 382 c 1,71,72
 644 366 644 366 608 366 c 0,73,74
 565 366 565 366 543 390 c 128,-1,75
 521 414 521 414 521 448 c 0,76,77
 521 455 521 455 521.5 460.5 c 128,-1,78
 522 466 522 466 523 471 c 1,79,-1
 399 471 l 1,80,-1
 399 111 l 2,81,82
 399 71 399 71 412 57.5 c 128,-1,83
 425 44 425 44 448 44 c 1,84,-1
 448 4 l 1,85,-1
 330 -5 l 1,86,87
 317 8 317 8 309 26.5 c 128,-1,88
 301 45 301 45 301 73 c 2,89,-1
 301 220 l 1,90,-1
 202 220 l 1,91,92
 203 215 203 215 203.5 209.5 c 128,-1,93
 204 204 204 204 204 197 c 0,94,95
 204 163 204 163 182.5 139 c 128,-1,96
 161 115 161 115 117 115 c 0,0,1
EndSplineSet
EndChar

StartChar: uni2DAB
Encoding: 11691 11691 30
Width: 684
GlyphClass: 2
Flags: W
AnchorPoint: "+BBEENQQ3BEsEPARPBD0EPQQ+BDUA--0" 352 826 basechar 0
LayerCount: 2
Fore
SplineSet
84 -99 m 0,0,1
 68 -99 68 -99 55.5 -95.5 c 128,-1,2
 43 -92 43 -92 35 -88 c 1,3,4
 45 -73 45 -73 51 -50 c 128,-1,5
 57 -27 57 -27 57 -2 c 0,6,7
 57 12 57 12 56 23 c 128,-1,8
 55 34 55 34 53 43 c 1,9,-1
 114 43 l 2,10,11
 217 43 217 43 260.5 91 c 128,-1,12
 304 139 304 139 306 236 c 1,13,-1
 222 236 l 1,14,15
 223 231 223 231 223.5 225.5 c 128,-1,16
 224 220 224 220 224 213 c 0,17,18
 224 179 224 179 202.5 155 c 128,-1,19
 181 131 181 131 137 131 c 0,20,21
 101 131 101 131 79 147 c 1,22,23
 113 175 113 175 113 230 c 0,24,25
 113 248 113 248 110 263.5 c 128,-1,26
 107 279 107 279 105 286 c 1,27,-1
 306 286 l 1,28,-1
 306 470 l 1,29,-1
 181 470 l 1,30,31
 182 465 182 465 182.5 459.5 c 128,-1,32
 183 454 183 454 183 447 c 0,33,34
 183 413 183 413 161.5 389 c 128,-1,35
 140 365 140 365 96 365 c 0,36,37
 60 365 60 365 38 381 c 1,38,39
 72 409 72 409 72 464 c 0,40,41
 72 482 72 482 69 497.5 c 128,-1,42
 66 513 66 513 64 520 c 1,43,-1
 306 520 l 1,44,-1
 306 710 l 1,45,-1
 214 710 l 1,46,47
 210 685 210 685 188.5 664.5 c 128,-1,48
 167 644 167 644 130 644 c 0,49,50
 112 644 112 644 98.5 649 c 128,-1,51
 85 654 85 654 77 659 c 1,52,53
 93 675 93 675 100.5 693.5 c 128,-1,54
 108 712 108 712 108 737 c 0,55,56
 108 764 108 764 99 782 c 128,-1,57
 90 800 90 800 77 811 c 1,58,59
 85 817 85 817 98.5 821.5 c 128,-1,60
 112 826 112 826 130 826 c 0,61,62
 167 826 167 826 188 806.5 c 128,-1,63
 209 787 209 787 214 760 c 1,64,-1
 499 760 l 1,65,66
 504 786 504 786 525 806 c 128,-1,67
 546 826 546 826 583 826 c 0,68,69
 601 826 601 826 615 821 c 128,-1,70
 629 816 629 816 636 811 c 1,71,72
 620 795 620 795 612.5 777 c 128,-1,73
 605 759 605 759 605 733 c 0,74,75
 605 706 605 706 614 688 c 128,-1,76
 623 670 623 670 636 659 c 1,77,78
 629 653 629 653 615 648.5 c 128,-1,79
 601 644 601 644 583 644 c 0,80,81
 546 644 546 644 525 663.5 c 128,-1,82
 504 683 504 683 499 710 c 1,83,-1
 404 710 l 1,84,-1
 404 520 l 1,85,-1
 643 520 l 1,86,87
 641 513 641 513 638 497.5 c 128,-1,88
 635 482 635 482 635 464 c 0,89,90
 635 409 635 409 669 381 c 1,91,92
 647 365 647 365 611 365 c 0,93,94
 568 365 568 365 546 389 c 128,-1,95
 524 413 524 413 524 447 c 0,96,97
 524 454 524 454 524.5 459.5 c 128,-1,98
 525 465 525 465 526 470 c 1,99,-1
 404 470 l 1,100,-1
 404 243 l 2,101,102
 404 131 404 131 342 63 c 128,-1,103
 280 -5 280 -5 167 -5 c 2,104,-1
 163 -5 l 1,105,106
 164 -11 164 -11 164 -14 c 128,-1,107
 164 -17 164 -17 164 -21 c 0,108,109
 164 -51 164 -51 143 -75 c 128,-1,110
 122 -99 122 -99 84 -99 c 0,0,1
EndSplineSet
EndChar

StartChar: uni2DAD
Encoding: 11693 11693 31
Width: 735
GlyphClass: 2
Flags: W
AnchorPoint: "+BBEENQQ3BEsEPARPBD0EPQQ+BDUA--0" 382 825 basechar 0
LayerCount: 2
Fore
SplineSet
173 48 m 0,0,1
 137 48 137 48 115 64 c 1,2,3
 149 92 149 92 149 147 c 0,4,5
 149 165 149 165 146 180.5 c 128,-1,6
 143 196 143 196 141 203 c 1,7,-1
 347 203 l 1,8,9
 353 238 353 238 359.5 276 c 128,-1,10
 366 314 366 314 372 349 c 1,11,-1
 242 349 l 1,12,13
 243 344 243 344 243.5 338.5 c 128,-1,14
 244 333 244 333 244 326 c 0,15,16
 244 292 244 292 222.5 268 c 128,-1,17
 201 244 201 244 157 244 c 0,18,19
 121 244 121 244 99 260 c 1,20,21
 133 288 133 288 133 343 c 0,22,23
 133 361 133 361 130 376.5 c 128,-1,24
 127 392 127 392 125 399 c 1,25,-1
 380 399 l 1,26,27
 384 428 384 428 387 450 c 128,-1,28
 390 472 390 472 390 484 c 0,29,30
 390 513 390 513 376 524 c 128,-1,31
 362 535 362 535 332 535 c 2,32,-1
 235 535 l 1,33,-1
 235 708 l 1,34,-1
 65 708 l 1,35,36
 67 718 67 718 67 739 c 0,37,38
 67 793 67 793 35 819 c 1,39,40
 46 827 46 827 60 831 c 128,-1,41
 74 835 74 835 90 835 c 0,42,43
 127 835 127 835 149 813.5 c 128,-1,44
 171 792 171 792 174 760 c 1,45,-1
 394 760 l 1,46,47
 399 786 399 786 420 805.5 c 128,-1,48
 441 825 441 825 478 825 c 0,49,50
 498 825 498 825 511 820.5 c 128,-1,51
 524 816 524 816 532 809 c 1,52,53
 516 793 516 793 508 775.5 c 128,-1,54
 500 758 500 758 500 733 c 0,55,56
 500 686 500 686 532 658 c 1,57,58
 525 651 525 651 511 646 c 128,-1,59
 497 641 497 641 479 641 c 0,60,61
 445 641 445 641 424 659 c 128,-1,62
 403 677 403 677 394 708 c 1,63,-1
 333 708 l 1,64,-1
 333 588 l 1,65,-1
 409 588 l 2,66,67
 453 588 453 588 471 568.5 c 128,-1,68
 489 549 489 549 489 517 c 0,69,70
 489 505 489 505 484.5 473 c 128,-1,71
 480 441 480 441 473 399 c 1,72,-1
 704 399 l 1,73,74
 702 392 702 392 699 376.5 c 128,-1,75
 696 361 696 361 696 343 c 0,76,77
 696 288 696 288 730 260 c 1,78,79
 708 244 708 244 672 244 c 0,80,81
 629 244 629 244 607 268 c 128,-1,82
 585 292 585 292 585 326 c 0,83,84
 585 333 585 333 585.5 338.5 c 128,-1,85
 586 344 586 344 587 349 c 1,86,-1
 465 349 l 1,87,88
 457 297 457 297 448.5 245 c 128,-1,89
 440 193 440 193 434.5 153 c 128,-1,90
 429 113 429 113 429 98 c 0,91,92
 429 72 429 72 442 58 c 128,-1,93
 455 44 455 44 485 44 c 1,94,-1
 485 4 l 1,95,-1
 362 -5 l 1,96,97
 347 6 347 6 338.5 23.5 c 128,-1,98
 330 41 330 41 330 70 c 0,99,100
 330 82 330 82 332.5 103.5 c 128,-1,101
 335 125 335 125 339 153 c 1,102,-1
 258 153 l 1,103,104
 259 148 259 148 259.5 142.5 c 128,-1,105
 260 137 260 137 260 130 c 0,106,107
 260 96 260 96 238.5 72 c 128,-1,108
 217 48 217 48 173 48 c 0,0,1
EndSplineSet
EndChar

StartChar: uni2DAC
Encoding: 11692 11692 32
Width: 701
GlyphClass: 2
Flags: W
AnchorPoint: "+BBEENQQ3BEsEPARPBD0EPQQ+BDUA--0" 350 826 basechar 0
LayerCount: 2
Fore
SplineSet
104 116 m 0,0,1
 68 116 68 116 46 132 c 1,2,3
 80 160 80 160 80 215 c 0,4,5
 80 233 80 233 77 248.5 c 128,-1,6
 74 264 74 264 72 271 c 1,7,-1
 308 271 l 1,8,-1
 308 468 l 1,9,-1
 178 468 l 1,10,11
 179 463 179 463 179.5 457.5 c 128,-1,12
 180 452 180 452 180 445 c 0,13,14
 180 411 180 411 158.5 387 c 128,-1,15
 137 363 137 363 93 363 c 0,16,17
 57 363 57 363 35 379 c 1,18,19
 69 407 69 407 69 462 c 0,20,21
 69 480 69 480 66 495.5 c 128,-1,22
 63 511 63 511 61 518 c 1,23,-1
 308 518 l 1,24,-1
 308 710 l 1,25,-1
 214 710 l 1,26,27
 210 685 210 685 188.5 664.5 c 128,-1,28
 167 644 167 644 130 644 c 0,29,30
 112 644 112 644 98.5 649 c 128,-1,31
 85 654 85 654 77 659 c 1,32,33
 93 675 93 675 100.5 693.5 c 128,-1,34
 108 712 108 712 108 737 c 0,35,36
 108 764 108 764 99 782 c 128,-1,37
 90 800 90 800 77 811 c 1,38,39
 85 817 85 817 98.5 821.5 c 128,-1,40
 112 826 112 826 130 826 c 0,41,42
 167 826 167 826 188 806.5 c 128,-1,43
 209 787 209 787 214 760 c 1,44,-1
 499 760 l 1,45,46
 504 786 504 786 525 806 c 128,-1,47
 546 826 546 826 583 826 c 0,48,49
 601 826 601 826 615 821 c 128,-1,50
 629 816 629 816 636 811 c 1,51,52
 620 795 620 795 612.5 777 c 128,-1,53
 605 759 605 759 605 733 c 0,54,55
 605 706 605 706 614 688 c 128,-1,56
 623 670 623 670 636 659 c 1,57,58
 629 653 629 653 615 648.5 c 128,-1,59
 601 644 601 644 583 644 c 0,60,61
 546 644 546 644 525 663.5 c 128,-1,62
 504 683 504 683 499 710 c 1,63,-1
 406 710 l 1,64,-1
 406 518 l 1,65,-1
 640 518 l 1,66,67
 638 511 638 511 635 495.5 c 128,-1,68
 632 480 632 480 632 462 c 0,69,70
 632 407 632 407 666 379 c 1,71,72
 644 363 644 363 608 363 c 0,73,74
 565 363 565 363 543 387 c 128,-1,75
 521 411 521 411 521 445 c 0,76,77
 521 452 521 452 521.5 457.5 c 128,-1,78
 522 463 522 463 523 468 c 1,79,-1
 406 468 l 1,80,-1
 406 203 l 1,81,-1
 514 203 l 2,82,83
 647 203 647 203 647 115 c 0,84,85
 647 68 647 68 609 34 c 128,-1,86
 571 0 571 0 500 0 c 2,87,-1
 403 0 l 1,88,89
 356 9 356 9 332 33 c 128,-1,90
 308 57 308 57 308 103 c 2,91,-1
 308 221 l 1,92,-1
 189 221 l 1,93,94
 190 216 190 216 190.5 210.5 c 128,-1,95
 191 205 191 205 191 198 c 0,96,97
 191 164 191 164 169.5 140 c 128,-1,98
 148 116 148 116 104 116 c 0,0,1
471 35 m 0,99,100
 553 35 553 35 553 112 c 0,101,102
 553 141 553 141 535.5 154 c 128,-1,103
 518 167 518 167 483 167 c 2,104,-1
 406 167 l 1,105,-1
 406 110 l 2,106,107
 406 68 406 68 423 51.5 c 128,-1,108
 440 35 440 35 471 35 c 0,99,100
EndSplineSet
EndChar

StartChar: uni2DB8
Encoding: 11704 11704 33
Width: 1269
GlyphClass: 2
Flags: W
AnchorPoint: "+BBEENQQ3BEsEPARPBD0EPQQ+BDUA--0" 624 720 basechar 0
LayerCount: 2
Fore
SplineSet
297 0 m 1,0,1
 250 10 250 10 231 36 c 128,-1,2
 212 62 212 62 212 113 c 2,3,-1
 212 364 l 2,4,5
 212 388 212 388 214 411 c 1,6,-1
 148 411 l 1,7,8
 149 406 149 406 149.5 400.5 c 128,-1,9
 150 395 150 395 150 388 c 0,10,11
 150 354 150 354 128.5 330 c 128,-1,12
 107 306 107 306 63 306 c 0,13,14
 27 306 27 306 5 322 c 1,15,16
 39 350 39 350 39 405 c 0,17,18
 39 423 39 423 36 438.5 c 128,-1,19
 33 454 33 454 31 461 c 1,20,-1
 222 461 l 1,21,22
 248 585 248 585 341 649.5 c 128,-1,23
 434 714 434 714 578 714 c 2,24,-1
 673 714 l 1,25,-1
 673 667 l 1,26,27
 691 684 691 684 728 702 c 128,-1,28
 765 720 765 720 825 720 c 0,29,30
 940 720 940 720 989 658.5 c 128,-1,31
 1038 597 1038 597 1038 493 c 0,32,33
 1038 423 1038 423 1037 361 c 128,-1,34
 1036 299 1036 299 1036 222 c 1,35,-1
 1124 222 l 2,36,37
 1182 222 1182 222 1213 198.5 c 128,-1,38
 1244 175 1244 175 1244 126 c 0,39,40
 1244 74 1244 74 1210 37 c 128,-1,41
 1176 0 1176 0 1115 0 c 2,42,-1
 1023 0 l 1,43,44
 976 10 976 10 957 36 c 128,-1,45
 938 62 938 62 938 113 c 0,46,47
 938 222 938 222 939 316.5 c 128,-1,48
 940 411 940 411 940 488 c 0,49,50
 940 576 940 576 906.5 621.5 c 128,-1,51
 873 667 873 667 802 667 c 0,52,53
 755 667 755 667 722.5 649 c 128,-1,54
 690 631 690 631 673 611 c 1,55,-1
 673 222 l 1,56,-1
 761 222 l 2,57,58
 819 222 819 222 850 198.5 c 128,-1,59
 881 175 881 175 881 126 c 0,60,61
 881 74 881 74 847 37 c 128,-1,62
 813 0 813 0 752 0 c 2,63,-1
 660 0 l 1,64,65
 613 10 613 10 594 36 c 128,-1,66
 575 62 575 62 575 113 c 2,67,-1
 575 664 l 1,68,69
 439 664 439 664 374.5 585 c 128,-1,70
 310 506 310 506 310 351 c 2,71,-1
 310 222 l 1,72,-1
 398 222 l 2,73,74
 456 222 456 222 487 198.5 c 128,-1,75
 518 175 518 175 518 126 c 0,76,77
 518 74 518 74 484 37 c 128,-1,78
 450 0 450 0 389 0 c 2,79,-1
 297 0 l 1,0,1
360 35 m 0,80,81
 422 35 422 35 422 116 c 0,82,83
 422 152 422 152 405.5 168 c 128,-1,84
 389 184 389 184 360 184 c 2,85,-1
 310 184 l 1,86,-1
 310 101 l 2,87,88
 310 64 310 64 324 49.5 c 128,-1,89
 338 35 338 35 360 35 c 0,80,81
723 35 m 0,90,91
 785 35 785 35 785 116 c 0,92,93
 785 152 785 152 768.5 168 c 128,-1,94
 752 184 752 184 723 184 c 2,95,-1
 673 184 l 1,96,-1
 673 101 l 2,97,98
 673 64 673 64 687 49.5 c 128,-1,99
 701 35 701 35 723 35 c 0,90,91
1086 35 m 0,100,101
 1148 35 1148 35 1148 116 c 0,102,103
 1148 152 1148 152 1131.5 168 c 128,-1,104
 1115 184 1115 184 1086 184 c 2,105,-1
 1036 184 l 1,106,-1
 1036 101 l 2,107,108
 1036 64 1036 64 1050 49.5 c 128,-1,109
 1064 35 1064 35 1086 35 c 0,100,101
EndSplineSet
EndChar

StartChar: uni2DBB
Encoding: 11707 11707 34
Width: 1266
GlyphClass: 2
Flags: W
AnchorPoint: "+BBEENQQ3BEsEPARPBD0EPQQ+BDUA--0" 623 720 basechar 0
LayerCount: 2
Fore
SplineSet
63 232 m 0,0,1
 27 232 27 232 5 248 c 1,2,3
 39 276 39 276 39 331 c 0,4,5
 39 349 39 349 36 364.5 c 128,-1,6
 33 380 33 380 31 387 c 1,7,-1
 241 387 l 1,8,-1
 241 450 l 2,9,10
 241 534 241 534 281 593 c 128,-1,11
 321 652 321 652 393.5 683 c 128,-1,12
 466 714 466 714 561 714 c 2,13,-1
 687 714 l 1,14,-1
 687 667 l 1,15,16
 705 684 705 684 741 702 c 128,-1,17
 777 720 777 720 830 720 c 0,18,19
 939 720 939 720 987 658.5 c 128,-1,20
 1035 597 1035 597 1035 493 c 0,21,22
 1035 423 1035 423 1034 361 c 128,-1,23
 1033 299 1033 299 1033 222 c 1,24,-1
 1121 222 l 2,25,26
 1179 222 1179 222 1210 198.5 c 128,-1,27
 1241 175 1241 175 1241 126 c 0,28,29
 1241 74 1241 74 1207 37 c 128,-1,30
 1173 0 1173 0 1112 0 c 2,31,-1
 1020 0 l 1,32,33
 973 10 973 10 954 36 c 128,-1,34
 935 62 935 62 935 113 c 0,35,36
 935 222 935 222 936 316.5 c 128,-1,37
 937 411 937 411 937 488 c 0,38,39
 937 576 937 576 904.5 621.5 c 128,-1,40
 872 667 872 667 807 667 c 0,41,42
 767 667 767 667 735.5 649 c 128,-1,43
 704 631 704 631 687 611 c 1,44,-1
 687 457 l 1,45,-1
 775 457 l 2,46,47
 833 457 833 457 864 433.5 c 128,-1,48
 895 410 895 410 895 361 c 0,49,50
 895 309 895 309 861 272 c 128,-1,51
 827 235 827 235 766 235 c 2,52,-1
 674 235 l 1,53,54
 627 245 627 245 608 271 c 128,-1,55
 589 297 589 297 589 348 c 2,56,-1
 589 664 l 1,57,58
 457 664 457 664 398 613 c 128,-1,59
 339 562 339 562 339 457 c 1,60,-1
 427 457 l 2,61,62
 485 457 485 457 516 433.5 c 128,-1,63
 547 410 547 410 547 361 c 0,64,65
 547 309 547 309 513 272 c 128,-1,66
 479 235 479 235 418 235 c 2,67,-1
 326 235 l 1,68,69
 281 244 281 244 262 268 c 128,-1,70
 243 292 243 292 241 337 c 1,71,-1
 148 337 l 1,72,73
 149 332 149 332 149.5 326.5 c 128,-1,74
 150 321 150 321 150 314 c 0,75,76
 150 280 150 280 128.5 256 c 128,-1,77
 107 232 107 232 63 232 c 0,0,1
389 270 m 0,78,79
 451 270 451 270 451 351 c 0,80,81
 451 387 451 387 434.5 403 c 128,-1,82
 418 419 418 419 389 419 c 2,83,-1
 339 419 l 1,84,-1
 339 336 l 2,85,86
 339 299 339 299 353 284.5 c 128,-1,87
 367 270 367 270 389 270 c 0,78,79
737 270 m 0,88,89
 799 270 799 270 799 351 c 0,90,91
 799 387 799 387 782.5 403 c 128,-1,92
 766 419 766 419 737 419 c 2,93,-1
 687 419 l 1,94,-1
 687 336 l 2,95,96
 687 299 687 299 701 284.5 c 128,-1,97
 715 270 715 270 737 270 c 0,88,89
1083 35 m 0,98,99
 1145 35 1145 35 1145 116 c 0,100,101
 1145 152 1145 152 1128.5 168 c 128,-1,102
 1112 184 1112 184 1083 184 c 2,103,-1
 1033 184 l 1,104,-1
 1033 101 l 2,105,106
 1033 64 1033 64 1047 49.5 c 128,-1,107
 1061 35 1061 35 1083 35 c 0,98,99
EndSplineSet
EndChar

StartChar: uni2DBD
Encoding: 11709 11709 35
Width: 1234
GlyphClass: 2
Flags: W
AnchorPoint: "+BBEENQQ3BEsEPARPBD0EPQQ+BDUA--0" 612 720 basechar 0
LayerCount: 2
Fore
SplineSet
63 240 m 0,0,1
 27 240 27 240 5 256 c 1,2,3
 39 284 39 284 39 339 c 0,4,5
 39 357 39 357 36 372.5 c 128,-1,6
 33 388 33 388 31 395 c 1,7,-1
 197 395 l 1,8,-1
 197 463 l 2,9,10
 197 542 197 542 239 598 c 128,-1,11
 281 654 281 654 357.5 684 c 128,-1,12
 434 714 434 714 538 714 c 2,13,-1
 653 714 l 1,14,-1
 653 667 l 1,15,16
 671 684 671 684 709.5 702 c 128,-1,17
 748 720 748 720 816 720 c 0,18,19
 921 720 921 720 966 655.5 c 128,-1,20
 1011 591 1011 591 1011 457 c 1,21,-1
 1099 457 l 2,22,23
 1157 457 1157 457 1188 433.5 c 128,-1,24
 1219 410 1219 410 1219 361 c 0,25,26
 1219 309 1219 309 1185 272 c 128,-1,27
 1151 235 1151 235 1090 235 c 2,28,-1
 998 235 l 1,29,30
 951 245 951 245 932 271 c 128,-1,31
 913 297 913 297 913 348 c 2,32,-1
 913 477 l 2,33,34
 913 565 913 565 885.5 616 c 128,-1,35
 858 667 858 667 793 667 c 0,36,37
 738 667 738 667 704 649 c 128,-1,38
 670 631 670 631 653 611 c 1,39,-1
 653 407 l 1,40,-1
 658 407 l 2,41,42
 702 407 702 407 719.5 388.5 c 128,-1,43
 737 370 737 370 737 340 c 2,44,-1
 737 222 l 1,45,-1
 825 222 l 2,46,47
 883 222 883 222 914 198.5 c 128,-1,48
 945 175 945 175 945 126 c 0,49,50
 945 74 945 74 911 37 c 128,-1,51
 877 0 877 0 816 0 c 2,52,-1
 724 0 l 2,53,54
 676 0 676 0 657.5 31 c 128,-1,55
 639 62 639 62 639 113 c 2,56,-1
 639 307 l 2,57,58
 639 336 639 336 625 347 c 128,-1,59
 611 358 611 358 581 358 c 2,60,-1
 555 358 l 1,61,-1
 555 664 l 1,62,63
 413 664 413 664 354 614 c 128,-1,64
 295 564 295 564 295 457 c 1,65,-1
 383 457 l 2,66,67
 441 457 441 457 472 433.5 c 128,-1,68
 503 410 503 410 503 361 c 0,69,70
 503 309 503 309 469 272 c 128,-1,71
 435 235 435 235 374 235 c 2,72,-1
 282 235 l 1,73,74
 235 245 235 245 216 270.5 c 128,-1,75
 197 296 197 296 197 345 c 1,76,-1
 148 345 l 1,77,78
 149 340 149 340 149.5 334.5 c 128,-1,79
 150 329 150 329 150 322 c 0,80,81
 150 288 150 288 128.5 264 c 128,-1,82
 107 240 107 240 63 240 c 0,0,1
345 270 m 0,83,84
 407 270 407 270 407 351 c 0,85,86
 407 387 407 387 390.5 403 c 128,-1,87
 374 419 374 419 345 419 c 2,88,-1
 295 419 l 1,89,-1
 295 336 l 2,90,91
 295 299 295 299 309 284.5 c 128,-1,92
 323 270 323 270 345 270 c 0,83,84
1061 270 m 0,93,94
 1123 270 1123 270 1123 351 c 0,95,96
 1123 387 1123 387 1106.5 403 c 128,-1,97
 1090 419 1090 419 1061 419 c 2,98,-1
 1011 419 l 1,99,-1
 1011 336 l 2,100,101
 1011 299 1011 299 1025 284.5 c 128,-1,102
 1039 270 1039 270 1061 270 c 0,93,94
787 35 m 0,103,104
 849 35 849 35 849 116 c 0,105,106
 849 152 849 152 832.5 168 c 128,-1,107
 816 184 816 184 787 184 c 2,108,-1
 737 184 l 1,109,-1
 737 101 l 2,110,111
 737 64 737 64 751 49.5 c 128,-1,112
 765 35 765 35 787 35 c 0,103,104
EndSplineSet
EndChar

StartChar: uni2DBC
Encoding: 11708 11708 36
Width: 1478
GlyphClass: 2
Flags: W
AnchorPoint: "+BBEENQQ3BEsEPARPBD0EPQQ+BDUA--0" 734 720 basechar 0
LayerCount: 2
Fore
SplineSet
63 306 m 0,0,1
 27 306 27 306 5 322 c 1,2,3
 39 350 39 350 39 405 c 0,4,5
 39 423 39 423 36 438.5 c 128,-1,6
 33 454 33 454 31 461 c 1,7,-1
 241 461 l 1,8,9
 267 585 267 585 360 649.5 c 128,-1,10
 453 714 453 714 597 714 c 2,11,-1
 692 714 l 1,12,-1
 692 667 l 1,13,14
 710 684 710 684 747 702 c 128,-1,15
 784 720 784 720 844 720 c 0,16,17
 954 720 954 720 1003.5 663.5 c 128,-1,18
 1053 607 1053 607 1057 511 c 1,19,-1
 1193 511 l 1,20,21
 1227 538 1227 538 1290 538 c 2,22,-1
 1363 538 l 2,23,24
 1463 538 1463 538 1463 451 c 0,25,26
 1463 407 1463 407 1433 373.5 c 128,-1,27
 1403 340 1403 340 1354 340 c 2,28,-1
 1243 340 l 2,29,30
 1204 340 1204 340 1180.5 364.5 c 128,-1,31
 1157 389 1157 389 1157 427 c 0,32,33
 1157 446 1157 446 1161 461 c 1,34,-1
 1057 461 l 1,35,36
 1057 401 1057 401 1056 345.5 c 128,-1,37
 1055 290 1055 290 1055 222 c 1,38,-1
 1143 222 l 2,39,40
 1201 222 1201 222 1232 198.5 c 128,-1,41
 1263 175 1263 175 1263 126 c 0,42,43
 1263 74 1263 74 1229 37 c 128,-1,44
 1195 0 1195 0 1134 0 c 2,45,-1
 1042 0 l 1,46,47
 995 10 995 10 976 36 c 128,-1,48
 957 62 957 62 957 113 c 0,49,50
 957 222 957 222 958 316.5 c 128,-1,51
 959 411 959 411 959 488 c 0,52,53
 959 576 959 576 925.5 621.5 c 128,-1,54
 892 667 892 667 821 667 c 0,55,56
 774 667 774 667 741.5 649 c 128,-1,57
 709 631 709 631 692 611 c 1,58,-1
 692 222 l 1,59,-1
 780 222 l 2,60,61
 838 222 838 222 869 198.5 c 128,-1,62
 900 175 900 175 900 126 c 0,63,64
 900 74 900 74 866 37 c 128,-1,65
 832 0 832 0 771 0 c 2,66,-1
 679 0 l 1,67,68
 632 10 632 10 613 36 c 128,-1,69
 594 62 594 62 594 113 c 2,70,-1
 594 664 l 1,71,72
 458 664 458 664 393.5 585 c 128,-1,73
 329 506 329 506 329 351 c 2,74,-1
 329 222 l 1,75,-1
 417 222 l 2,76,77
 475 222 475 222 506 198.5 c 128,-1,78
 537 175 537 175 537 126 c 0,79,80
 537 74 537 74 503 37 c 128,-1,81
 469 0 469 0 408 0 c 2,82,-1
 316 0 l 1,83,84
 269 10 269 10 250 36 c 128,-1,85
 231 62 231 62 231 113 c 2,86,-1
 231 364 l 2,87,88
 231 388 231 388 233 411 c 1,89,-1
 148 411 l 1,90,91
 149 406 149 406 149.5 400.5 c 128,-1,92
 150 395 150 395 150 388 c 0,93,94
 150 354 150 354 128.5 330 c 128,-1,95
 107 306 107 306 63 306 c 0,0,1
1301 377 m 0,96,97
 1339 377 1339 377 1359.5 398 c 128,-1,98
 1380 419 1380 419 1380 449 c 0,99,100
 1380 473 1380 473 1364 487 c 128,-1,101
 1348 501 1348 501 1317 501 c 0,102,103
 1281 501 1281 501 1260.5 482.5 c 128,-1,104
 1240 464 1240 464 1240 430 c 0,105,106
 1240 407 1240 407 1256 392 c 128,-1,107
 1272 377 1272 377 1301 377 c 0,96,97
379 35 m 0,108,109
 441 35 441 35 441 116 c 0,110,111
 441 152 441 152 424.5 168 c 128,-1,112
 408 184 408 184 379 184 c 2,113,-1
 329 184 l 1,114,-1
 329 101 l 2,115,116
 329 64 329 64 343 49.5 c 128,-1,117
 357 35 357 35 379 35 c 0,108,109
742 35 m 0,118,119
 804 35 804 35 804 116 c 0,120,121
 804 152 804 152 787.5 168 c 128,-1,122
 771 184 771 184 742 184 c 2,123,-1
 692 184 l 1,124,-1
 692 101 l 2,125,126
 692 64 692 64 706 49.5 c 128,-1,127
 720 35 720 35 742 35 c 0,118,119
1105 35 m 0,128,129
 1167 35 1167 35 1167 116 c 0,130,131
 1167 152 1167 152 1150.5 168 c 128,-1,132
 1134 184 1134 184 1105 184 c 2,133,-1
 1055 184 l 1,134,-1
 1055 101 l 2,135,136
 1055 64 1055 64 1069 49.5 c 128,-1,137
 1083 35 1083 35 1105 35 c 0,128,129
EndSplineSet
EndChar

StartChar: uniAB20
Encoding: 43808 43808 37
Width: 1093
GlyphClass: 2
Flags: W
AnchorPoint: "+BBEENQQ3BEsEPARPBD0EPQQ+BDUA--0" 567 825 basechar 0
LayerCount: 2
Fore
SplineSet
240 641 m 4,0,1
 223 641 223 641 209 646 c 132,-1,2
 195 651 195 651 187 658 c 5,3,4
 201 669 201 669 210 686.5 c 132,-1,5
 219 704 219 704 219 732 c 4,6,7
 219 758 219 758 211.5 775.5 c 132,-1,8
 204 793 204 793 187 809 c 5,9,10
 199 818 199 818 213.5 821.5 c 132,-1,11
 228 825 228 825 242 825 c 4,12,13
 279 825 279 825 300.5 805.5 c 132,-1,14
 322 786 322 786 326 760 c 5,15,-1
 656 760 l 5,16,17
 661 786 661 786 682 805.5 c 132,-1,18
 703 825 703 825 740 825 c 4,19,20
 760 825 760 825 773 820.5 c 132,-1,21
 786 816 786 816 794 809 c 5,22,23
 778 793 778 793 770 775.5 c 132,-1,24
 762 758 762 758 762 733 c 4,25,26
 762 686 762 686 794 658 c 5,27,28
 787 651 787 651 773 646 c 132,-1,29
 759 641 759 641 741 641 c 4,30,31
 707 641 707 641 686 659 c 132,-1,32
 665 677 665 677 656 708 c 5,33,-1
 326 708 l 5,34,35
 316 677 316 677 296 659 c 132,-1,36
 276 641 276 641 240 641 c 4,0,1
151 0 m 1,37,38
 104 10 104 10 85 36 c 128,-1,39
 66 62 66 62 66 113 c 2,40,-1
 66 231 l 2,41,42
 66 342 66 342 109.5 421.5 c 128,-1,43
 153 501 153 501 232 543.5 c 128,-1,44
 311 586 311 586 417 586 c 2,45,-1
 512 586 l 1,46,-1
 512 539 l 1,47,48
 530 556 530 556 566 574 c 128,-1,49
 602 592 602 592 655 592 c 0,50,51
 764 592 764 592 812 530.5 c 128,-1,52
 860 469 860 469 860 365 c 2,53,-1
 860 222 l 1,54,-1
 948 222 l 2,55,56
 1006 222 1006 222 1037 198.5 c 128,-1,57
 1068 175 1068 175 1068 126 c 0,58,59
 1068 74 1068 74 1034 37 c 128,-1,60
 1000 0 1000 0 939 0 c 2,61,-1
 847 0 l 1,62,63
 800 10 800 10 781 36 c 128,-1,64
 762 62 762 62 762 113 c 2,65,-1
 762 360 l 2,66,67
 762 448 762 448 729.5 493.5 c 128,-1,68
 697 539 697 539 632 539 c 0,69,70
 592 539 592 539 560.5 521 c 128,-1,71
 529 503 529 503 512 483 c 1,72,-1
 512 222 l 1,73,-1
 600 222 l 2,74,75
 658 222 658 222 689 198.5 c 128,-1,76
 720 175 720 175 720 126 c 0,77,78
 720 74 720 74 686 37 c 128,-1,79
 652 0 652 0 591 0 c 2,80,-1
 499 0 l 1,81,82
 452 10 452 10 433 36 c 128,-1,83
 414 62 414 62 414 113 c 2,84,-1
 414 536 l 1,85,86
 284 536 284 536 224 456.5 c 128,-1,87
 164 377 164 377 164 222 c 1,88,-1
 252 222 l 2,89,90
 310 222 310 222 341 198.5 c 128,-1,91
 372 175 372 175 372 126 c 0,92,93
 372 74 372 74 338 37 c 128,-1,94
 304 0 304 0 243 0 c 2,95,-1
 151 0 l 1,37,38
214 35 m 0,96,97
 276 35 276 35 276 116 c 0,98,99
 276 152 276 152 259.5 168 c 128,-1,100
 243 184 243 184 214 184 c 2,101,-1
 164 184 l 1,102,-1
 164 101 l 2,103,104
 164 64 164 64 178 49.5 c 128,-1,105
 192 35 192 35 214 35 c 0,96,97
562 35 m 0,106,107
 624 35 624 35 624 116 c 0,108,109
 624 152 624 152 607.5 168 c 128,-1,110
 591 184 591 184 562 184 c 2,111,-1
 512 184 l 1,112,-1
 512 101 l 2,113,114
 512 64 512 64 526 49.5 c 128,-1,115
 540 35 540 35 562 35 c 0,106,107
910 35 m 0,116,117
 972 35 972 35 972 116 c 0,118,119
 972 152 972 152 955.5 168 c 128,-1,120
 939 184 939 184 910 184 c 2,121,-1
 860 184 l 1,122,-1
 860 101 l 2,123,124
 860 64 860 64 874 49.5 c 128,-1,125
 888 35 888 35 910 35 c 0,116,117
EndSplineSet
EndChar

StartChar: uniAB23
Encoding: 43811 43811 38
Width: 1091
GlyphClass: 2
Flags: W
AnchorPoint: "+BBEENQQ3BEsEPARPBD0EPQQ+BDUA--0" 566 825 basechar 0
LayerCount: 2
Fore
SplineSet
267 641 m 0,0,1
 250 641 250 641 236 646 c 128,-1,2
 222 651 222 651 214 658 c 1,3,4
 228 669 228 669 237 686.5 c 128,-1,5
 246 704 246 704 246 732 c 0,6,7
 246 758 246 758 238.5 775.5 c 128,-1,8
 231 793 231 793 214 809 c 1,9,10
 226 818 226 818 240.5 821.5 c 128,-1,11
 255 825 255 825 269 825 c 0,12,13
 306 825 306 825 327.5 805.5 c 128,-1,14
 349 786 349 786 353 760 c 1,15,-1
 683 760 l 1,16,17
 688 786 688 786 709 805.5 c 128,-1,18
 730 825 730 825 767 825 c 0,19,20
 787 825 787 825 800 820.5 c 128,-1,21
 813 816 813 816 821 809 c 1,22,23
 805 793 805 793 797 775.5 c 128,-1,24
 789 758 789 758 789 733 c 0,25,26
 789 686 789 686 821 658 c 1,27,28
 814 651 814 651 800 646 c 128,-1,29
 786 641 786 641 768 641 c 0,30,31
 734 641 734 641 713 659 c 128,-1,32
 692 677 692 677 683 708 c 1,33,-1
 353 708 l 1,34,35
 343 677 343 677 323 659 c 128,-1,36
 303 641 303 641 267 641 c 0,0,1
845 0 m 1,37,38
 798 10 798 10 779 36 c 128,-1,39
 760 62 760 62 760 113 c 0,40,41
 760 141 760 141 760.5 178 c 128,-1,42
 761 215 761 215 761 252.5 c 128,-1,43
 761 290 761 290 761.5 321 c 128,-1,44
 762 352 762 352 762 368 c 0,45,46
 762 450 762 450 729.5 494.5 c 128,-1,47
 697 539 697 539 632 539 c 0,48,49
 592 539 592 539 560.5 521 c 128,-1,50
 529 503 529 503 512 483 c 1,51,-1
 512 337 l 1,52,-1
 600 337 l 2,53,54
 658 337 658 337 689 313.5 c 128,-1,55
 720 290 720 290 720 241 c 0,56,57
 720 189 720 189 686 152 c 128,-1,58
 652 115 652 115 591 115 c 2,59,-1
 499 115 l 1,60,61
 452 125 452 125 433 151 c 128,-1,62
 414 177 414 177 414 228 c 2,63,-1
 414 536 l 1,64,65
 282 536 282 536 223 486 c 128,-1,66
 164 436 164 436 164 337 c 1,67,-1
 252 337 l 2,68,69
 310 337 310 337 341 313.5 c 128,-1,70
 372 290 372 290 372 241 c 0,71,72
 372 189 372 189 338 152 c 128,-1,73
 304 115 304 115 243 115 c 2,74,-1
 151 115 l 1,75,76
 104 125 104 125 85 151 c 128,-1,77
 66 177 66 177 66 228 c 2,78,-1
 66 330 l 2,79,80
 66 410 66 410 106 467 c 128,-1,81
 146 524 146 524 218.5 555 c 128,-1,82
 291 586 291 586 386 586 c 2,83,-1
 512 586 l 1,84,-1
 512 539 l 1,85,86
 530 556 530 556 566 574 c 128,-1,87
 602 592 602 592 655 592 c 0,88,89
 728 592 728 592 773 564.5 c 128,-1,90
 818 537 818 537 839 487.5 c 128,-1,91
 860 438 860 438 860 373 c 0,92,93
 860 356 860 356 859.5 326.5 c 128,-1,94
 859 297 859 297 858.5 267.5 c 128,-1,95
 858 238 858 238 858 222 c 1,96,-1
 946 222 l 2,97,98
 1004 222 1004 222 1035 198.5 c 128,-1,99
 1066 175 1066 175 1066 126 c 0,100,101
 1066 74 1066 74 1032 37 c 128,-1,102
 998 0 998 0 937 0 c 2,103,-1
 845 0 l 1,37,38
214 150 m 0,104,105
 276 150 276 150 276 231 c 0,106,107
 276 267 276 267 259.5 283 c 128,-1,108
 243 299 243 299 214 299 c 2,109,-1
 164 299 l 1,110,-1
 164 216 l 2,111,112
 164 179 164 179 178 164.5 c 128,-1,113
 192 150 192 150 214 150 c 0,104,105
562 150 m 0,114,115
 624 150 624 150 624 231 c 0,116,117
 624 267 624 267 607.5 283 c 128,-1,118
 591 299 591 299 562 299 c 2,119,-1
 512 299 l 1,120,-1
 512 216 l 2,121,122
 512 179 512 179 526 164.5 c 128,-1,123
 540 150 540 150 562 150 c 0,114,115
908 35 m 0,124,125
 970 35 970 35 970 116 c 0,126,127
 970 152 970 152 953.5 168 c 128,-1,128
 937 184 937 184 908 184 c 2,129,-1
 858 184 l 1,130,-1
 858 101 l 2,131,132
 858 64 858 64 872 49.5 c 128,-1,133
 886 35 886 35 908 35 c 0,124,125
EndSplineSet
EndChar

StartChar: uniAB25
Encoding: 43813 43813 39
Width: 1123
GlyphClass: 2
Flags: W
AnchorPoint: "+BBEENQQ3BEsEPARPBD0EPQQ+BDUA--0" 587 825 basechar 0
LayerCount: 2
Fore
SplineSet
284 641 m 0,0,1
 267 641 267 641 253 646 c 128,-1,2
 239 651 239 651 231 658 c 1,3,4
 245 669 245 669 254 686.5 c 128,-1,5
 263 704 263 704 263 732 c 0,6,7
 263 758 263 758 255.5 775.5 c 128,-1,8
 248 793 248 793 231 809 c 1,9,10
 243 818 243 818 257.5 821.5 c 128,-1,11
 272 825 272 825 286 825 c 0,12,13
 323 825 323 825 344.5 805.5 c 128,-1,14
 366 786 366 786 370 760 c 1,15,-1
 700 760 l 1,16,17
 705 786 705 786 726 805.5 c 128,-1,18
 747 825 747 825 784 825 c 0,19,20
 804 825 804 825 817 820.5 c 128,-1,21
 830 816 830 816 838 809 c 1,22,23
 822 793 822 793 814 775.5 c 128,-1,24
 806 758 806 758 806 733 c 0,25,26
 806 686 806 686 838 658 c 1,27,28
 831 651 831 651 817 646 c 128,-1,29
 803 641 803 641 785 641 c 0,30,31
 751 641 751 641 730 659 c 128,-1,32
 709 677 709 677 700 708 c 1,33,-1
 370 708 l 1,34,35
 360 677 360 677 340 659 c 128,-1,36
 320 641 320 641 284 641 c 0,0,1
583 0 m 2,37,38
 535 0 535 0 516.5 31 c 128,-1,39
 498 62 498 62 498 113 c 2,40,-1
 498 287 l 2,41,42
 498 316 498 316 484 327 c 128,-1,43
 470 338 470 338 440 338 c 2,44,-1
 414 338 l 1,45,-1
 414 547 l 1,46,47
 318 547 318 547 263.5 527 c 128,-1,48
 209 507 209 507 186.5 474 c 128,-1,49
 164 441 164 441 164 403 c 1,50,-1
 252 403 l 2,51,52
 310 403 310 403 341 379.5 c 128,-1,53
 372 356 372 356 372 307 c 0,54,55
 372 255 372 255 338 218 c 128,-1,56
 304 181 304 181 243 181 c 2,57,-1
 151 181 l 1,58,59
 104 191 104 191 85 217 c 128,-1,60
 66 243 66 243 66 294 c 2,61,-1
 66 382 l 2,62,63
 66 446 66 446 106 494 c 128,-1,64
 146 542 146 542 220.5 569.5 c 128,-1,65
 295 597 295 597 397 597 c 2,66,-1
 512 597 l 1,67,-1
 512 550 l 1,68,69
 530 567 530 567 568.5 585 c 128,-1,70
 607 603 607 603 675 603 c 0,71,72
 756 603 756 603 805.5 574 c 128,-1,73
 855 545 855 545 877.5 499.5 c 128,-1,74
 900 454 900 454 900 403 c 1,75,-1
 988 403 l 2,76,77
 1046 403 1046 403 1077 379.5 c 128,-1,78
 1108 356 1108 356 1108 307 c 0,79,80
 1108 255 1108 255 1074 218 c 128,-1,81
 1040 181 1040 181 979 181 c 2,82,-1
 887 181 l 1,83,84
 840 191 840 191 821 217 c 128,-1,85
 802 243 802 243 802 294 c 2,86,-1
 802 396 l 2,87,88
 802 430 802 430 787 465.5 c 128,-1,89
 772 501 772 501 739 525.5 c 128,-1,90
 706 550 706 550 652 550 c 0,91,92
 597 550 597 550 563 532 c 128,-1,93
 529 514 529 514 512 494 c 1,94,-1
 512 387 l 1,95,-1
 517 387 l 2,96,97
 561 387 561 387 578.5 368.5 c 128,-1,98
 596 350 596 350 596 320 c 2,99,-1
 596 222 l 1,100,-1
 684 222 l 2,101,102
 742 222 742 222 773 198.5 c 128,-1,103
 804 175 804 175 804 126 c 0,104,105
 804 74 804 74 770 37 c 128,-1,106
 736 0 736 0 675 0 c 2,107,-1
 583 0 l 2,37,38
214 216 m 0,108,109
 276 216 276 216 276 297 c 0,110,111
 276 333 276 333 259.5 349 c 128,-1,112
 243 365 243 365 214 365 c 2,113,-1
 164 365 l 1,114,-1
 164 282 l 2,115,116
 164 245 164 245 178 230.5 c 128,-1,117
 192 216 192 216 214 216 c 0,108,109
950 216 m 0,118,119
 1012 216 1012 216 1012 297 c 0,120,121
 1012 333 1012 333 995.5 349 c 128,-1,122
 979 365 979 365 950 365 c 2,123,-1
 900 365 l 1,124,-1
 900 282 l 2,125,126
 900 245 900 245 914 230.5 c 128,-1,127
 928 216 928 216 950 216 c 0,118,119
646 35 m 0,128,129
 708 35 708 35 708 116 c 0,130,131
 708 152 708 152 691.5 168 c 128,-1,132
 675 184 675 184 646 184 c 2,133,-1
 596 184 l 1,134,-1
 596 101 l 2,135,136
 596 64 596 64 610 49.5 c 128,-1,137
 624 35 624 35 646 35 c 0,128,129
EndSplineSet
EndChar

StartChar: uniAB24
Encoding: 43812 43812 40
Width: 1325
GlyphClass: 2
Flags: W
AnchorPoint: "+BBEENQQ3BEsEPARPBD0EPQQ+BDUA--0" 688 825 basechar 0
LayerCount: 2
Fore
SplineSet
240 641 m 0,0,1
 223 641 223 641 209 646 c 128,-1,2
 195 651 195 651 187 658 c 1,3,4
 201 669 201 669 210 686.5 c 128,-1,5
 219 704 219 704 219 732 c 0,6,7
 219 758 219 758 211.5 775.5 c 128,-1,8
 204 793 204 793 187 809 c 1,9,10
 199 818 199 818 213.5 821.5 c 128,-1,11
 228 825 228 825 242 825 c 0,12,13
 279 825 279 825 300.5 805.5 c 128,-1,14
 322 786 322 786 326 760 c 1,15,-1
 656 760 l 1,16,17
 661 786 661 786 682 805.5 c 128,-1,18
 703 825 703 825 740 825 c 0,19,20
 760 825 760 825 773 820.5 c 128,-1,21
 786 816 786 816 794 809 c 1,22,23
 778 793 778 793 770 775.5 c 128,-1,24
 762 758 762 758 762 733 c 0,25,26
 762 686 762 686 794 658 c 1,27,28
 787 651 787 651 773 646 c 128,-1,29
 759 641 759 641 741 641 c 0,30,31
 707 641 707 641 686 659 c 128,-1,32
 665 677 665 677 656 708 c 1,33,-1
 326 708 l 1,34,35
 316 677 316 677 296 659 c 128,-1,36
 276 641 276 641 240 641 c 0,0,1
151 0 m 1,37,38
 104 10 104 10 85 36 c 128,-1,39
 66 62 66 62 66 113 c 2,40,-1
 66 231 l 2,41,42
 66 342 66 342 109.5 421.5 c 128,-1,43
 153 501 153 501 232 543.5 c 128,-1,44
 311 586 311 586 417 586 c 2,45,-1
 512 586 l 1,46,-1
 512 539 l 1,47,48
 530 556 530 556 566 574 c 128,-1,49
 602 592 602 592 655 592 c 0,50,51
 725 592 725 592 769.5 565.5 c 128,-1,52
 814 539 814 539 836 492 c 1,53,-1
 1040 492 l 1,54,55
 1074 519 1074 519 1137 519 c 2,56,-1
 1210 519 l 2,57,58
 1310 519 1310 519 1310 432 c 0,59,60
 1310 388 1310 388 1280 354.5 c 128,-1,61
 1250 321 1250 321 1201 321 c 2,62,-1
 1090 321 l 2,63,64
 1051 321 1051 321 1027.5 345.5 c 128,-1,65
 1004 370 1004 370 1004 408 c 0,66,67
 1004 427 1004 427 1008 442 c 1,68,-1
 853 442 l 1,69,70
 860 407 860 407 860 365 c 2,71,-1
 860 222 l 1,72,-1
 948 222 l 2,73,74
 1006 222 1006 222 1037 198.5 c 128,-1,75
 1068 175 1068 175 1068 126 c 0,76,77
 1068 74 1068 74 1034 37 c 128,-1,78
 1000 0 1000 0 939 0 c 2,79,-1
 847 0 l 1,80,81
 800 10 800 10 781 36 c 128,-1,82
 762 62 762 62 762 113 c 2,83,-1
 762 360 l 2,84,85
 762 448 762 448 729.5 493.5 c 128,-1,86
 697 539 697 539 632 539 c 0,87,88
 592 539 592 539 560.5 521 c 128,-1,89
 529 503 529 503 512 483 c 1,90,-1
 512 222 l 1,91,-1
 600 222 l 2,92,93
 658 222 658 222 689 198.5 c 128,-1,94
 720 175 720 175 720 126 c 0,95,96
 720 74 720 74 686 37 c 128,-1,97
 652 0 652 0 591 0 c 2,98,-1
 499 0 l 1,99,100
 452 10 452 10 433 36 c 128,-1,101
 414 62 414 62 414 113 c 2,102,-1
 414 536 l 1,103,104
 284 536 284 536 224 456.5 c 128,-1,105
 164 377 164 377 164 222 c 1,106,-1
 252 222 l 2,107,108
 310 222 310 222 341 198.5 c 128,-1,109
 372 175 372 175 372 126 c 0,110,111
 372 74 372 74 338 37 c 128,-1,112
 304 0 304 0 243 0 c 2,113,-1
 151 0 l 1,37,38
1148 358 m 0,114,115
 1186 358 1186 358 1206.5 379 c 128,-1,116
 1227 400 1227 400 1227 430 c 0,117,118
 1227 454 1227 454 1211 468 c 128,-1,119
 1195 482 1195 482 1164 482 c 0,120,121
 1128 482 1128 482 1107.5 463.5 c 128,-1,122
 1087 445 1087 445 1087 411 c 0,123,124
 1087 388 1087 388 1103 373 c 128,-1,125
 1119 358 1119 358 1148 358 c 0,114,115
214 35 m 0,126,127
 276 35 276 35 276 116 c 0,128,129
 276 152 276 152 259.5 168 c 128,-1,130
 243 184 243 184 214 184 c 2,131,-1
 164 184 l 1,132,-1
 164 101 l 2,133,134
 164 64 164 64 178 49.5 c 128,-1,135
 192 35 192 35 214 35 c 0,126,127
562 35 m 0,136,137
 624 35 624 35 624 116 c 0,138,139
 624 152 624 152 607.5 168 c 128,-1,140
 591 184 591 184 562 184 c 2,141,-1
 512 184 l 1,142,-1
 512 101 l 2,143,144
 512 64 512 64 526 49.5 c 128,-1,145
 540 35 540 35 562 35 c 0,136,137
910 35 m 0,146,147
 972 35 972 35 972 116 c 0,148,149
 972 152 972 152 955.5 168 c 128,-1,150
 939 184 939 184 910 184 c 2,151,-1
 860 184 l 1,152,-1
 860 101 l 2,153,154
 860 64 860 64 874 49.5 c 128,-1,155
 888 35 888 35 910 35 c 0,146,147
EndSplineSet
EndChar

StartChar: uniAB22
Encoding: 43810 43810 41
Width: 1131
GlyphClass: 2
Flags: W
AnchorPoint: "+BBEENQQ3BEsEPARPBD0EPQQ+BDUA--0" 585 825 basechar 0
LayerCount: 2
Fore
SplineSet
257 641 m 0,0,1
 240 641 240 641 226 646 c 128,-1,2
 212 651 212 651 204 658 c 1,3,4
 218 669 218 669 227 686.5 c 128,-1,5
 236 704 236 704 236 732 c 0,6,7
 236 758 236 758 228.5 775.5 c 128,-1,8
 221 793 221 793 204 809 c 1,9,10
 216 818 216 818 230.5 821.5 c 128,-1,11
 245 825 245 825 259 825 c 0,12,13
 296 825 296 825 317.5 805.5 c 128,-1,14
 339 786 339 786 343 760 c 1,15,-1
 673 760 l 1,16,17
 678 786 678 786 699 805.5 c 128,-1,18
 720 825 720 825 757 825 c 0,19,20
 777 825 777 825 790 820.5 c 128,-1,21
 803 816 803 816 811 809 c 1,22,23
 795 793 795 793 787 775.5 c 128,-1,24
 779 758 779 758 779 733 c 0,25,26
 779 686 779 686 811 658 c 1,27,28
 804 651 804 651 790 646 c 128,-1,29
 776 641 776 641 758 641 c 0,30,31
 724 641 724 641 703 659 c 128,-1,32
 682 677 682 677 673 708 c 1,33,-1
 343 708 l 1,34,35
 333 677 333 677 313 659 c 128,-1,36
 293 641 293 641 257 641 c 0,0,1
151 0 m 1,37,38
 104 10 104 10 85 36 c 128,-1,39
 66 62 66 62 66 113 c 2,40,-1
 66 244 l 2,41,42
 66 354 66 354 109.5 430 c 128,-1,43
 153 506 153 506 232 546 c 128,-1,44
 311 586 311 586 417 586 c 2,45,-1
 512 586 l 1,46,-1
 512 539 l 1,47,48
 530 556 530 556 566 574 c 128,-1,49
 602 592 602 592 655 592 c 0,50,51
 764 592 764 592 813 530.5 c 128,-1,52
 862 469 862 469 862 365 c 0,53,54
 862 331 862 331 861.5 285 c 128,-1,55
 861 239 861 239 860.5 195 c 128,-1,56
 860 151 860 151 860 123 c 0,57,58
 860 79 860 79 874 64.5 c 128,-1,59
 888 50 888 50 919 50 c 2,60,-1
 1090 50 l 1,61,62
 1088 43 1088 43 1085 27.5 c 128,-1,63
 1082 12 1082 12 1082 -6 c 0,64,65
 1082 -61 1082 -61 1116 -89 c 1,66,67
 1094 -105 1094 -105 1058 -105 c 0,68,69
 1015 -105 1015 -105 993 -81 c 128,-1,70
 971 -57 971 -57 971 -23 c 0,71,72
 971 -16 971 -16 971.5 -10.5 c 128,-1,73
 972 -5 972 -5 973 0 c 1,74,-1
 786 0 l 1,75,76
 760 27 760 27 760 98 c 0,77,78
 760 134 760 134 760.5 183.5 c 128,-1,79
 761 233 761 233 761.5 281 c 128,-1,80
 762 329 762 329 762 360 c 0,81,82
 762 448 762 448 729.5 493.5 c 128,-1,83
 697 539 697 539 632 539 c 0,84,85
 592 539 592 539 560.5 521 c 128,-1,86
 529 503 529 503 512 483 c 1,87,-1
 512 222 l 1,88,-1
 600 222 l 2,89,90
 658 222 658 222 689 198.5 c 128,-1,91
 720 175 720 175 720 126 c 0,92,93
 720 74 720 74 686 37 c 128,-1,94
 652 0 652 0 591 0 c 2,95,-1
 499 0 l 1,96,97
 452 10 452 10 433 36 c 128,-1,98
 414 62 414 62 414 113 c 2,99,-1
 414 536 l 1,100,101
 289 536 289 536 226.5 458 c 128,-1,102
 164 380 164 380 164 231 c 2,103,-1
 164 222 l 1,104,-1
 252 222 l 2,105,106
 310 222 310 222 341 198.5 c 128,-1,107
 372 175 372 175 372 126 c 0,108,109
 372 74 372 74 338 37 c 128,-1,110
 304 0 304 0 243 0 c 2,111,-1
 151 0 l 1,37,38
214 35 m 0,112,113
 276 35 276 35 276 116 c 0,114,115
 276 152 276 152 259.5 168 c 128,-1,116
 243 184 243 184 214 184 c 2,117,-1
 164 184 l 1,118,-1
 164 101 l 2,119,120
 164 64 164 64 178 49.5 c 128,-1,121
 192 35 192 35 214 35 c 0,112,113
562 35 m 0,122,123
 624 35 624 35 624 116 c 0,124,125
 624 152 624 152 607.5 168 c 128,-1,126
 591 184 591 184 562 184 c 2,127,-1
 512 184 l 1,128,-1
 512 101 l 2,129,130
 512 64 512 64 526 49.5 c 128,-1,131
 540 35 540 35 562 35 c 0,122,123
EndSplineSet
EndChar

StartChar: uniAB26
Encoding: 43814 43814 42
Width: 1077
GlyphClass: 2
Flags: W
AnchorPoint: "+BBEENQQ3BEsEPARPBD0EPQQ+BDUA--0" 564 825 basechar 0
LayerCount: 2
Fore
SplineSet
276 641 m 0,0,1
 259 641 259 641 245 646 c 128,-1,2
 231 651 231 651 223 658 c 1,3,4
 237 669 237 669 246 686.5 c 128,-1,5
 255 704 255 704 255 732 c 0,6,7
 255 758 255 758 247.5 775.5 c 128,-1,8
 240 793 240 793 223 809 c 1,9,10
 235 818 235 818 249.5 821.5 c 128,-1,11
 264 825 264 825 278 825 c 0,12,13
 315 825 315 825 336.5 805.5 c 128,-1,14
 358 786 358 786 362 760 c 1,15,-1
 692 760 l 1,16,17
 697 786 697 786 718 805.5 c 128,-1,18
 739 825 739 825 776 825 c 0,19,20
 796 825 796 825 809 820.5 c 128,-1,21
 822 816 822 816 830 809 c 1,22,23
 814 793 814 793 806 775.5 c 128,-1,24
 798 758 798 758 798 733 c 0,25,26
 798 686 798 686 830 658 c 1,27,28
 823 651 823 651 809 646 c 128,-1,29
 795 641 795 641 777 641 c 0,30,31
 743 641 743 641 722 659 c 128,-1,32
 701 677 701 677 692 708 c 1,33,-1
 362 708 l 1,34,35
 352 677 352 677 332 659 c 128,-1,36
 312 641 312 641 276 641 c 0,0,1
151 0 m 1,37,38
 104 10 104 10 85 36 c 128,-1,39
 66 62 66 62 66 113 c 2,40,-1
 66 294 l 2,41,42
 66 382 66 382 108.5 449 c 128,-1,43
 151 516 151 516 226 554 c 128,-1,44
 301 592 301 592 396 592 c 2,45,-1
 491 592 l 1,46,-1
 491 545 l 1,47,48
 509 562 509 562 547 580 c 128,-1,49
 585 598 585 598 650 598 c 0,50,51
 763 598 763 598 808.5 539.5 c 128,-1,52
 854 481 854 481 854 377 c 1,53,-1
 942 377 l 2,54,55
 1000 377 1000 377 1031 353.5 c 128,-1,56
 1062 330 1062 330 1062 281 c 0,57,58
 1062 229 1062 229 1028 192 c 128,-1,59
 994 155 994 155 933 155 c 2,60,-1
 841 155 l 1,61,62
 794 165 794 165 775 191 c 128,-1,63
 756 217 756 217 756 268 c 2,64,-1
 756 388 l 2,65,66
 756 462 756 462 724 503.5 c 128,-1,67
 692 545 692 545 621 545 c 0,68,69
 573 545 573 545 540.5 527 c 128,-1,70
 508 509 508 509 491 489 c 1,71,-1
 491 377 l 1,72,-1
 579 377 l 2,73,74
 637 377 637 377 668 353.5 c 128,-1,75
 699 330 699 330 699 281 c 0,76,77
 699 229 699 229 665 192 c 128,-1,78
 631 155 631 155 570 155 c 2,79,-1
 478 155 l 1,80,81
 431 165 431 165 412 191 c 128,-1,82
 393 217 393 217 393 268 c 2,83,-1
 393 542 l 1,84,85
 284 542 284 542 224 474 c 128,-1,86
 164 406 164 406 164 281 c 2,87,-1
 164 222 l 1,88,-1
 252 222 l 2,89,90
 310 222 310 222 341 198.5 c 128,-1,91
 372 175 372 175 372 126 c 0,92,93
 372 74 372 74 338 37 c 128,-1,94
 304 0 304 0 243 0 c 2,95,-1
 151 0 l 1,37,38
541 190 m 0,96,97
 603 190 603 190 603 271 c 0,98,99
 603 307 603 307 586.5 323 c 128,-1,100
 570 339 570 339 541 339 c 2,101,-1
 491 339 l 1,102,-1
 491 256 l 2,103,104
 491 219 491 219 505 204.5 c 128,-1,105
 519 190 519 190 541 190 c 0,96,97
904 190 m 0,106,107
 966 190 966 190 966 271 c 0,108,109
 966 307 966 307 949.5 323 c 128,-1,110
 933 339 933 339 904 339 c 2,111,-1
 854 339 l 1,112,-1
 854 256 l 2,113,114
 854 219 854 219 868 204.5 c 128,-1,115
 882 190 882 190 904 190 c 0,106,107
214 35 m 0,116,117
 276 35 276 35 276 116 c 0,118,119
 276 152 276 152 259.5 168 c 128,-1,120
 243 184 243 184 214 184 c 2,121,-1
 164 184 l 1,122,-1
 164 101 l 2,123,124
 164 64 164 64 178 49.5 c 128,-1,125
 192 35 192 35 214 35 c 0,116,117
EndSplineSet
EndChar

StartChar: uniAB21
Encoding: 43809 43809 43
Width: 1121
GlyphClass: 2
Flags: W
AnchorPoint: "+BBEENQQ3BEsEPARPBD0EPQQ+BDUA--0" 581 825 basechar 0
LayerCount: 2
Fore
SplineSet
240 641 m 0,0,1
 223 641 223 641 209 646 c 128,-1,2
 195 651 195 651 187 658 c 1,3,4
 201 669 201 669 210 686.5 c 128,-1,5
 219 704 219 704 219 732 c 0,6,7
 219 758 219 758 211.5 775.5 c 128,-1,8
 204 793 204 793 187 809 c 1,9,10
 199 818 199 818 213.5 821.5 c 128,-1,11
 228 825 228 825 242 825 c 0,12,13
 279 825 279 825 300.5 805.5 c 128,-1,14
 322 786 322 786 326 760 c 1,15,-1
 656 760 l 1,16,17
 661 786 661 786 682 805.5 c 128,-1,18
 703 825 703 825 740 825 c 0,19,20
 760 825 760 825 773 820.5 c 128,-1,21
 786 816 786 816 794 809 c 1,22,23
 778 793 778 793 770 775.5 c 128,-1,24
 762 758 762 758 762 733 c 0,25,26
 762 686 762 686 794 658 c 1,27,28
 787 651 787 651 773 646 c 128,-1,29
 759 641 759 641 741 641 c 0,30,31
 707 641 707 641 686 659 c 128,-1,32
 665 677 665 677 656 708 c 1,33,-1
 326 708 l 1,34,35
 316 677 316 677 296 659 c 128,-1,36
 276 641 276 641 240 641 c 0,0,1
151 0 m 1,37,38
 104 10 104 10 85 36 c 128,-1,39
 66 62 66 62 66 113 c 2,40,-1
 66 231 l 2,41,42
 66 342 66 342 109.5 421.5 c 128,-1,43
 153 501 153 501 232 543.5 c 128,-1,44
 311 586 311 586 417 586 c 2,45,-1
 512 586 l 1,46,-1
 512 539 l 1,47,48
 530 556 530 556 566 574 c 128,-1,49
 602 592 602 592 655 592 c 0,50,51
 735 592 735 592 781.5 558 c 128,-1,52
 828 524 828 524 847 464 c 1,53,-1
 1070 464 l 1,54,55
 1068 457 1068 457 1065 441.5 c 128,-1,56
 1062 426 1062 426 1062 408 c 0,57,58
 1062 353 1062 353 1096 325 c 1,59,60
 1074 309 1074 309 1038 309 c 0,61,62
 995 309 995 309 973 333 c 128,-1,63
 951 357 951 357 951 391 c 0,64,65
 951 398 951 398 951.5 403.5 c 128,-1,66
 952 409 952 409 953 414 c 1,67,-1
 857 414 l 1,68,69
 860 391 860 391 860 365 c 2,70,-1
 860 222 l 1,71,-1
 948 222 l 2,72,73
 1006 222 1006 222 1037 198.5 c 128,-1,74
 1068 175 1068 175 1068 126 c 0,75,76
 1068 74 1068 74 1034 37 c 128,-1,77
 1000 0 1000 0 939 0 c 2,78,-1
 847 0 l 1,79,80
 800 10 800 10 781 36 c 128,-1,81
 762 62 762 62 762 113 c 2,82,-1
 762 360 l 2,83,84
 762 448 762 448 729.5 493.5 c 128,-1,85
 697 539 697 539 632 539 c 0,86,87
 592 539 592 539 560.5 521 c 128,-1,88
 529 503 529 503 512 483 c 1,89,-1
 512 222 l 1,90,-1
 600 222 l 2,91,92
 658 222 658 222 689 198.5 c 128,-1,93
 720 175 720 175 720 126 c 0,94,95
 720 74 720 74 686 37 c 128,-1,96
 652 0 652 0 591 0 c 2,97,-1
 499 0 l 1,98,99
 452 10 452 10 433 36 c 128,-1,100
 414 62 414 62 414 113 c 2,101,-1
 414 536 l 1,102,103
 284 536 284 536 224 456.5 c 128,-1,104
 164 377 164 377 164 222 c 1,105,-1
 252 222 l 2,106,107
 310 222 310 222 341 198.5 c 128,-1,108
 372 175 372 175 372 126 c 0,109,110
 372 74 372 74 338 37 c 128,-1,111
 304 0 304 0 243 0 c 2,112,-1
 151 0 l 1,37,38
214 35 m 0,113,114
 276 35 276 35 276 116 c 0,115,116
 276 152 276 152 259.5 168 c 128,-1,117
 243 184 243 184 214 184 c 2,118,-1
 164 184 l 1,119,-1
 164 101 l 2,120,121
 164 64 164 64 178 49.5 c 128,-1,122
 192 35 192 35 214 35 c 0,113,114
562 35 m 0,123,124
 624 35 624 35 624 116 c 0,125,126
 624 152 624 152 607.5 168 c 128,-1,127
 591 184 591 184 562 184 c 2,128,-1
 512 184 l 1,129,-1
 512 101 l 2,130,131
 512 64 512 64 526 49.5 c 128,-1,132
 540 35 540 35 562 35 c 0,123,124
910 35 m 0,133,134
 972 35 972 35 972 116 c 0,135,136
 972 152 972 152 955.5 168 c 128,-1,137
 939 184 939 184 910 184 c 2,138,-1
 860 184 l 1,139,-1
 860 101 l 2,140,141
 860 64 860 64 874 49.5 c 128,-1,142
 888 35 888 35 910 35 c 0,133,134
EndSplineSet
EndChar

StartChar: uni2DBA
Encoding: 11706 11706 44
Width: 1305
GlyphClass: 2
Flags: W
AnchorPoint: "+BBEENQQ3BEsEPARPBD0EPQQ+BDUA--0" 640 720 basechar 0
LayerCount: 2
Fore
SplineSet
296 0 m 1,0,1
 249 10 249 10 230 36 c 128,-1,2
 211 62 211 62 211 113 c 2,3,-1
 211 364 l 2,4,5
 211 388 211 388 213 411 c 1,6,-1
 148 411 l 1,7,8
 149 406 149 406 149.5 400.5 c 128,-1,9
 150 395 150 395 150 388 c 0,10,11
 150 354 150 354 128.5 330 c 128,-1,12
 107 306 107 306 63 306 c 0,13,14
 27 306 27 306 5 322 c 1,15,16
 39 350 39 350 39 405 c 0,17,18
 39 423 39 423 36 438.5 c 128,-1,19
 33 454 33 454 31 461 c 1,20,-1
 221 461 l 1,21,22
 247 585 247 585 340 649.5 c 128,-1,23
 433 714 433 714 577 714 c 2,24,-1
 672 714 l 1,25,-1
 672 667 l 1,26,27
 690 684 690 684 727 702 c 128,-1,28
 764 720 764 720 824 720 c 0,29,30
 939 720 939 720 989 658.5 c 128,-1,31
 1039 597 1039 597 1039 493 c 0,32,33
 1039 434 1039 434 1038.5 368.5 c 128,-1,34
 1038 303 1038 303 1037.5 239.5 c 128,-1,35
 1037 176 1037 176 1037 123 c 0,36,37
 1037 79 1037 79 1051 64.5 c 128,-1,38
 1065 50 1065 50 1096 50 c 2,39,-1
 1264 50 l 1,40,41
 1262 43 1262 43 1259 27.5 c 128,-1,42
 1256 12 1256 12 1256 -6 c 0,43,44
 1256 -61 1256 -61 1290 -89 c 1,45,46
 1268 -105 1268 -105 1232 -105 c 0,47,48
 1189 -105 1189 -105 1167 -81 c 128,-1,49
 1145 -57 1145 -57 1145 -23 c 0,50,51
 1145 -16 1145 -16 1145.5 -10.5 c 128,-1,52
 1146 -5 1146 -5 1147 0 c 1,53,-1
 963 0 l 1,54,55
 937 27 937 27 937 98 c 0,56,57
 937 159 937 159 937.5 228 c 128,-1,58
 938 297 938 297 938.5 364.5 c 128,-1,59
 939 432 939 432 939 488 c 0,60,61
 939 576 939 576 905.5 621.5 c 128,-1,62
 872 667 872 667 801 667 c 0,63,64
 754 667 754 667 721.5 649 c 128,-1,65
 689 631 689 631 672 611 c 1,66,-1
 672 222 l 1,67,-1
 760 222 l 2,68,69
 818 222 818 222 849 198.5 c 128,-1,70
 880 175 880 175 880 126 c 0,71,72
 880 74 880 74 846 37 c 128,-1,73
 812 0 812 0 751 0 c 2,74,-1
 659 0 l 1,75,76
 612 10 612 10 593 36 c 128,-1,77
 574 62 574 62 574 113 c 2,78,-1
 574 664 l 1,79,80
 438 664 438 664 373.5 585 c 128,-1,81
 309 506 309 506 309 351 c 2,82,-1
 309 222 l 1,83,-1
 397 222 l 2,84,85
 455 222 455 222 486 198.5 c 128,-1,86
 517 175 517 175 517 126 c 0,87,88
 517 74 517 74 483 37 c 128,-1,89
 449 0 449 0 388 0 c 2,90,-1
 296 0 l 1,0,1
359 35 m 0,91,92
 421 35 421 35 421 116 c 0,93,94
 421 152 421 152 404.5 168 c 128,-1,95
 388 184 388 184 359 184 c 2,96,-1
 309 184 l 1,97,-1
 309 101 l 2,98,99
 309 64 309 64 323 49.5 c 128,-1,100
 337 35 337 35 359 35 c 0,91,92
722 35 m 0,101,102
 784 35 784 35 784 116 c 0,103,104
 784 152 784 152 767.5 168 c 128,-1,105
 751 184 751 184 722 184 c 2,106,-1
 672 184 l 1,107,-1
 672 101 l 2,108,109
 672 64 672 64 686 49.5 c 128,-1,110
 700 35 700 35 722 35 c 0,101,102
EndSplineSet
EndChar

StartChar: uni2DBE
Encoding: 11710 11710 45
Width: 1246
GlyphClass: 2
Flags: W
AnchorPoint: "+BBEENQQ3BEsEPARPBD0EPQQ+BDUA--0" 618 720 basechar 0
LayerCount: 2
Fore
SplineSet
63 306 m 0,0,1
 27 306 27 306 5 322 c 1,2,3
 39 350 39 350 39 405 c 0,4,5
 39 423 39 423 36 438.5 c 128,-1,6
 33 454 33 454 31 461 c 1,7,-1
 235 461 l 1,8,9
 249 548 249 548 293.5 604 c 128,-1,10
 338 660 338 660 403.5 687 c 128,-1,11
 469 714 469 714 549 714 c 2,12,-1
 644 714 l 1,13,-1
 644 667 l 1,14,15
 662 684 662 684 700.5 702 c 128,-1,16
 739 720 739 720 807 720 c 0,17,18
 928 720 928 720 975.5 656.5 c 128,-1,19
 1023 593 1023 593 1023 457 c 1,20,-1
 1111 457 l 2,21,22
 1169 457 1169 457 1200 433.5 c 128,-1,23
 1231 410 1231 410 1231 361 c 0,24,25
 1231 309 1231 309 1197 272 c 128,-1,26
 1163 235 1163 235 1102 235 c 2,27,-1
 1010 235 l 1,28,29
 963 245 963 245 944 271 c 128,-1,30
 925 297 925 297 925 348 c 2,31,-1
 925 468 l 2,32,33
 925 574 925 574 890.5 620.5 c 128,-1,34
 856 667 856 667 778 667 c 0,35,36
 727 667 727 667 694 649 c 128,-1,37
 661 631 661 631 644 611 c 1,38,-1
 644 457 l 1,39,-1
 732 457 l 2,40,41
 790 457 790 457 821 433.5 c 128,-1,42
 852 410 852 410 852 361 c 0,43,44
 852 309 852 309 818 272 c 128,-1,45
 784 235 784 235 723 235 c 2,46,-1
 631 235 l 1,47,48
 584 245 584 245 565 271 c 128,-1,49
 546 297 546 297 546 348 c 2,50,-1
 546 664 l 1,51,52
 444 664 444 664 385.5 595 c 128,-1,53
 327 526 327 526 327 371 c 2,54,-1
 327 222 l 1,55,-1
 415 222 l 2,56,57
 473 222 473 222 504 198.5 c 128,-1,58
 535 175 535 175 535 126 c 0,59,60
 535 74 535 74 501 37 c 128,-1,61
 467 0 467 0 406 0 c 2,62,-1
 314 0 l 1,63,64
 267 10 267 10 248 36 c 128,-1,65
 229 62 229 62 229 113 c 2,66,-1
 229 384 l 2,67,68
 229 398 229 398 230 411 c 1,69,-1
 148 411 l 1,70,71
 149 406 149 406 149.5 400.5 c 128,-1,72
 150 395 150 395 150 388 c 0,73,74
 150 354 150 354 128.5 330 c 128,-1,75
 107 306 107 306 63 306 c 0,0,1
694 270 m 0,76,77
 756 270 756 270 756 351 c 0,78,79
 756 387 756 387 739.5 403 c 128,-1,80
 723 419 723 419 694 419 c 2,81,-1
 644 419 l 1,82,-1
 644 336 l 2,83,84
 644 299 644 299 658 284.5 c 128,-1,85
 672 270 672 270 694 270 c 0,76,77
1073 270 m 0,86,87
 1135 270 1135 270 1135 351 c 0,88,89
 1135 387 1135 387 1118.5 403 c 128,-1,90
 1102 419 1102 419 1073 419 c 2,91,-1
 1023 419 l 1,92,-1
 1023 336 l 2,93,94
 1023 299 1023 299 1037 284.5 c 128,-1,95
 1051 270 1051 270 1073 270 c 0,86,87
377 35 m 0,96,97
 439 35 439 35 439 116 c 0,98,99
 439 152 439 152 422.5 168 c 128,-1,100
 406 184 406 184 377 184 c 2,101,-1
 327 184 l 1,102,-1
 327 101 l 2,103,104
 327 64 327 64 341 49.5 c 128,-1,105
 355 35 355 35 377 35 c 0,96,97
EndSplineSet
EndChar

StartChar: uni2DB9
Encoding: 11705 11705 46
Width: 1295
GlyphClass: 2
Flags: W
AnchorPoint: "+BBEENQQ3BEsEPARPBD0EPQQ+BDUA--0" 637 720 basechar 0
LayerCount: 2
Fore
SplineSet
297 0 m 1,0,1
 250 10 250 10 231 36 c 128,-1,2
 212 62 212 62 212 113 c 2,3,-1
 212 364 l 2,4,5
 212 388 212 388 214 411 c 1,6,-1
 148 411 l 1,7,8
 149 406 149 406 149.5 400.5 c 128,-1,9
 150 395 150 395 150 388 c 0,10,11
 150 354 150 354 128.5 330 c 128,-1,12
 107 306 107 306 63 306 c 0,13,14
 27 306 27 306 5 322 c 1,15,16
 39 350 39 350 39 405 c 0,17,18
 39 423 39 423 36 438.5 c 128,-1,19
 33 454 33 454 31 461 c 1,20,-1
 222 461 l 1,21,22
 248 585 248 585 341 649.5 c 128,-1,23
 434 714 434 714 578 714 c 2,24,-1
 673 714 l 1,25,-1
 673 667 l 1,26,27
 691 684 691 684 728 702 c 128,-1,28
 765 720 765 720 825 720 c 0,29,30
 928 720 928 720 978 670 c 128,-1,31
 1028 620 1028 620 1036 534 c 1,32,-1
 1244 534 l 1,33,34
 1242 527 1242 527 1239 511.5 c 128,-1,35
 1236 496 1236 496 1236 478 c 0,36,37
 1236 423 1236 423 1270 395 c 1,38,39
 1248 379 1248 379 1212 379 c 0,40,41
 1169 379 1169 379 1147 403 c 128,-1,42
 1125 427 1125 427 1125 461 c 0,43,44
 1125 468 1125 468 1125.5 473.5 c 128,-1,45
 1126 479 1126 479 1127 484 c 1,46,-1
 1038 484 l 1,47,48
 1038 416 1038 416 1037 356 c 128,-1,49
 1036 296 1036 296 1036 222 c 1,50,-1
 1124 222 l 2,51,52
 1182 222 1182 222 1213 198.5 c 128,-1,53
 1244 175 1244 175 1244 126 c 0,54,55
 1244 74 1244 74 1210 37 c 128,-1,56
 1176 0 1176 0 1115 0 c 2,57,-1
 1023 0 l 1,58,59
 976 10 976 10 957 36 c 128,-1,60
 938 62 938 62 938 113 c 0,61,62
 938 222 938 222 939 316.5 c 128,-1,63
 940 411 940 411 940 488 c 0,64,65
 940 576 940 576 906.5 621.5 c 128,-1,66
 873 667 873 667 802 667 c 0,67,68
 755 667 755 667 722.5 649 c 128,-1,69
 690 631 690 631 673 611 c 1,70,-1
 673 222 l 1,71,-1
 761 222 l 2,72,73
 819 222 819 222 850 198.5 c 128,-1,74
 881 175 881 175 881 126 c 0,75,76
 881 74 881 74 847 37 c 128,-1,77
 813 0 813 0 752 0 c 2,78,-1
 660 0 l 1,79,80
 613 10 613 10 594 36 c 128,-1,81
 575 62 575 62 575 113 c 2,82,-1
 575 664 l 1,83,84
 439 664 439 664 374.5 585 c 128,-1,85
 310 506 310 506 310 351 c 2,86,-1
 310 222 l 1,87,-1
 398 222 l 2,88,89
 456 222 456 222 487 198.5 c 128,-1,90
 518 175 518 175 518 126 c 0,91,92
 518 74 518 74 484 37 c 128,-1,93
 450 0 450 0 389 0 c 2,94,-1
 297 0 l 1,0,1
360 35 m 0,95,96
 422 35 422 35 422 116 c 0,97,98
 422 152 422 152 405.5 168 c 128,-1,99
 389 184 389 184 360 184 c 2,100,-1
 310 184 l 1,101,-1
 310 101 l 2,102,103
 310 64 310 64 324 49.5 c 128,-1,104
 338 35 338 35 360 35 c 0,95,96
723 35 m 0,105,106
 785 35 785 35 785 116 c 0,107,108
 785 152 785 152 768.5 168 c 128,-1,109
 752 184 752 184 723 184 c 2,110,-1
 673 184 l 1,111,-1
 673 101 l 2,112,113
 673 64 673 64 687 49.5 c 128,-1,114
 701 35 701 35 723 35 c 0,105,106
1086 35 m 0,115,116
 1148 35 1148 35 1148 116 c 0,117,118
 1148 152 1148 152 1131.5 168 c 128,-1,119
 1115 184 1115 184 1086 184 c 2,120,-1
 1036 184 l 1,121,-1
 1036 101 l 2,122,123
 1036 64 1036 64 1050 49.5 c 128,-1,124
 1064 35 1064 35 1086 35 c 0,115,116
EndSplineSet
EndChar

StartChar: uni2DAA
Encoding: 11690 11690 47
Width: 705
GlyphClass: 2
Flags: W
AnchorPoint: "+BBEENQQ3BEsEPARPBD0EPQQ+BDUA--0" 352 826 basechar 0
LayerCount: 2
Fore
SplineSet
93 115 m 0,0,1
 57 115 57 115 35 131 c 1,2,3
 69 159 69 159 69 214 c 0,4,5
 69 232 69 232 66 247.5 c 128,-1,6
 63 263 63 263 61 270 c 1,7,-1
 308 270 l 1,8,-1
 308 471 l 1,9,-1
 182 471 l 1,10,11
 183 466 183 466 183.5 460.5 c 128,-1,12
 184 455 184 455 184 448 c 0,13,14
 184 414 184 414 162.5 390 c 128,-1,15
 141 366 141 366 97 366 c 0,16,17
 61 366 61 366 39 382 c 1,18,19
 73 410 73 410 73 465 c 0,20,21
 73 483 73 483 70 498.5 c 128,-1,22
 67 514 67 514 65 521 c 1,23,-1
 308 521 l 1,24,-1
 308 710 l 1,25,-1
 212 710 l 1,26,27
 208 685 208 685 186.5 664.5 c 128,-1,28
 165 644 165 644 128 644 c 0,29,30
 110 644 110 644 96.5 649 c 128,-1,31
 83 654 83 654 75 659 c 1,32,33
 91 675 91 675 98.5 693.5 c 128,-1,34
 106 712 106 712 106 737 c 0,35,36
 106 764 106 764 97 782 c 128,-1,37
 88 800 88 800 75 811 c 1,38,39
 83 817 83 817 96.5 821.5 c 128,-1,40
 110 826 110 826 128 826 c 0,41,42
 165 826 165 826 186 806.5 c 128,-1,43
 207 787 207 787 212 760 c 1,44,-1
 497 760 l 1,45,46
 502 786 502 786 523 806 c 128,-1,47
 544 826 544 826 581 826 c 0,48,49
 599 826 599 826 613 821 c 128,-1,50
 627 816 627 816 634 811 c 1,51,52
 618 795 618 795 610.5 777 c 128,-1,53
 603 759 603 759 603 733 c 0,54,55
 603 706 603 706 612 688 c 128,-1,56
 621 670 621 670 634 659 c 1,57,58
 627 653 627 653 613 648.5 c 128,-1,59
 599 644 599 644 581 644 c 0,60,61
 544 644 544 644 523 663.5 c 128,-1,62
 502 683 502 683 497 710 c 1,63,-1
 406 710 l 1,64,-1
 406 521 l 1,65,-1
 644 521 l 1,66,67
 642 514 642 514 639 498.5 c 128,-1,68
 636 483 636 483 636 465 c 0,69,70
 636 410 636 410 670 382 c 1,71,72
 648 366 648 366 612 366 c 0,73,74
 569 366 569 366 547 390 c 128,-1,75
 525 414 525 414 525 448 c 0,76,77
 525 455 525 455 525.5 460.5 c 128,-1,78
 526 466 526 466 527 471 c 1,79,-1
 406 471 l 1,80,-1
 406 113 l 2,81,82
 406 76 406 76 419 63 c 128,-1,83
 432 50 432 50 455 50 c 2,84,-1
 502 50 l 1,85,86
 507 76 507 76 527 95.5 c 128,-1,87
 547 115 547 115 587 115 c 0,88,89
 605 115 605 115 620.5 110.5 c 128,-1,90
 636 106 636 106 643 101 c 1,91,92
 627 85 627 85 619.5 67 c 128,-1,93
 612 49 612 49 612 23 c 0,94,95
 612 -4 612 -4 621 -22 c 128,-1,96
 630 -40 630 -40 643 -51 c 1,97,98
 636 -57 636 -57 620.5 -62 c 128,-1,99
 605 -67 605 -67 587 -67 c 0,100,101
 547 -67 547 -67 527 -47 c 128,-1,102
 507 -27 507 -27 502 0 c 1,103,-1
 337 0 l 1,104,105
 324 13 324 13 316 31.5 c 128,-1,106
 308 50 308 50 308 78 c 2,107,-1
 308 220 l 1,108,-1
 178 220 l 1,109,110
 179 215 179 215 179.5 209.5 c 128,-1,111
 180 204 180 204 180 197 c 0,112,113
 180 163 180 163 158.5 139 c 128,-1,114
 137 115 137 115 93 115 c 0,0,1
EndSplineSet
EndChar

StartChar: uni2DAE
Encoding: 11694 11694 48
Width: 693
GlyphClass: 2
Flags: W
AnchorPoint: "+BBEENQQ3BEsEPARPBD0EPQQ+BDUA--0" 346 881 basechar 0
LayerCount: 2
Fore
SplineSet
125 57 m 0,0,1
 89 57 89 57 67 73 c 1,2,3
 101 101 101 101 101 156 c 0,4,5
 101 174 101 174 98 189.5 c 128,-1,6
 95 205 95 205 93 212 c 1,7,-1
 299 212 l 1,8,-1
 299 363 l 1,9,-1
 180 363 l 1,10,11
 181 358 181 358 181.5 352.5 c 128,-1,12
 182 347 182 347 182 340 c 0,13,14
 182 306 182 306 160.5 282 c 128,-1,15
 139 258 139 258 95 258 c 0,16,17
 59 258 59 258 37 274 c 1,18,19
 71 302 71 302 71 357 c 0,20,21
 71 375 71 375 68 390.5 c 128,-1,22
 65 406 65 406 63 413 c 1,23,-1
 299 413 l 1,24,-1
 299 463 l 2,25,26
 299 480 299 480 303 495.5 c 128,-1,27
 307 511 307 511 320 523 c 1,28,29
 271 530 271 530 236 556.5 c 128,-1,30
 201 583 201 583 201 645 c 0,31,32
 201 671 201 671 208 691 c 128,-1,33
 215 711 215 711 227 726 c 1,34,-1
 166 726 l 1,35,36
 161 699 161 699 141 679 c 128,-1,37
 121 659 121 659 81 659 c 0,38,39
 63 659 63 659 48 664 c 128,-1,40
 33 669 33 669 25 675 c 1,41,42
 38 686 38 686 47 704 c 128,-1,43
 56 722 56 722 56 749 c 0,44,45
 56 775 56 775 48.5 793 c 128,-1,46
 41 811 41 811 25 827 c 1,47,48
 33 832 33 832 48 836.5 c 128,-1,49
 63 841 63 841 81 841 c 0,50,51
 121 841 121 841 141.5 821.5 c 128,-1,52
 162 802 162 802 166 776 c 1,53,-1
 500 776 l 1,54,55
 499 781 499 781 498.5 786.5 c 128,-1,56
 498 792 498 792 498 799 c 0,57,58
 498 834 498 834 520 857.5 c 128,-1,59
 542 881 542 881 585 881 c 0,60,61
 621 881 621 881 643 865 c 1,62,63
 609 837 609 837 609 782 c 0,64,65
 609 764 609 764 612 748.5 c 128,-1,66
 615 733 615 733 617 726 c 1,67,-1
 472 726 l 1,68,69
 495 697 495 697 495 651 c 0,70,71
 495 614 495 614 484 591.5 c 128,-1,72
 473 569 473 569 456 554 c 128,-1,73
 439 539 439 539 421 523 c 0,74,75
 406 510 406 510 401.5 499 c 128,-1,76
 397 488 397 488 397 465 c 2,77,-1
 397 413 l 1,78,-1
 642 413 l 1,79,80
 640 406 640 406 637 390.5 c 128,-1,81
 634 375 634 375 634 357 c 0,82,83
 634 302 634 302 668 274 c 1,84,85
 646 258 646 258 610 258 c 0,86,87
 567 258 567 258 545 282 c 128,-1,88
 523 306 523 306 523 340 c 0,89,90
 523 347 523 347 523.5 352.5 c 128,-1,91
 524 358 524 358 525 363 c 1,92,-1
 397 363 l 1,93,-1
 397 110 l 2,94,95
 397 70 397 70 410 56.5 c 128,-1,96
 423 43 423 43 446 43 c 1,97,-1
 446 4 l 1,98,-1
 328 -5 l 1,99,100
 315 8 315 8 307 26.5 c 128,-1,101
 299 45 299 45 299 73 c 2,102,-1
 299 162 l 1,103,-1
 210 162 l 1,104,105
 211 157 211 157 211.5 151.5 c 128,-1,106
 212 146 212 146 212 139 c 0,107,108
 212 105 212 105 190.5 81 c 128,-1,109
 169 57 169 57 125 57 c 0,0,1
360 557 m 1,110,111
 381 573 381 573 393.5 593 c 128,-1,112
 406 613 406 613 406 650 c 0,113,114
 406 690 406 690 390 707 c 128,-1,115
 374 724 374 724 349 724 c 0,116,117
 325 724 325 724 307.5 705.5 c 128,-1,118
 290 687 290 687 290 646 c 0,119,120
 290 603 290 603 309 582.5 c 128,-1,121
 328 562 328 562 360 557 c 1,110,111
EndSplineSet
EndChar

StartChar: uni2DA9
Encoding: 11689 11689 49
Width: 701
GlyphClass: 2
Flags: W
AnchorPoint: "+BBEENQQ3BEsEPARPBD0EPQQ+BDUA--0" 350 826 basechar 0
LayerCount: 2
Fore
SplineSet
113 77 m 0,0,1
 77 77 77 77 55 93 c 1,2,3
 89 121 89 121 89 176 c 0,4,5
 89 194 89 194 86 209.5 c 128,-1,6
 83 225 83 225 81 232 c 1,7,-1
 301 232 l 1,8,-1
 301 471 l 1,9,-1
 178 471 l 1,10,11
 179 466 179 466 179.5 460.5 c 128,-1,12
 180 455 180 455 180 448 c 0,13,14
 180 414 180 414 158.5 390 c 128,-1,15
 137 366 137 366 93 366 c 0,16,17
 57 366 57 366 35 382 c 1,18,19
 69 410 69 410 69 465 c 0,20,21
 69 483 69 483 66 498.5 c 128,-1,22
 63 514 63 514 61 521 c 1,23,-1
 301 521 l 1,24,-1
 301 710 l 1,25,-1
 206 710 l 1,26,27
 202 685 202 685 180.5 664.5 c 128,-1,28
 159 644 159 644 122 644 c 0,29,30
 104 644 104 644 90.5 649 c 128,-1,31
 77 654 77 654 69 659 c 1,32,33
 85 675 85 675 92.5 693.5 c 128,-1,34
 100 712 100 712 100 737 c 0,35,36
 100 764 100 764 91 782 c 128,-1,37
 82 800 82 800 69 811 c 1,38,39
 77 817 77 817 90.5 821.5 c 128,-1,40
 104 826 104 826 122 826 c 0,41,42
 159 826 159 826 180 806.5 c 128,-1,43
 201 787 201 787 206 760 c 1,44,-1
 491 760 l 1,45,46
 496 786 496 786 517 806 c 128,-1,47
 538 826 538 826 575 826 c 0,48,49
 593 826 593 826 607 821 c 128,-1,50
 621 816 621 816 628 811 c 1,51,52
 612 795 612 795 604.5 777 c 128,-1,53
 597 759 597 759 597 733 c 0,54,55
 597 706 597 706 606 688 c 128,-1,56
 615 670 615 670 628 659 c 1,57,58
 621 653 621 653 607 648.5 c 128,-1,59
 593 644 593 644 575 644 c 0,60,61
 538 644 538 644 517 663.5 c 128,-1,62
 496 683 496 683 491 710 c 1,63,-1
 399 710 l 1,64,-1
 399 521 l 1,65,-1
 640 521 l 1,66,67
 638 514 638 514 635 498.5 c 128,-1,68
 632 483 632 483 632 465 c 0,69,70
 632 410 632 410 666 382 c 1,71,72
 644 366 644 366 608 366 c 0,73,74
 565 366 565 366 543 390 c 128,-1,75
 521 414 521 414 521 448 c 0,76,77
 521 455 521 455 521.5 460.5 c 128,-1,78
 522 466 522 466 523 471 c 1,79,-1
 399 471 l 1,80,-1
 399 231 l 1,81,-1
 512 231 l 1,82,83
 517 257 517 257 537 276.5 c 128,-1,84
 557 296 557 296 597 296 c 0,85,86
 615 296 615 296 630.5 291.5 c 128,-1,87
 646 287 646 287 653 282 c 1,88,89
 637 266 637 266 629.5 248 c 128,-1,90
 622 230 622 230 622 204 c 0,91,92
 622 177 622 177 631 159 c 128,-1,93
 640 141 640 141 653 130 c 1,94,95
 646 124 646 124 630.5 119 c 128,-1,96
 615 114 615 114 597 114 c 0,97,98
 557 114 557 114 537 134 c 128,-1,99
 517 154 517 154 512 181 c 1,100,-1
 399 181 l 1,101,-1
 399 111 l 2,102,103
 399 71 399 71 412 57.5 c 128,-1,104
 425 44 425 44 448 44 c 1,105,-1
 448 4 l 1,106,-1
 330 -5 l 1,107,108
 317 8 317 8 309 26.5 c 128,-1,109
 301 45 301 45 301 73 c 2,110,-1
 301 182 l 1,111,-1
 198 182 l 1,112,113
 199 177 199 177 199.5 171.5 c 128,-1,114
 200 166 200 166 200 159 c 0,115,116
 200 125 200 125 178.5 101 c 128,-1,117
 157 77 157 77 113 77 c 0,0,1
EndSplineSet
EndChar

StartChar: uni127D
Encoding: 4733 4733 50
Width: 722
GlyphClass: 2
Flags: W
AnchorPoint: "+BBEENQQ3BEsEPARPBD0EPQQ+BDUA--0" 345 826 basechar 0
LayerCount: 2
Fore
SplineSet
134 235 m 0,0,1
 98 235 98 235 76 251 c 1,2,3
 110 279 110 279 110 334 c 0,4,5
 110 352 110 352 107 367.5 c 128,-1,6
 104 383 104 383 102 390 c 1,7,-1
 362 390 l 1,8,9
 365 410 365 410 367 426 c 128,-1,10
 369 442 369 442 369 452 c 0,11,12
 369 481 369 481 355 492 c 128,-1,13
 341 503 341 503 311 503 c 2,14,-1
 214 503 l 1,15,-1
 214 708 l 1,16,-1
 45 708 l 1,17,18
 47 718 47 718 47 739 c 0,19,20
 47 793 47 793 15 819 c 1,21,22
 26 827 26 827 40 831 c 128,-1,23
 54 835 54 835 70 835 c 0,24,25
 107 835 107 835 129 813.5 c 128,-1,26
 151 792 151 792 154 760 c 1,27,-1
 374 760 l 1,28,29
 379 786 379 786 400 805.5 c 128,-1,30
 421 825 421 825 458 825 c 0,31,32
 478 825 478 825 491 820.5 c 128,-1,33
 504 816 504 816 512 809 c 1,34,35
 496 793 496 793 488 775.5 c 128,-1,36
 480 758 480 758 480 733 c 0,37,38
 480 686 480 686 512 658 c 1,39,40
 505 651 505 651 491 646 c 128,-1,41
 477 641 477 641 459 641 c 0,42,43
 425 641 425 641 404 659 c 128,-1,44
 383 677 383 677 374 708 c 1,45,-1
 312 708 l 1,46,-1
 312 556 l 1,47,-1
 388 556 l 2,48,49
 432 556 432 556 450 536.5 c 128,-1,50
 468 517 468 517 468 485 c 0,51,52
 468 474 468 474 464.5 449 c 128,-1,53
 461 424 461 424 455 390 c 1,54,-1
 681 390 l 1,55,56
 679 383 679 383 676 367.5 c 128,-1,57
 673 352 673 352 673 334 c 0,58,59
 673 279 673 279 707 251 c 1,60,61
 685 235 685 235 649 235 c 0,62,63
 606 235 606 235 584 259 c 128,-1,64
 562 283 562 283 562 317 c 0,65,66
 562 324 562 324 562.5 329.5 c 128,-1,67
 563 335 563 335 564 340 c 1,68,-1
 446 340 l 1,69,70
 438 292 438 292 429 242 c 128,-1,71
 420 192 420 192 414 153 c 128,-1,72
 408 114 408 114 408 98 c 0,73,74
 408 72 408 72 421 58 c 128,-1,75
 434 44 434 44 464 44 c 1,76,-1
 464 4 l 1,77,-1
 341 -5 l 1,78,79
 326 6 326 6 317.5 23.5 c 128,-1,80
 309 41 309 41 309 70 c 0,81,82
 309 92 309 92 316.5 137 c 128,-1,83
 324 182 324 182 334 236.5 c 128,-1,84
 344 291 344 291 353 340 c 1,85,-1
 219 340 l 1,86,87
 220 335 220 335 220.5 329.5 c 128,-1,88
 221 324 221 324 221 317 c 0,89,90
 221 283 221 283 199.5 259 c 128,-1,91
 178 235 178 235 134 235 c 0,0,1
EndSplineSet
EndChar

StartChar: uni127C
Encoding: 4732 4732 51
Width: 711
GlyphClass: 2
Flags: W
AnchorPoint: "+BBEENQQ3BEsEPARPBD0EPQQ+BDUA--0" 350 826 basechar 0
LayerCount: 2
Fore
SplineSet
93 363 m 0,0,1
 57 363 57 363 35 379 c 1,2,3
 69 407 69 407 69 462 c 0,4,5
 69 480 69 480 66 495.5 c 128,-1,6
 63 511 63 511 61 518 c 1,7,-1
 308 518 l 1,8,-1
 308 710 l 1,9,-1
 214 710 l 1,10,11
 210 685 210 685 188.5 664.5 c 128,-1,12
 167 644 167 644 130 644 c 0,13,14
 112 644 112 644 98.5 649 c 128,-1,15
 85 654 85 654 77 659 c 1,16,17
 93 675 93 675 100.5 693.5 c 128,-1,18
 108 712 108 712 108 737 c 0,19,20
 108 764 108 764 99 782 c 128,-1,21
 90 800 90 800 77 811 c 1,22,23
 85 817 85 817 98.5 821.5 c 128,-1,24
 112 826 112 826 130 826 c 0,25,26
 167 826 167 826 188 806.5 c 128,-1,27
 209 787 209 787 214 760 c 1,28,-1
 499 760 l 1,29,30
 504 786 504 786 525 806 c 128,-1,31
 546 826 546 826 583 826 c 0,32,33
 601 826 601 826 615 821 c 128,-1,34
 629 816 629 816 636 811 c 1,35,36
 620 795 620 795 612.5 777 c 128,-1,37
 605 759 605 759 605 733 c 0,38,39
 605 706 605 706 614 688 c 128,-1,40
 623 670 623 670 636 659 c 1,41,42
 629 653 629 653 615 648.5 c 128,-1,43
 601 644 601 644 583 644 c 0,44,45
 546 644 546 644 525 663.5 c 128,-1,46
 504 683 504 683 499 710 c 1,47,-1
 406 710 l 1,48,-1
 406 518 l 1,49,-1
 640 518 l 1,50,51
 638 511 638 511 635 495.5 c 128,-1,52
 632 480 632 480 632 462 c 0,53,54
 632 407 632 407 666 379 c 1,55,56
 644 363 644 363 608 363 c 0,57,58
 565 363 565 363 543 387 c 128,-1,59
 521 411 521 411 521 445 c 0,60,61
 521 452 521 452 521.5 457.5 c 128,-1,62
 522 463 522 463 523 468 c 1,63,-1
 406 468 l 1,64,-1
 406 203 l 1,65,-1
 514 203 l 2,66,67
 647 203 647 203 647 115 c 0,68,69
 647 68 647 68 609 34 c 128,-1,70
 571 0 571 0 500 0 c 2,71,-1
 403 0 l 1,72,73
 356 9 356 9 332 33 c 128,-1,74
 308 57 308 57 308 103 c 2,75,-1
 308 468 l 1,76,-1
 178 468 l 1,77,78
 179 463 179 463 179.5 457.5 c 128,-1,79
 180 452 180 452 180 445 c 0,80,81
 180 411 180 411 158.5 387 c 128,-1,82
 137 363 137 363 93 363 c 0,0,1
471 35 m 0,83,84
 553 35 553 35 553 112 c 0,85,86
 553 141 553 141 535.5 154 c 128,-1,87
 518 167 518 167 483 167 c 2,88,-1
 406 167 l 1,89,-1
 406 110 l 2,90,91
 406 68 406 68 423 51.5 c 128,-1,92
 440 35 440 35 471 35 c 0,83,84
EndSplineSet
EndChar

StartChar: uni1328
Encoding: 4904 4904 52
Width: 1147
GlyphClass: 2
Flags: W
AnchorPoint: "+BBEENQQ3BEsEPARPBD0EPQQ+BDUA--0" 606 720 basechar 0
LayerCount: 2
Fore
SplineSet
175 0 m 1,0,1
 128 10 128 10 109 36 c 128,-1,2
 90 62 90 62 90 113 c 2,3,-1
 90 364 l 2,4,5
 90 478 90 478 134 556 c 128,-1,6
 178 634 178 634 260.5 674 c 128,-1,7
 343 714 343 714 456 714 c 2,8,-1
 551 714 l 1,9,-1
 551 667 l 1,10,11
 569 684 569 684 606 702 c 128,-1,12
 643 720 643 720 703 720 c 0,13,14
 818 720 818 720 867 658.5 c 128,-1,15
 916 597 916 597 916 493 c 0,16,17
 916 423 916 423 915 361 c 128,-1,18
 914 299 914 299 914 222 c 1,19,-1
 1002 222 l 2,20,21
 1060 222 1060 222 1091 198.5 c 128,-1,22
 1122 175 1122 175 1122 126 c 0,23,24
 1122 74 1122 74 1088 37 c 128,-1,25
 1054 0 1054 0 993 0 c 2,26,-1
 901 0 l 1,27,28
 854 10 854 10 835 36 c 128,-1,29
 816 62 816 62 816 113 c 0,30,31
 816 222 816 222 817 316.5 c 128,-1,32
 818 411 818 411 818 488 c 0,33,34
 818 576 818 576 784.5 621.5 c 128,-1,35
 751 667 751 667 680 667 c 0,36,37
 633 667 633 667 600.5 649 c 128,-1,38
 568 631 568 631 551 611 c 1,39,-1
 551 222 l 1,40,-1
 639 222 l 2,41,42
 697 222 697 222 728 198.5 c 128,-1,43
 759 175 759 175 759 126 c 0,44,45
 759 74 759 74 725 37 c 128,-1,46
 691 0 691 0 630 0 c 2,47,-1
 538 0 l 1,48,49
 491 10 491 10 472 36 c 128,-1,50
 453 62 453 62 453 113 c 2,51,-1
 453 664 l 1,52,53
 317 664 317 664 252.5 585 c 128,-1,54
 188 506 188 506 188 351 c 2,55,-1
 188 222 l 1,56,-1
 276 222 l 2,57,58
 334 222 334 222 365 198.5 c 128,-1,59
 396 175 396 175 396 126 c 0,60,61
 396 74 396 74 362 37 c 128,-1,62
 328 0 328 0 267 0 c 2,63,-1
 175 0 l 1,0,1
238 35 m 0,64,65
 300 35 300 35 300 116 c 0,66,67
 300 152 300 152 283.5 168 c 128,-1,68
 267 184 267 184 238 184 c 2,69,-1
 188 184 l 1,70,-1
 188 101 l 2,71,72
 188 64 188 64 202 49.5 c 128,-1,73
 216 35 216 35 238 35 c 0,64,65
601 35 m 0,74,75
 663 35 663 35 663 116 c 0,76,77
 663 152 663 152 646.5 168 c 128,-1,78
 630 184 630 184 601 184 c 2,79,-1
 551 184 l 1,80,-1
 551 101 l 2,81,82
 551 64 551 64 565 49.5 c 128,-1,83
 579 35 579 35 601 35 c 0,74,75
964 35 m 0,84,85
 1026 35 1026 35 1026 116 c 0,86,87
 1026 152 1026 152 1009.5 168 c 128,-1,88
 993 184 993 184 964 184 c 2,89,-1
 914 184 l 1,90,-1
 914 101 l 2,91,92
 914 64 914 64 928 49.5 c 128,-1,93
 942 35 942 35 964 35 c 0,84,85
EndSplineSet
EndChar

StartChar: uni132B
Encoding: 4907 4907 53
Width: 1091
GlyphClass: 2
Flags: W
AnchorPoint: "+BBEENQQ3BEsEPARPBD0EPQQ+BDUA--0" 566 720 basechar 0
LayerCount: 2
Fore
SplineSet
845 0 m 1,0,1
 798 10 798 10 779 36 c 128,-1,2
 760 62 760 62 760 113 c 0,3,4
 760 222 760 222 761 316.5 c 128,-1,5
 762 411 762 411 762 488 c 0,6,7
 762 576 762 576 729.5 621.5 c 128,-1,8
 697 667 697 667 632 667 c 0,9,10
 592 667 592 667 560.5 649 c 128,-1,11
 529 631 529 631 512 611 c 1,12,-1
 512 457 l 1,13,-1
 600 457 l 2,14,15
 658 457 658 457 689 433.5 c 128,-1,16
 720 410 720 410 720 361 c 0,17,18
 720 309 720 309 686 272 c 128,-1,19
 652 235 652 235 591 235 c 2,20,-1
 499 235 l 1,21,22
 452 245 452 245 433 271 c 128,-1,23
 414 297 414 297 414 348 c 2,24,-1
 414 664 l 1,25,26
 282 664 282 664 223 613 c 128,-1,27
 164 562 164 562 164 457 c 1,28,-1
 252 457 l 2,29,30
 310 457 310 457 341 433.5 c 128,-1,31
 372 410 372 410 372 361 c 0,32,33
 372 309 372 309 338 272 c 128,-1,34
 304 235 304 235 243 235 c 2,35,-1
 151 235 l 1,36,37
 104 245 104 245 85 271 c 128,-1,38
 66 297 66 297 66 348 c 2,39,-1
 66 450 l 2,40,41
 66 534 66 534 106 593 c 128,-1,42
 146 652 146 652 218.5 683 c 128,-1,43
 291 714 291 714 386 714 c 2,44,-1
 512 714 l 1,45,-1
 512 667 l 1,46,47
 530 684 530 684 566 702 c 128,-1,48
 602 720 602 720 655 720 c 0,49,50
 764 720 764 720 812 658.5 c 128,-1,51
 860 597 860 597 860 493 c 0,52,53
 860 423 860 423 859 361 c 128,-1,54
 858 299 858 299 858 222 c 1,55,-1
 946 222 l 2,56,57
 1004 222 1004 222 1035 198.5 c 128,-1,58
 1066 175 1066 175 1066 126 c 0,59,60
 1066 74 1066 74 1032 37 c 128,-1,61
 998 0 998 0 937 0 c 2,62,-1
 845 0 l 1,0,1
214 270 m 0,63,64
 276 270 276 270 276 351 c 0,65,66
 276 387 276 387 259.5 403 c 128,-1,67
 243 419 243 419 214 419 c 2,68,-1
 164 419 l 1,69,-1
 164 336 l 2,70,71
 164 299 164 299 178 284.5 c 128,-1,72
 192 270 192 270 214 270 c 0,63,64
562 270 m 0,73,74
 624 270 624 270 624 351 c 0,75,76
 624 387 624 387 607.5 403 c 128,-1,77
 591 419 591 419 562 419 c 2,78,-1
 512 419 l 1,79,-1
 512 336 l 2,80,81
 512 299 512 299 526 284.5 c 128,-1,82
 540 270 540 270 562 270 c 0,73,74
908 35 m 0,83,84
 970 35 970 35 970 116 c 0,85,86
 970 152 970 152 953.5 168 c 128,-1,87
 937 184 937 184 908 184 c 2,88,-1
 858 184 l 1,89,-1
 858 101 l 2,90,91
 858 64 858 64 872 49.5 c 128,-1,92
 886 35 886 35 908 35 c 0,83,84
EndSplineSet
EndChar

StartChar: uni132D
Encoding: 4909 4909 54
Width: 1103
GlyphClass: 2
Flags: W
AnchorPoint: "+BBEENQQ3BEsEPARPBD0EPQQ+BDUA--0" 577 720 basechar 0
LayerCount: 2
Fore
SplineSet
593 0 m 2,0,1
 545 0 545 0 526.5 31 c 128,-1,2
 508 62 508 62 508 113 c 2,3,-1
 508 307 l 2,4,5
 508 336 508 336 494 347 c 128,-1,6
 480 358 480 358 450 358 c 2,7,-1
 424 358 l 1,8,-1
 424 664 l 1,9,10
 282 664 282 664 223 614 c 128,-1,11
 164 564 164 564 164 457 c 1,12,-1
 252 457 l 2,13,14
 310 457 310 457 341 433.5 c 128,-1,15
 372 410 372 410 372 361 c 0,16,17
 372 309 372 309 338 272 c 128,-1,18
 304 235 304 235 243 235 c 2,19,-1
 151 235 l 1,20,21
 104 245 104 245 85 271 c 128,-1,22
 66 297 66 297 66 348 c 2,23,-1
 66 463 l 2,24,25
 66 542 66 542 108 598 c 128,-1,26
 150 654 150 654 226.5 684 c 128,-1,27
 303 714 303 714 407 714 c 2,28,-1
 522 714 l 1,29,-1
 522 667 l 1,30,31
 540 684 540 684 578.5 702 c 128,-1,32
 617 720 617 720 685 720 c 0,33,34
 790 720 790 720 835 655.5 c 128,-1,35
 880 591 880 591 880 457 c 1,36,-1
 968 457 l 2,37,38
 1026 457 1026 457 1057 433.5 c 128,-1,39
 1088 410 1088 410 1088 361 c 0,40,41
 1088 309 1088 309 1054 272 c 128,-1,42
 1020 235 1020 235 959 235 c 2,43,-1
 867 235 l 1,44,45
 820 245 820 245 801 271 c 128,-1,46
 782 297 782 297 782 348 c 2,47,-1
 782 477 l 2,48,49
 782 565 782 565 754.5 616 c 128,-1,50
 727 667 727 667 662 667 c 0,51,52
 607 667 607 667 573 649 c 128,-1,53
 539 631 539 631 522 611 c 1,54,-1
 522 407 l 1,55,-1
 527 407 l 2,56,57
 571 407 571 407 588.5 388.5 c 128,-1,58
 606 370 606 370 606 340 c 2,59,-1
 606 222 l 1,60,-1
 694 222 l 2,61,62
 752 222 752 222 783 198.5 c 128,-1,63
 814 175 814 175 814 126 c 0,64,65
 814 74 814 74 780 37 c 128,-1,66
 746 0 746 0 685 0 c 2,67,-1
 593 0 l 2,0,1
214 270 m 0,68,69
 276 270 276 270 276 351 c 0,70,71
 276 387 276 387 259.5 403 c 128,-1,72
 243 419 243 419 214 419 c 2,73,-1
 164 419 l 1,74,-1
 164 336 l 2,75,76
 164 299 164 299 178 284.5 c 128,-1,77
 192 270 192 270 214 270 c 0,68,69
930 270 m 0,78,79
 992 270 992 270 992 351 c 0,80,81
 992 387 992 387 975.5 403 c 128,-1,82
 959 419 959 419 930 419 c 2,83,-1
 880 419 l 1,84,-1
 880 336 l 2,85,86
 880 299 880 299 894 284.5 c 128,-1,87
 908 270 908 270 930 270 c 0,78,79
656 35 m 0,88,89
 718 35 718 35 718 116 c 0,90,91
 718 152 718 152 701.5 168 c 128,-1,92
 685 184 685 184 656 184 c 2,93,-1
 606 184 l 1,94,-1
 606 101 l 2,95,96
 606 64 606 64 620 49.5 c 128,-1,97
 634 35 634 35 656 35 c 0,88,89
EndSplineSet
EndChar

StartChar: uni132C
Encoding: 4908 4908 55
Width: 1337
GlyphClass: 2
Flags: W
AnchorPoint: "+BBEENQQ3BEsEPARPBD0EPQQ+BDUA--0" 706 720 basechar 0
LayerCount: 2
Fore
SplineSet
175 0 m 1,0,1
 128 10 128 10 109 36 c 128,-1,2
 90 62 90 62 90 113 c 2,3,-1
 90 364 l 2,4,5
 90 478 90 478 134 556 c 128,-1,6
 178 634 178 634 260.5 674 c 128,-1,7
 343 714 343 714 456 714 c 2,8,-1
 551 714 l 1,9,-1
 551 667 l 1,10,11
 569 684 569 684 606 702 c 128,-1,12
 643 720 643 720 703 720 c 0,13,14
 813 720 813 720 862.5 663.5 c 128,-1,15
 912 607 912 607 916 511 c 1,16,-1
 1052 511 l 1,17,18
 1086 538 1086 538 1149 538 c 2,19,-1
 1222 538 l 2,20,21
 1322 538 1322 538 1322 451 c 0,22,23
 1322 407 1322 407 1292 373.5 c 128,-1,24
 1262 340 1262 340 1213 340 c 2,25,-1
 1102 340 l 2,26,27
 1063 340 1063 340 1039.5 364.5 c 128,-1,28
 1016 389 1016 389 1016 427 c 0,29,30
 1016 446 1016 446 1020 461 c 1,31,-1
 916 461 l 1,32,33
 916 401 916 401 915 345.5 c 128,-1,34
 914 290 914 290 914 222 c 1,35,-1
 1002 222 l 2,36,37
 1060 222 1060 222 1091 198.5 c 128,-1,38
 1122 175 1122 175 1122 126 c 0,39,40
 1122 74 1122 74 1088 37 c 128,-1,41
 1054 0 1054 0 993 0 c 2,42,-1
 901 0 l 1,43,44
 854 10 854 10 835 36 c 128,-1,45
 816 62 816 62 816 113 c 0,46,47
 816 222 816 222 817 316.5 c 128,-1,48
 818 411 818 411 818 488 c 0,49,50
 818 576 818 576 784.5 621.5 c 128,-1,51
 751 667 751 667 680 667 c 0,52,53
 633 667 633 667 600.5 649 c 128,-1,54
 568 631 568 631 551 611 c 1,55,-1
 551 222 l 1,56,-1
 639 222 l 2,57,58
 697 222 697 222 728 198.5 c 128,-1,59
 759 175 759 175 759 126 c 0,60,61
 759 74 759 74 725 37 c 128,-1,62
 691 0 691 0 630 0 c 2,63,-1
 538 0 l 1,64,65
 491 10 491 10 472 36 c 128,-1,66
 453 62 453 62 453 113 c 2,67,-1
 453 664 l 1,68,69
 317 664 317 664 252.5 585 c 128,-1,70
 188 506 188 506 188 351 c 2,71,-1
 188 222 l 1,72,-1
 276 222 l 2,73,74
 334 222 334 222 365 198.5 c 128,-1,75
 396 175 396 175 396 126 c 0,76,77
 396 74 396 74 362 37 c 128,-1,78
 328 0 328 0 267 0 c 2,79,-1
 175 0 l 1,0,1
1160 377 m 0,80,81
 1198 377 1198 377 1218.5 398 c 128,-1,82
 1239 419 1239 419 1239 449 c 0,83,84
 1239 473 1239 473 1223 487 c 128,-1,85
 1207 501 1207 501 1176 501 c 0,86,87
 1140 501 1140 501 1119.5 482.5 c 128,-1,88
 1099 464 1099 464 1099 430 c 0,89,90
 1099 407 1099 407 1115 392 c 128,-1,91
 1131 377 1131 377 1160 377 c 0,80,81
238 35 m 0,92,93
 300 35 300 35 300 116 c 0,94,95
 300 152 300 152 283.5 168 c 128,-1,96
 267 184 267 184 238 184 c 2,97,-1
 188 184 l 1,98,-1
 188 101 l 2,99,100
 188 64 188 64 202 49.5 c 128,-1,101
 216 35 216 35 238 35 c 0,92,93
601 35 m 0,102,103
 663 35 663 35 663 116 c 0,104,105
 663 152 663 152 646.5 168 c 128,-1,106
 630 184 630 184 601 184 c 2,107,-1
 551 184 l 1,108,-1
 551 101 l 2,109,110
 551 64 551 64 565 49.5 c 128,-1,111
 579 35 579 35 601 35 c 0,102,103
964 35 m 0,112,113
 1026 35 1026 35 1026 116 c 0,114,115
 1026 152 1026 152 1009.5 168 c 128,-1,116
 993 184 993 184 964 184 c 2,117,-1
 914 184 l 1,118,-1
 914 101 l 2,119,120
 914 64 914 64 928 49.5 c 128,-1,121
 942 35 942 35 964 35 c 0,112,113
EndSplineSet
EndChar

StartChar: uni132A
Encoding: 4906 4906 56
Width: 1184
GlyphClass: 2
Flags: W
AnchorPoint: "+BBEENQQ3BEsEPARPBD0EPQQ+BDUA--0" 622 720 basechar 0
LayerCount: 2
Fore
SplineSet
175 0 m 1,0,1
 128 10 128 10 109 36 c 128,-1,2
 90 62 90 62 90 113 c 2,3,-1
 90 364 l 2,4,5
 90 478 90 478 134 556 c 128,-1,6
 178 634 178 634 260.5 674 c 128,-1,7
 343 714 343 714 456 714 c 2,8,-1
 551 714 l 1,9,-1
 551 667 l 1,10,11
 569 684 569 684 606 702 c 128,-1,12
 643 720 643 720 703 720 c 0,13,14
 818 720 818 720 868 658.5 c 128,-1,15
 918 597 918 597 918 493 c 0,16,17
 918 434 918 434 917.5 368.5 c 128,-1,18
 917 303 917 303 916.5 239.5 c 128,-1,19
 916 176 916 176 916 123 c 0,20,21
 916 79 916 79 930 64.5 c 128,-1,22
 944 50 944 50 975 50 c 2,23,-1
 1143 50 l 1,24,25
 1141 43 1141 43 1138 27.5 c 128,-1,26
 1135 12 1135 12 1135 -6 c 0,27,28
 1135 -61 1135 -61 1169 -89 c 1,29,30
 1147 -105 1147 -105 1111 -105 c 0,31,32
 1068 -105 1068 -105 1046 -81 c 128,-1,33
 1024 -57 1024 -57 1024 -23 c 0,34,35
 1024 -16 1024 -16 1024.5 -10.5 c 128,-1,36
 1025 -5 1025 -5 1026 0 c 1,37,-1
 842 0 l 1,38,39
 816 27 816 27 816 98 c 0,40,41
 816 159 816 159 816.5 228 c 128,-1,42
 817 297 817 297 817.5 364.5 c 128,-1,43
 818 432 818 432 818 488 c 0,44,45
 818 576 818 576 784.5 621.5 c 128,-1,46
 751 667 751 667 680 667 c 0,47,48
 633 667 633 667 600.5 649 c 128,-1,49
 568 631 568 631 551 611 c 1,50,-1
 551 222 l 1,51,-1
 639 222 l 2,52,53
 697 222 697 222 728 198.5 c 128,-1,54
 759 175 759 175 759 126 c 0,55,56
 759 74 759 74 725 37 c 128,-1,57
 691 0 691 0 630 0 c 2,58,-1
 538 0 l 1,59,60
 491 10 491 10 472 36 c 128,-1,61
 453 62 453 62 453 113 c 2,62,-1
 453 664 l 1,63,64
 317 664 317 664 252.5 585 c 128,-1,65
 188 506 188 506 188 351 c 2,66,-1
 188 222 l 1,67,-1
 276 222 l 2,68,69
 334 222 334 222 365 198.5 c 128,-1,70
 396 175 396 175 396 126 c 0,71,72
 396 74 396 74 362 37 c 128,-1,73
 328 0 328 0 267 0 c 2,74,-1
 175 0 l 1,0,1
238 35 m 0,75,76
 300 35 300 35 300 116 c 0,77,78
 300 152 300 152 283.5 168 c 128,-1,79
 267 184 267 184 238 184 c 2,80,-1
 188 184 l 1,81,-1
 188 101 l 2,82,83
 188 64 188 64 202 49.5 c 128,-1,84
 216 35 216 35 238 35 c 0,75,76
601 35 m 0,85,86
 663 35 663 35 663 116 c 0,87,88
 663 152 663 152 646.5 168 c 128,-1,89
 630 184 630 184 601 184 c 2,90,-1
 551 184 l 1,91,-1
 551 101 l 2,92,93
 551 64 551 64 565 49.5 c 128,-1,94
 579 35 579 35 601 35 c 0,85,86
EndSplineSet
EndChar

StartChar: uni1396
Encoding: 5014 5014 57
Width: 392
Flags: W
LayerCount: 2
Fore
SplineSet
50 0 m 1,0,-1
 50 66 l 1,1,-1
 103 66 l 2,2,3
 142 66 142 66 176 75 c 128,-1,4
 210 84 210 84 230.5 112 c 128,-1,5
 251 140 251 140 251 198 c 2,6,-1
 251 260 l 1,7,-1
 342 260 l 1,8,-1
 342 195 l 2,9,10
 342 134 342 134 323 95.5 c 128,-1,11
 304 57 304 57 270.5 36 c 128,-1,12
 237 15 237 15 194 7.5 c 128,-1,13
 151 0 151 0 103 0 c 2,14,-1
 50 0 l 1,0,-1
EndSplineSet
EndChar

StartChar: uni132E
Encoding: 4910 4910 58
Width: 1107
GlyphClass: 2
Flags: W
AnchorPoint: "+BBEENQQ3BEsEPARPBD0EPQQ+BDUA--0" 591 720 basechar 0
LayerCount: 2
Fore
SplineSet
175 0 m 1,0,1
 128 10 128 10 109 36 c 128,-1,2
 90 62 90 62 90 113 c 2,3,-1
 90 384 l 2,4,5
 90 498 90 498 132.5 571 c 128,-1,6
 175 644 175 644 247.5 679 c 128,-1,7
 320 714 320 714 410 714 c 2,8,-1
 505 714 l 1,9,-1
 505 667 l 1,10,11
 523 684 523 684 561.5 702 c 128,-1,12
 600 720 600 720 668 720 c 0,13,14
 789 720 789 720 836.5 656.5 c 128,-1,15
 884 593 884 593 884 457 c 1,16,-1
 972 457 l 2,17,18
 1030 457 1030 457 1061 433.5 c 128,-1,19
 1092 410 1092 410 1092 361 c 0,20,21
 1092 309 1092 309 1058 272 c 128,-1,22
 1024 235 1024 235 963 235 c 2,23,-1
 871 235 l 1,24,25
 824 245 824 245 805 271 c 128,-1,26
 786 297 786 297 786 348 c 2,27,-1
 786 468 l 2,28,29
 786 574 786 574 751.5 620.5 c 128,-1,30
 717 667 717 667 639 667 c 0,31,32
 588 667 588 667 555 649 c 128,-1,33
 522 631 522 631 505 611 c 1,34,-1
 505 457 l 1,35,-1
 593 457 l 2,36,37
 651 457 651 457 682 433.5 c 128,-1,38
 713 410 713 410 713 361 c 0,39,40
 713 309 713 309 679 272 c 128,-1,41
 645 235 645 235 584 235 c 2,42,-1
 492 235 l 1,43,44
 445 245 445 245 426 271 c 128,-1,45
 407 297 407 297 407 348 c 2,46,-1
 407 664 l 1,47,48
 305 664 305 664 246.5 595 c 128,-1,49
 188 526 188 526 188 371 c 2,50,-1
 188 222 l 1,51,-1
 276 222 l 2,52,53
 334 222 334 222 365 198.5 c 128,-1,54
 396 175 396 175 396 126 c 0,55,56
 396 74 396 74 362 37 c 128,-1,57
 328 0 328 0 267 0 c 2,58,-1
 175 0 l 1,0,1
555 270 m 0,59,60
 617 270 617 270 617 351 c 0,61,62
 617 387 617 387 600.5 403 c 128,-1,63
 584 419 584 419 555 419 c 2,64,-1
 505 419 l 1,65,-1
 505 336 l 2,66,67
 505 299 505 299 519 284.5 c 128,-1,68
 533 270 533 270 555 270 c 0,59,60
934 270 m 0,69,70
 996 270 996 270 996 351 c 0,71,72
 996 387 996 387 979.5 403 c 128,-1,73
 963 419 963 419 934 419 c 2,74,-1
 884 419 l 1,75,-1
 884 336 l 2,76,77
 884 299 884 299 898 284.5 c 128,-1,78
 912 270 912 270 934 270 c 0,69,70
238 35 m 0,79,80
 300 35 300 35 300 116 c 0,81,82
 300 152 300 152 283.5 168 c 128,-1,83
 267 184 267 184 238 184 c 2,84,-1
 188 184 l 1,85,-1
 188 101 l 2,86,87
 188 64 188 64 202 49.5 c 128,-1,88
 216 35 216 35 238 35 c 0,79,80
EndSplineSet
EndChar

StartChar: uni2D90
Encoding: 11664 11664 59
Width: 1279
GlyphClass: 2
Flags: W
AnchorPoint: "+BBEENQQ3BEsEPARPBD0EPQQ+BDUA--0" 639 720 basechar 0
LayerCount: 2
Fore
SplineSet
71 190 m 0,0,1
 53 190 53 190 38 195 c 128,-1,2
 23 200 23 200 15 206 c 1,3,4
 28 217 28 217 37 235 c 128,-1,5
 46 253 46 253 46 280 c 0,6,7
 46 306 46 306 38.5 324 c 128,-1,8
 31 342 31 342 15 358 c 1,9,10
 23 363 23 363 38 367.5 c 128,-1,11
 53 372 53 372 71 372 c 0,12,13
 111 372 111 372 131.5 352.5 c 128,-1,14
 152 333 152 333 156 307 c 1,15,-1
 262 307 l 1,16,-1
 262 384 l 2,17,18
 262 498 262 498 304.5 571 c 128,-1,19
 347 644 347 644 419 679 c 128,-1,20
 491 714 491 714 582 714 c 2,21,-1
 677 714 l 1,22,-1
 677 667 l 1,23,24
 695 684 695 684 733.5 702 c 128,-1,25
 772 720 772 720 840 720 c 0,26,27
 961 720 961 720 1008.5 656.5 c 128,-1,28
 1056 593 1056 593 1056 457 c 1,29,-1
 1144 457 l 2,30,31
 1202 457 1202 457 1233 433.5 c 128,-1,32
 1264 410 1264 410 1264 361 c 0,33,34
 1264 309 1264 309 1230 272 c 128,-1,35
 1196 235 1196 235 1135 235 c 2,36,-1
 1043 235 l 1,37,38
 996 245 996 245 977 271 c 128,-1,39
 958 297 958 297 958 348 c 2,40,-1
 958 468 l 2,41,42
 958 574 958 574 923.5 620.5 c 128,-1,43
 889 667 889 667 811 667 c 0,44,45
 760 667 760 667 727 649 c 128,-1,46
 694 631 694 631 677 611 c 1,47,-1
 677 457 l 1,48,-1
 765 457 l 2,49,50
 823 457 823 457 854 433.5 c 128,-1,51
 885 410 885 410 885 361 c 0,52,53
 885 309 885 309 851 272 c 128,-1,54
 817 235 817 235 756 235 c 2,55,-1
 664 235 l 1,56,57
 617 245 617 245 598 271 c 128,-1,58
 579 297 579 297 579 348 c 2,59,-1
 579 664 l 1,60,61
 477 664 477 664 418.5 595 c 128,-1,62
 360 526 360 526 360 371 c 2,63,-1
 360 222 l 1,64,-1
 448 222 l 2,65,66
 506 222 506 222 537 198.5 c 128,-1,67
 568 175 568 175 568 126 c 0,68,69
 568 74 568 74 534 37 c 128,-1,70
 500 0 500 0 439 0 c 2,71,-1
 347 0 l 1,72,73
 300 10 300 10 281 36 c 128,-1,74
 262 62 262 62 262 113 c 2,75,-1
 262 257 l 1,76,-1
 156 257 l 1,77,78
 151 230 151 230 131 210 c 128,-1,79
 111 190 111 190 71 190 c 0,0,1
727 270 m 0,80,81
 789 270 789 270 789 351 c 0,82,83
 789 387 789 387 772.5 403 c 128,-1,84
 756 419 756 419 727 419 c 2,85,-1
 677 419 l 1,86,-1
 677 336 l 2,87,88
 677 299 677 299 691 284.5 c 128,-1,89
 705 270 705 270 727 270 c 0,80,81
1106 270 m 0,90,91
 1168 270 1168 270 1168 351 c 0,92,93
 1168 387 1168 387 1151.5 403 c 128,-1,94
 1135 419 1135 419 1106 419 c 2,95,-1
 1056 419 l 1,96,-1
 1056 336 l 2,97,98
 1056 299 1056 299 1070 284.5 c 128,-1,99
 1084 270 1084 270 1106 270 c 0,90,91
410 35 m 0,100,101
 472 35 472 35 472 116 c 0,102,103
 472 152 472 152 455.5 168 c 128,-1,104
 439 184 439 184 410 184 c 2,105,-1
 360 184 l 1,106,-1
 360 101 l 2,107,108
 360 64 360 64 374 49.5 c 128,-1,109
 388 35 388 35 410 35 c 0,100,101
EndSplineSet
EndChar

StartChar: uni1329
Encoding: 4905 4905 60
Width: 1148
GlyphClass: 2
Flags: W
AnchorPoint: "+BBEENQQ3BEsEPARPBD0EPQQ+BDUA--0" 606 720 basechar 0
LayerCount: 2
Fore
SplineSet
175 0 m 1,0,1
 128 10 128 10 109 36 c 128,-1,2
 90 62 90 62 90 113 c 2,3,-1
 90 364 l 2,4,5
 90 478 90 478 134 556 c 128,-1,6
 178 634 178 634 260.5 674 c 128,-1,7
 343 714 343 714 456 714 c 2,8,-1
 551 714 l 1,9,-1
 551 667 l 1,10,11
 569 684 569 684 606 702 c 128,-1,12
 643 720 643 720 703 720 c 0,13,14
 805 720 805 720 854.5 671 c 128,-1,15
 904 622 904 622 914 538 c 1,16,-1
 1097 538 l 1,17,18
 1095 531 1095 531 1092 515.5 c 128,-1,19
 1089 500 1089 500 1089 482 c 0,20,21
 1089 427 1089 427 1123 399 c 1,22,23
 1101 383 1101 383 1065 383 c 0,24,25
 1022 383 1022 383 1000 407 c 128,-1,26
 978 431 978 431 978 465 c 0,27,28
 978 472 978 472 978.5 477.5 c 128,-1,29
 979 483 979 483 980 488 c 1,30,-1
 916 488 l 1,31,32
 916 419 916 419 915 358 c 128,-1,33
 914 297 914 297 914 222 c 1,34,-1
 1002 222 l 2,35,36
 1060 222 1060 222 1091 198.5 c 128,-1,37
 1122 175 1122 175 1122 126 c 0,38,39
 1122 74 1122 74 1088 37 c 128,-1,40
 1054 0 1054 0 993 0 c 2,41,-1
 901 0 l 1,42,43
 854 10 854 10 835 36 c 128,-1,44
 816 62 816 62 816 113 c 0,45,46
 816 222 816 222 817 316.5 c 128,-1,47
 818 411 818 411 818 488 c 0,48,49
 818 576 818 576 784.5 621.5 c 128,-1,50
 751 667 751 667 680 667 c 0,51,52
 633 667 633 667 600.5 649 c 128,-1,53
 568 631 568 631 551 611 c 1,54,-1
 551 222 l 1,55,-1
 639 222 l 2,56,57
 697 222 697 222 728 198.5 c 128,-1,58
 759 175 759 175 759 126 c 0,59,60
 759 74 759 74 725 37 c 128,-1,61
 691 0 691 0 630 0 c 2,62,-1
 538 0 l 1,63,64
 491 10 491 10 472 36 c 128,-1,65
 453 62 453 62 453 113 c 2,66,-1
 453 664 l 1,67,68
 317 664 317 664 252.5 585 c 128,-1,69
 188 506 188 506 188 351 c 2,70,-1
 188 222 l 1,71,-1
 276 222 l 2,72,73
 334 222 334 222 365 198.5 c 128,-1,74
 396 175 396 175 396 126 c 0,75,76
 396 74 396 74 362 37 c 128,-1,77
 328 0 328 0 267 0 c 2,78,-1
 175 0 l 1,0,1
238 35 m 0,79,80
 300 35 300 35 300 116 c 0,81,82
 300 152 300 152 283.5 168 c 128,-1,83
 267 184 267 184 238 184 c 2,84,-1
 188 184 l 1,85,-1
 188 101 l 2,86,87
 188 64 188 64 202 49.5 c 128,-1,88
 216 35 216 35 238 35 c 0,79,80
601 35 m 0,89,90
 663 35 663 35 663 116 c 0,91,92
 663 152 663 152 646.5 168 c 128,-1,93
 630 184 630 184 601 184 c 2,94,-1
 551 184 l 1,95,-1
 551 101 l 2,96,97
 551 64 551 64 565 49.5 c 128,-1,98
 579 35 579 35 601 35 c 0,89,90
964 35 m 0,99,100
 1026 35 1026 35 1026 116 c 0,101,102
 1026 152 1026 152 1009.5 168 c 128,-1,103
 993 184 993 184 964 184 c 2,104,-1
 914 184 l 1,105,-1
 914 101 l 2,106,107
 914 64 914 64 928 49.5 c 128,-1,108
 942 35 942 35 964 35 c 0,99,100
EndSplineSet
EndChar

StartChar: uni132F
Encoding: 4911 4911 61
Width: 1144
GlyphClass: 2
Flags: W
AnchorPoint: "+BBEENQQ3BEsEPARPBD0EPQQ+BDUA--0" 597 720 basechar 0
LayerCount: 2
Fore
SplineSet
556 -105 m 0,0,1
 520 -105 520 -105 498 -89 c 1,2,3
 532 -61 532 -61 532 -6 c 0,4,5
 532 12 532 12 529 27.5 c 128,-1,6
 526 43 526 43 524 50 c 1,7,-1
 768 50 l 1,8,9
 762 71 762 71 762 98 c 2,10,-1
 762 488 l 2,11,12
 762 576 762 576 729.5 621.5 c 128,-1,13
 697 667 697 667 632 667 c 0,14,15
 592 667 592 667 560.5 649 c 128,-1,16
 529 631 529 631 512 611 c 1,17,-1
 512 457 l 1,18,-1
 600 457 l 2,19,20
 658 457 658 457 689 433.5 c 128,-1,21
 720 410 720 410 720 361 c 0,22,23
 720 309 720 309 686 272 c 128,-1,24
 652 235 652 235 591 235 c 2,25,-1
 499 235 l 1,26,27
 452 245 452 245 433 271 c 128,-1,28
 414 297 414 297 414 348 c 2,29,-1
 414 664 l 1,30,31
 282 664 282 664 223 613 c 128,-1,32
 164 562 164 562 164 457 c 1,33,-1
 252 457 l 2,34,35
 310 457 310 457 341 433.5 c 128,-1,36
 372 410 372 410 372 361 c 0,37,38
 372 309 372 309 338 272 c 128,-1,39
 304 235 304 235 243 235 c 2,40,-1
 151 235 l 1,41,42
 104 245 104 245 85 271 c 128,-1,43
 66 297 66 297 66 348 c 2,44,-1
 66 450 l 2,45,46
 66 534 66 534 106 593 c 128,-1,47
 146 652 146 652 218.5 683 c 128,-1,48
 291 714 291 714 386 714 c 2,49,-1
 512 714 l 1,50,-1
 512 667 l 1,51,52
 530 684 530 684 566 702 c 128,-1,53
 602 720 602 720 655 720 c 0,54,55
 764 720 764 720 812 658.5 c 128,-1,56
 860 597 860 597 860 493 c 2,57,-1
 860 117 l 2,58,59
 860 77 860 77 873 63.5 c 128,-1,60
 886 50 886 50 909 50 c 2,61,-1
 1103 50 l 1,62,63
 1101 43 1101 43 1098 27.5 c 128,-1,64
 1095 12 1095 12 1095 -6 c 0,65,66
 1095 -61 1095 -61 1129 -89 c 1,67,68
 1107 -105 1107 -105 1071 -105 c 0,69,70
 1028 -105 1028 -105 1006 -81 c 128,-1,71
 984 -57 984 -57 984 -23 c 0,72,73
 984 -16 984 -16 984.5 -10.5 c 128,-1,74
 985 -5 985 -5 986 0 c 1,75,-1
 641 0 l 1,76,77
 642 -5 642 -5 642.5 -10.5 c 128,-1,78
 643 -16 643 -16 643 -23 c 0,79,80
 643 -57 643 -57 621.5 -81 c 128,-1,81
 600 -105 600 -105 556 -105 c 0,0,1
214 270 m 0,82,83
 276 270 276 270 276 351 c 0,84,85
 276 387 276 387 259.5 403 c 128,-1,86
 243 419 243 419 214 419 c 2,87,-1
 164 419 l 1,88,-1
 164 336 l 2,89,90
 164 299 164 299 178 284.5 c 128,-1,91
 192 270 192 270 214 270 c 0,82,83
562 270 m 0,92,93
 624 270 624 270 624 351 c 0,94,95
 624 387 624 387 607.5 403 c 128,-1,96
 591 419 591 419 562 419 c 2,97,-1
 512 419 l 1,98,-1
 512 336 l 2,99,100
 512 299 512 299 526 284.5 c 128,-1,101
 540 270 540 270 562 270 c 0,92,93
EndSplineSet
EndChar

StartChar: uni127A
Encoding: 4730 4730 62
Width: 701
GlyphClass: 2
Flags: W
AnchorPoint: "+BBEENQQ3BEsEPARPBD0EPQQ+BDUA--0" 350 826 basechar 0
LayerCount: 2
Fore
SplineSet
93 366 m 0,0,1
 57 366 57 366 35 382 c 1,2,3
 69 410 69 410 69 465 c 0,4,5
 69 483 69 483 66 498.5 c 128,-1,6
 63 514 63 514 61 521 c 1,7,-1
 304 521 l 1,8,-1
 304 710 l 1,9,-1
 208 710 l 1,10,11
 204 685 204 685 182.5 664.5 c 128,-1,12
 161 644 161 644 124 644 c 0,13,14
 106 644 106 644 92.5 649 c 128,-1,15
 79 654 79 654 71 659 c 1,16,17
 87 675 87 675 94.5 693.5 c 128,-1,18
 102 712 102 712 102 737 c 0,19,20
 102 764 102 764 93 782 c 128,-1,21
 84 800 84 800 71 811 c 1,22,23
 79 817 79 817 92.5 821.5 c 128,-1,24
 106 826 106 826 124 826 c 0,25,26
 161 826 161 826 182 806.5 c 128,-1,27
 203 787 203 787 208 760 c 1,28,-1
 493 760 l 1,29,30
 498 786 498 786 519 806 c 128,-1,31
 540 826 540 826 577 826 c 0,32,33
 595 826 595 826 609 821 c 128,-1,34
 623 816 623 816 630 811 c 1,35,36
 614 795 614 795 606.5 777 c 128,-1,37
 599 759 599 759 599 733 c 0,38,39
 599 706 599 706 608 688 c 128,-1,40
 617 670 617 670 630 659 c 1,41,42
 623 653 623 653 609 648.5 c 128,-1,43
 595 644 595 644 577 644 c 0,44,45
 540 644 540 644 519 663.5 c 128,-1,46
 498 683 498 683 493 710 c 1,47,-1
 402 710 l 1,48,-1
 402 521 l 1,49,-1
 640 521 l 1,50,51
 638 514 638 514 635 498.5 c 128,-1,52
 632 483 632 483 632 465 c 0,53,54
 632 410 632 410 666 382 c 1,55,56
 644 366 644 366 608 366 c 0,57,58
 565 366 565 366 543 390 c 128,-1,59
 521 414 521 414 521 448 c 0,60,61
 521 455 521 455 521.5 460.5 c 128,-1,62
 522 466 522 466 523 471 c 1,63,-1
 402 471 l 1,64,-1
 402 113 l 2,65,66
 402 76 402 76 415 63 c 128,-1,67
 428 50 428 50 451 50 c 2,68,-1
 498 50 l 1,69,70
 503 76 503 76 523 95.5 c 128,-1,71
 543 115 543 115 583 115 c 0,72,73
 601 115 601 115 616.5 110.5 c 128,-1,74
 632 106 632 106 639 101 c 1,75,76
 623 85 623 85 615.5 67 c 128,-1,77
 608 49 608 49 608 23 c 0,78,79
 608 -4 608 -4 617 -22 c 128,-1,80
 626 -40 626 -40 639 -51 c 1,81,82
 632 -57 632 -57 616.5 -62 c 128,-1,83
 601 -67 601 -67 583 -67 c 0,84,85
 543 -67 543 -67 523 -47 c 128,-1,86
 503 -27 503 -27 498 0 c 1,87,-1
 333 0 l 1,88,89
 320 13 320 13 312 31.5 c 128,-1,90
 304 50 304 50 304 78 c 2,91,-1
 304 471 l 1,92,-1
 178 471 l 1,93,94
 179 466 179 466 179.5 460.5 c 128,-1,95
 180 455 180 455 180 448 c 0,96,97
 180 414 180 414 158.5 390 c 128,-1,98
 137 366 137 366 93 366 c 0,0,1
EndSplineSet
EndChar

StartChar: uni127E
Encoding: 4734 4734 63
Width: 673
GlyphClass: 2
Flags: W
AnchorPoint: "+BBEENQQ3BEsEPARPBD0EPQQ+BDUA--0" 336 881 basechar 0
LayerCount: 2
Fore
SplineSet
85 258 m 0,0,1
 49 258 49 258 27 274 c 1,2,3
 61 302 61 302 61 357 c 0,4,5
 61 375 61 375 58 390.5 c 128,-1,6
 55 406 55 406 53 413 c 1,7,-1
 294 413 l 1,8,-1
 294 463 l 2,9,10
 294 480 294 480 298 495.5 c 128,-1,11
 302 511 302 511 315 523 c 1,12,13
 266 530 266 530 231 556.5 c 128,-1,14
 196 583 196 583 196 645 c 0,15,16
 196 671 196 671 203 691 c 128,-1,17
 210 711 210 711 222 726 c 1,18,-1
 156 726 l 1,19,20
 151 699 151 699 131 679 c 128,-1,21
 111 659 111 659 71 659 c 0,22,23
 53 659 53 659 38 664 c 128,-1,24
 23 669 23 669 15 675 c 1,25,26
 28 686 28 686 37 704 c 128,-1,27
 46 722 46 722 46 749 c 0,28,29
 46 775 46 775 38.5 793 c 128,-1,30
 31 811 31 811 15 827 c 1,31,32
 23 832 23 832 38 836.5 c 128,-1,33
 53 841 53 841 71 841 c 0,34,35
 111 841 111 841 131.5 821.5 c 128,-1,36
 152 802 152 802 156 776 c 1,37,-1
 497 776 l 1,38,39
 496 781 496 781 495.5 786.5 c 128,-1,40
 495 792 495 792 495 799 c 0,41,42
 495 834 495 834 517 857.5 c 128,-1,43
 539 881 539 881 582 881 c 0,44,45
 618 881 618 881 640 865 c 1,46,47
 606 837 606 837 606 782 c 0,48,49
 606 764 606 764 609 748.5 c 128,-1,50
 612 733 612 733 614 726 c 1,51,-1
 467 726 l 1,52,53
 490 697 490 697 490 651 c 0,54,55
 490 614 490 614 479 591.5 c 128,-1,56
 468 569 468 569 451 554 c 128,-1,57
 434 539 434 539 416 523 c 0,58,59
 401 510 401 510 396.5 499 c 128,-1,60
 392 488 392 488 392 465 c 2,61,-1
 392 413 l 1,62,-1
 632 413 l 1,63,64
 630 406 630 406 627 390.5 c 128,-1,65
 624 375 624 375 624 357 c 0,66,67
 624 302 624 302 658 274 c 1,68,69
 636 258 636 258 600 258 c 0,70,71
 557 258 557 258 535 282 c 128,-1,72
 513 306 513 306 513 340 c 0,73,74
 513 347 513 347 513.5 352.5 c 128,-1,75
 514 358 514 358 515 363 c 1,76,-1
 392 363 l 1,77,-1
 392 110 l 2,78,79
 392 70 392 70 405 56.5 c 128,-1,80
 418 43 418 43 441 43 c 1,81,-1
 441 4 l 1,82,-1
 323 -5 l 1,83,84
 310 8 310 8 302 26.5 c 128,-1,85
 294 45 294 45 294 73 c 2,86,-1
 294 363 l 1,87,-1
 170 363 l 1,88,89
 171 358 171 358 171.5 352.5 c 128,-1,90
 172 347 172 347 172 340 c 0,91,92
 172 306 172 306 150.5 282 c 128,-1,93
 129 258 129 258 85 258 c 0,0,1
355 557 m 1,94,95
 376 573 376 573 388.5 593 c 128,-1,96
 401 613 401 613 401 650 c 0,97,98
 401 690 401 690 385 707 c 128,-1,99
 369 724 369 724 344 724 c 0,100,101
 320 724 320 724 302.5 705.5 c 128,-1,102
 285 687 285 687 285 646 c 0,103,104
 285 603 285 603 304 582.5 c 128,-1,105
 323 562 323 562 355 557 c 1,94,95
EndSplineSet
EndChar

StartChar: uni2D87
Encoding: 11655 11655 64
Width: 686
GlyphClass: 2
Flags: W
AnchorPoint: "+BBEENQQ3BEsEPARPBD0EPQQ+BDUA--0" 343 881 basechar 0
LayerCount: 2
Fore
SplineSet
105 -67 m 0,0,1
 87 -67 87 -67 72 -62 c 128,-1,2
 57 -57 57 -57 49 -51 c 1,3,4
 62 -40 62 -40 71 -22 c 128,-1,5
 80 -4 80 -4 80 23 c 0,6,7
 80 49 80 49 72.5 67 c 128,-1,8
 65 85 65 85 49 101 c 1,9,10
 57 106 57 106 72 110.5 c 128,-1,11
 87 115 87 115 105 115 c 0,12,13
 145 115 145 115 165.5 95.5 c 128,-1,14
 186 76 186 76 190 50 c 1,15,-1
 299 50 l 1,16,-1
 299 363 l 1,17,-1
 173 363 l 1,18,19
 174 358 174 358 174.5 352.5 c 128,-1,20
 175 347 175 347 175 340 c 0,21,22
 175 306 175 306 153.5 282 c 128,-1,23
 132 258 132 258 88 258 c 0,24,25
 52 258 52 258 30 274 c 1,26,27
 64 302 64 302 64 357 c 0,28,29
 64 375 64 375 61 390.5 c 128,-1,30
 58 406 58 406 56 413 c 1,31,-1
 299 413 l 1,32,-1
 299 463 l 2,33,34
 299 480 299 480 303 495.5 c 128,-1,35
 307 511 307 511 320 523 c 1,36,37
 271 530 271 530 236 556.5 c 128,-1,38
 201 583 201 583 201 645 c 0,39,40
 201 671 201 671 208 691 c 128,-1,41
 215 711 215 711 227 726 c 1,42,-1
 166 726 l 1,43,44
 161 699 161 699 141 679 c 128,-1,45
 121 659 121 659 81 659 c 0,46,47
 63 659 63 659 48 664 c 128,-1,48
 33 669 33 669 25 675 c 1,49,50
 38 686 38 686 47 704 c 128,-1,51
 56 722 56 722 56 749 c 0,52,53
 56 775 56 775 48.5 793 c 128,-1,54
 41 811 41 811 25 827 c 1,55,56
 33 832 33 832 48 836.5 c 128,-1,57
 63 841 63 841 81 841 c 0,58,59
 121 841 121 841 141.5 821.5 c 128,-1,60
 162 802 162 802 166 776 c 1,61,-1
 500 776 l 1,62,63
 499 781 499 781 498.5 786.5 c 128,-1,64
 498 792 498 792 498 799 c 0,65,66
 498 834 498 834 520 857.5 c 128,-1,67
 542 881 542 881 585 881 c 0,68,69
 621 881 621 881 643 865 c 1,70,71
 609 837 609 837 609 782 c 0,72,73
 609 764 609 764 612 748.5 c 128,-1,74
 615 733 615 733 617 726 c 1,75,-1
 472 726 l 1,76,77
 495 697 495 697 495 651 c 0,78,79
 495 614 495 614 484 591.5 c 128,-1,80
 473 569 473 569 456 554 c 128,-1,81
 439 539 439 539 421 523 c 0,82,83
 406 510 406 510 401.5 499 c 128,-1,84
 397 488 397 488 397 465 c 2,85,-1
 397 413 l 1,86,-1
 635 413 l 1,87,88
 633 406 633 406 630 390.5 c 128,-1,89
 627 375 627 375 627 357 c 0,90,91
 627 302 627 302 661 274 c 1,92,93
 639 258 639 258 603 258 c 0,94,95
 560 258 560 258 538 282 c 128,-1,96
 516 306 516 306 516 340 c 0,97,98
 516 347 516 347 516.5 352.5 c 128,-1,99
 517 358 517 358 518 363 c 1,100,-1
 397 363 l 1,101,-1
 397 0 l 1,102,-1
 190 0 l 1,103,104
 185 -27 185 -27 165 -47 c 128,-1,105
 145 -67 145 -67 105 -67 c 0,0,1
360 557 m 1,106,107
 381 573 381 573 393.5 593 c 128,-1,108
 406 613 406 613 406 650 c 0,109,110
 406 690 406 690 390 707 c 128,-1,111
 374 724 374 724 349 724 c 0,112,113
 325 724 325 724 307.5 705.5 c 128,-1,114
 290 687 290 687 290 646 c 0,115,116
 290 603 290 603 309 582.5 c 128,-1,117
 328 562 328 562 360 557 c 1,106,107
EndSplineSet
EndChar

StartChar: uni1365
Encoding: 4965 4965 65
Width: 386
Flags: W
LayerCount: 2
Fore
SplineSet
193 479 m 0,0,1
 166 479 166 479 147.5 495 c 128,-1,2
 129 511 129 511 129 547 c 0,3,4
 129 585 129 585 147.5 600 c 128,-1,5
 166 615 166 615 193 615 c 0,6,7
 219 615 219 615 238 600 c 128,-1,8
 257 585 257 585 257 547 c 0,9,10
 257 511 257 511 238 495 c 128,-1,11
 219 479 219 479 193 479 c 0,0,1
72 327 m 1,12,-1
 72 409 l 1,13,-1
 314 409 l 1,14,-1
 314 327 l 1,15,-1
 72 327 l 1,12,-1
193 121 m 0,16,17
 166 121 166 121 147.5 137 c 128,-1,18
 129 153 129 153 129 189 c 0,19,20
 129 227 129 227 147.5 242 c 128,-1,21
 166 257 166 257 193 257 c 0,22,23
 219 257 219 257 238 242 c 128,-1,24
 257 227 257 227 257 189 c 0,25,26
 257 153 257 153 238 137 c 128,-1,27
 219 121 219 121 193 121 c 0,16,17
EndSplineSet
EndChar

StartChar: uni1363
Encoding: 4963 4963 66
Width: 386
Flags: W
LayerCount: 2
Fore
SplineSet
72 503 m 1,0,-1
 72 585 l 1,1,-1
 314 585 l 1,2,-1
 314 503 l 1,3,-1
 72 503 l 1,0,-1
193 312 m 0,4,5
 166 312 166 312 147.5 328 c 128,-1,6
 129 344 129 344 129 380 c 0,7,8
 129 418 129 418 147.5 433 c 128,-1,9
 166 448 166 448 193 448 c 0,10,11
 219 448 219 448 238 433 c 128,-1,12
 257 418 257 418 257 380 c 0,13,14
 257 344 257 344 238 328 c 128,-1,15
 219 312 219 312 193 312 c 0,4,5
193 121 m 0,16,17
 166 121 166 121 147.5 137 c 128,-1,18
 129 153 129 153 129 189 c 0,19,20
 129 227 129 227 147.5 242 c 128,-1,21
 166 257 166 257 193 257 c 0,22,23
 219 257 219 257 238 242 c 128,-1,24
 257 227 257 227 257 189 c 0,25,26
 257 153 257 153 238 137 c 128,-1,27
 219 121 219 121 193 121 c 0,16,17
EndSplineSet
EndChar

StartChar: uni1279
Encoding: 4729 4729 67
Width: 691
GlyphClass: 2
Flags: W
AnchorPoint: "+BBEENQQ3BEsEPARPBD0EPQQ+BDUA--0" 340 826 basechar 0
LayerCount: 2
Fore
SplineSet
320 -5 m 1,0,1
 307 8 307 8 299 26.5 c 128,-1,2
 291 45 291 45 291 73 c 2,3,-1
 291 471 l 1,4,-1
 168 471 l 1,5,6
 169 466 169 466 169.5 460.5 c 128,-1,7
 170 455 170 455 170 448 c 0,8,9
 170 414 170 414 148.5 390 c 128,-1,10
 127 366 127 366 83 366 c 0,11,12
 47 366 47 366 25 382 c 1,13,14
 59 410 59 410 59 465 c 0,15,16
 59 483 59 483 56 498.5 c 128,-1,17
 53 514 53 514 51 521 c 1,18,-1
 291 521 l 1,19,-1
 291 710 l 1,20,-1
 196 710 l 1,21,22
 192 685 192 685 170.5 664.5 c 128,-1,23
 149 644 149 644 112 644 c 0,24,25
 94 644 94 644 80.5 649 c 128,-1,26
 67 654 67 654 59 659 c 1,27,28
 75 675 75 675 82.5 693.5 c 128,-1,29
 90 712 90 712 90 737 c 0,30,31
 90 764 90 764 81 782 c 128,-1,32
 72 800 72 800 59 811 c 1,33,34
 67 817 67 817 80.5 821.5 c 128,-1,35
 94 826 94 826 112 826 c 0,36,37
 149 826 149 826 170 806.5 c 128,-1,38
 191 787 191 787 196 760 c 1,39,-1
 481 760 l 1,40,41
 486 786 486 786 507 806 c 128,-1,42
 528 826 528 826 565 826 c 0,43,44
 583 826 583 826 597 821 c 128,-1,45
 611 816 611 816 618 811 c 1,46,47
 602 795 602 795 594.5 777 c 128,-1,48
 587 759 587 759 587 733 c 0,49,50
 587 706 587 706 596 688 c 128,-1,51
 605 670 605 670 618 659 c 1,52,53
 611 653 611 653 597 648.5 c 128,-1,54
 583 644 583 644 565 644 c 0,55,56
 528 644 528 644 507 663.5 c 128,-1,57
 486 683 486 683 481 710 c 1,58,-1
 389 710 l 1,59,-1
 389 521 l 1,60,-1
 630 521 l 1,61,62
 628 514 628 514 625 498.5 c 128,-1,63
 622 483 622 483 622 465 c 0,64,65
 622 410 622 410 656 382 c 1,66,67
 634 366 634 366 598 366 c 0,68,69
 555 366 555 366 533 390 c 128,-1,70
 511 414 511 414 511 448 c 0,71,72
 511 455 511 455 511.5 460.5 c 128,-1,73
 512 466 512 466 513 471 c 1,74,-1
 389 471 l 1,75,-1
 389 231 l 1,76,-1
 502 231 l 1,77,78
 507 257 507 257 527 276.5 c 128,-1,79
 547 296 547 296 587 296 c 0,80,81
 605 296 605 296 620.5 291.5 c 128,-1,82
 636 287 636 287 643 282 c 1,83,84
 627 266 627 266 619.5 248 c 128,-1,85
 612 230 612 230 612 204 c 0,86,87
 612 177 612 177 621 159 c 128,-1,88
 630 141 630 141 643 130 c 1,89,90
 636 124 636 124 620.5 119 c 128,-1,91
 605 114 605 114 587 114 c 0,92,93
 547 114 547 114 527 134 c 128,-1,94
 507 154 507 154 502 181 c 1,95,-1
 389 181 l 1,96,-1
 389 111 l 2,97,98
 389 71 389 71 402 57.5 c 128,-1,99
 415 44 415 44 438 44 c 1,100,-1
 438 4 l 1,101,-1
 320 -5 l 1,0,1
EndSplineSet
EndChar

StartChar: uni127F
Encoding: 4735 4735 68
Width: 691
GlyphClass: 2
Flags: W
AnchorPoint: "+BBEENQQ3BEsEPARPBD0EPQQ+BDUA--0" 345 826 basechar 0
LayerCount: 2
Fore
SplineSet
88 -105 m 0,0,1
 52 -105 52 -105 30 -89 c 1,2,3
 64 -61 64 -61 64 -6 c 0,4,5
 64 12 64 12 61 27.5 c 128,-1,6
 58 43 58 43 56 50 c 1,7,-1
 299 50 l 1,8,9
 297 60 297 60 297 73 c 2,10,-1
 297 461 l 1,11,-1
 173 461 l 1,12,13
 174 456 174 456 174.5 450.5 c 128,-1,14
 175 445 175 445 175 438 c 0,15,16
 175 404 175 404 153.5 380 c 128,-1,17
 132 356 132 356 88 356 c 0,18,19
 52 356 52 356 30 372 c 1,20,21
 64 400 64 400 64 455 c 0,22,23
 64 473 64 473 61 488.5 c 128,-1,24
 58 504 58 504 56 511 c 1,25,-1
 297 511 l 1,26,-1
 297 710 l 1,27,-1
 200 710 l 1,28,29
 196 685 196 685 174.5 664.5 c 128,-1,30
 153 644 153 644 116 644 c 0,31,32
 98 644 98 644 84.5 649 c 128,-1,33
 71 654 71 654 63 659 c 1,34,35
 79 675 79 675 86.5 693.5 c 128,-1,36
 94 712 94 712 94 737 c 0,37,38
 94 764 94 764 85 782 c 128,-1,39
 76 800 76 800 63 811 c 1,40,41
 71 817 71 817 84.5 821.5 c 128,-1,42
 98 826 98 826 116 826 c 0,43,44
 153 826 153 826 174 806.5 c 128,-1,45
 195 787 195 787 200 760 c 1,46,-1
 485 760 l 1,47,48
 490 786 490 786 511 806 c 128,-1,49
 532 826 532 826 569 826 c 0,50,51
 587 826 587 826 601 821 c 128,-1,52
 615 816 615 816 622 811 c 1,53,54
 606 795 606 795 598.5 777 c 128,-1,55
 591 759 591 759 591 733 c 0,56,57
 591 706 591 706 600 688 c 128,-1,58
 609 670 609 670 622 659 c 1,59,60
 615 653 615 653 601 648.5 c 128,-1,61
 587 644 587 644 569 644 c 0,62,63
 532 644 532 644 511 663.5 c 128,-1,64
 490 683 490 683 485 710 c 1,65,-1
 395 710 l 1,66,-1
 395 511 l 1,67,-1
 635 511 l 1,68,69
 633 504 633 504 630 488.5 c 128,-1,70
 627 473 627 473 627 455 c 0,71,72
 627 400 627 400 661 372 c 1,73,74
 639 356 639 356 603 356 c 0,75,76
 560 356 560 356 538 380 c 128,-1,77
 516 404 516 404 516 438 c 0,78,79
 516 445 516 445 516.5 450.5 c 128,-1,80
 517 456 517 456 518 461 c 1,81,-1
 395 461 l 1,82,-1
 395 117 l 2,83,84
 395 77 395 77 408 63.5 c 128,-1,85
 421 50 421 50 444 50 c 2,86,-1
 635 50 l 1,87,88
 633 43 633 43 630 27.5 c 128,-1,89
 627 12 627 12 627 -6 c 0,90,91
 627 -61 627 -61 661 -89 c 1,92,93
 639 -105 639 -105 603 -105 c 0,94,95
 560 -105 560 -105 538 -81 c 128,-1,96
 516 -57 516 -57 516 -23 c 0,97,98
 516 -16 516 -16 516.5 -10.5 c 128,-1,99
 517 -5 517 -5 518 0 c 1,100,-1
 173 0 l 1,101,102
 174 -5 174 -5 174.5 -10.5 c 128,-1,103
 175 -16 175 -16 175 -23 c 0,104,105
 175 -57 175 -57 153.5 -81 c 128,-1,106
 132 -105 132 -105 88 -105 c 0,0,1
EndSplineSet
EndChar

StartChar: uni12F0
Encoding: 4848 4848 69
Width: 661
GlyphClass: 2
Flags: W
AnchorPoint: "+BBEENQQ3BEsEPARPBD0EPQQ+BDUA--0" 330 726 basechar 0
LayerCount: 2
Fore
SplineSet
73 -11 m 0,0,1
 37 -11 37 -11 15 5 c 1,2,3
 49 33 49 33 49 88 c 0,4,5
 49 106 49 106 46 121.5 c 128,-1,6
 43 137 43 137 41 144 c 1,7,-1
 282 144 l 1,8,9
 249 193 249 193 219.5 249.5 c 128,-1,10
 190 306 190 306 171.5 366.5 c 128,-1,11
 153 427 153 427 153 488 c 0,12,13
 153 603 153 603 209.5 664.5 c 128,-1,14
 266 726 266 726 374 726 c 0,15,16
 453 726 453 726 497 687 c 128,-1,17
 541 648 541 648 541 585 c 0,18,19
 541 520 541 520 505.5 477.5 c 128,-1,20
 470 435 470 435 409 411 c 128,-1,21
 348 387 348 387 269 377 c 1,22,23
 279 346 279 346 297.5 306 c 128,-1,24
 316 266 316 266 339.5 223.5 c 128,-1,25
 363 181 363 181 390 144 c 1,26,-1
 620 144 l 1,27,28
 618 137 618 137 615 121.5 c 128,-1,29
 612 106 612 106 612 88 c 0,30,31
 612 33 612 33 646 5 c 1,32,33
 624 -11 624 -11 588 -11 c 0,34,35
 545 -11 545 -11 523 13 c 128,-1,36
 501 37 501 37 501 71 c 0,37,38
 501 78 501 78 501.5 83.5 c 128,-1,39
 502 89 502 89 503 94 c 1,40,-1
 158 94 l 1,41,42
 159 89 159 89 159.5 83.5 c 128,-1,43
 160 78 160 78 160 71 c 0,44,45
 160 37 160 37 138.5 13 c 128,-1,46
 117 -11 117 -11 73 -11 c 0,0,1
255 425 m 1,47,48
 341 431 341 431 394.5 468.5 c 128,-1,49
 448 506 448 506 448 586 c 0,50,51
 448 631 448 631 425.5 655 c 128,-1,52
 403 679 403 679 363 679 c 0,53,54
 304 679 304 679 274.5 633 c 128,-1,55
 245 587 245 587 245 514 c 0,56,57
 245 489 245 489 247.5 466.5 c 128,-1,58
 250 444 250 444 255 425 c 1,47,48
EndSplineSet
EndChar

StartChar: uni12F3
Encoding: 4851 4851 70
Width: 699
GlyphClass: 2
Flags: W
AnchorPoint: "+BBEENQQ3BEsEPARPBD0EPQQ+BDUA--0" 344 726 basechar 0
LayerCount: 2
Fore
SplineSet
63 131 m 0,0,1
 27 131 27 131 5 147 c 1,2,3
 39 175 39 175 39 230 c 0,4,5
 39 248 39 248 36 263.5 c 128,-1,6
 33 279 33 279 31 286 c 1,7,-1
 268 286 l 1,8,9
 223 333 223 333 192.5 389 c 128,-1,10
 162 445 162 445 162 517 c 0,11,12
 162 620 162 620 217.5 673 c 128,-1,13
 273 726 273 726 383 726 c 0,14,15
 462 726 462 726 506 691.5 c 128,-1,16
 550 657 550 657 550 597 c 0,17,18
 550 541 550 541 515.5 505 c 128,-1,19
 481 469 481 469 420.5 449.5 c 128,-1,20
 360 430 360 430 281 421 c 1,21,22
 297 388 297 388 326 353 c 128,-1,23
 355 318 355 318 390 286 c 1,24,-1
 537 286 l 2,25,26
 588 286 588 286 609.5 264 c 128,-1,27
 631 242 631 242 631 202 c 2,28,-1
 631 98 l 2,29,30
 631 65 631 65 644 53.5 c 128,-1,31
 657 42 657 42 684 42 c 1,32,-1
 684 4 l 1,33,-1
 556 -5 l 1,34,35
 537 24 537 24 537 93 c 2,36,-1
 537 182 l 2,37,38
 537 211 537 211 524 223.5 c 128,-1,39
 511 236 511 236 481 236 c 2,40,-1
 148 236 l 1,41,42
 149 231 149 231 149.5 225.5 c 128,-1,43
 150 220 150 220 150 213 c 0,44,45
 150 179 150 179 128.5 155 c 128,-1,46
 107 131 107 131 63 131 c 0,0,1
264 467 m 1,47,48
 350 472 350 472 403.5 501.5 c 128,-1,49
 457 531 457 531 457 601 c 0,50,51
 457 640 457 640 432.5 660.5 c 128,-1,52
 408 681 408 681 370 681 c 0,53,54
 311 681 311 681 282.5 643 c 128,-1,55
 254 605 254 605 254 542 c 0,56,57
 254 498 254 498 264 467 c 1,47,48
EndSplineSet
EndChar

StartChar: uni030E
Encoding: 782 782 71
Width: 0
GlyphClass: 4
Flags: W
AnchorPoint: "+BBEENQQ3BEsEPARPBD0EPQQ+BDUA--1" 0 760 basemark 0
AnchorPoint: "+BBEENQQ3BEsEPARPBD0EPQQ+BDUA--1" 0 536 mark 0
AnchorPoint: "+BBEENQQ3BEsEPARPBD0EPQQ+BDUA--0" 0 536 mark 0
LayerCount: 2
Fore
SplineSet
-100 596 m 1,0,-1
 -100 760 l 1,1,-1
 -44 760 l 1,2,-1
 -44 596 l 1,3,-1
 -100 596 l 1,0,-1
44 596 m 1,4,-1
 44 760 l 1,5,-1
 100 760 l 1,6,-1
 100 596 l 1,7,-1
 44 596 l 1,4,-1
EndSplineSet
EndChar

StartChar: uni12F8
Encoding: 4856 4856 72
Width: 661
GlyphClass: 2
Flags: W
AnchorPoint: "+BBEENQQ3BEsEPARPBD0EPQQ+BDUA--0" 330 830 basechar 0
LayerCount: 2
Fore
SplineSet
73 -11 m 0,0,1
 37 -11 37 -11 15 5 c 1,2,3
 49 33 49 33 49 88 c 0,4,5
 49 106 49 106 46 121.5 c 128,-1,6
 43 137 43 137 41 144 c 1,7,-1
 282 144 l 1,8,9
 249 193 249 193 219.5 249.5 c 128,-1,10
 190 306 190 306 171.5 366.5 c 128,-1,11
 153 427 153 427 153 488 c 0,12,13
 153 589 153 589 197 649 c 128,-1,14
 241 709 241 709 326 722 c 1,15,-1
 326 830 l 1,16,-1
 411 830 l 1,17,-1
 411 723 l 1,18,19
 473 714 473 714 507 677 c 128,-1,20
 541 640 541 640 541 585 c 0,21,22
 541 520 541 520 505.5 477.5 c 128,-1,23
 470 435 470 435 409 411 c 128,-1,24
 348 387 348 387 269 377 c 1,25,26
 279 346 279 346 297.5 306 c 128,-1,27
 316 266 316 266 339.5 223.5 c 128,-1,28
 363 181 363 181 390 144 c 1,29,-1
 620 144 l 1,30,31
 618 137 618 137 615 121.5 c 128,-1,32
 612 106 612 106 612 88 c 0,33,34
 612 33 612 33 646 5 c 1,35,36
 624 -11 624 -11 588 -11 c 0,37,38
 545 -11 545 -11 523 13 c 128,-1,39
 501 37 501 37 501 71 c 0,40,41
 501 78 501 78 501.5 83.5 c 128,-1,42
 502 89 502 89 503 94 c 1,43,-1
 158 94 l 1,44,45
 159 89 159 89 159.5 83.5 c 128,-1,46
 160 78 160 78 160 71 c 0,47,48
 160 37 160 37 138.5 13 c 128,-1,49
 117 -11 117 -11 73 -11 c 0,0,1
255 425 m 1,50,51
 341 431 341 431 394.5 468.5 c 128,-1,52
 448 506 448 506 448 586 c 0,53,54
 448 631 448 631 425.5 655 c 128,-1,55
 403 679 403 679 363 679 c 0,56,57
 304 679 304 679 274.5 633 c 128,-1,58
 245 587 245 587 245 514 c 0,59,60
 245 489 245 489 247.5 466.5 c 128,-1,61
 250 444 250 444 255 425 c 1,50,51
EndSplineSet
EndChar

StartChar: uni12FB
Encoding: 4859 4859 73
Width: 699
GlyphClass: 2
Flags: W
AnchorPoint: "+BBEENQQ3BEsEPARPBD0EPQQ+BDUA--0" 344 830 basechar 0
LayerCount: 2
Fore
SplineSet
63 131 m 0,0,1
 27 131 27 131 5 147 c 1,2,3
 39 175 39 175 39 230 c 0,4,5
 39 248 39 248 36 263.5 c 128,-1,6
 33 279 33 279 31 286 c 1,7,-1
 268 286 l 1,8,9
 223 333 223 333 192.5 389 c 128,-1,10
 162 445 162 445 162 517 c 0,11,12
 162 696 162 696 326 722 c 1,13,-1
 326 830 l 1,14,-1
 411 830 l 1,15,-1
 411 725 l 1,16,17
 477 719 477 719 513.5 685 c 128,-1,18
 550 651 550 651 550 597 c 0,19,20
 550 541 550 541 515.5 505 c 128,-1,21
 481 469 481 469 420.5 449.5 c 128,-1,22
 360 430 360 430 281 421 c 1,23,24
 297 388 297 388 326 353 c 128,-1,25
 355 318 355 318 390 286 c 1,26,-1
 537 286 l 2,27,28
 588 286 588 286 609.5 264 c 128,-1,29
 631 242 631 242 631 202 c 2,30,-1
 631 98 l 2,31,32
 631 65 631 65 644 53.5 c 128,-1,33
 657 42 657 42 684 42 c 1,34,-1
 684 4 l 1,35,-1
 556 -5 l 1,36,37
 537 24 537 24 537 93 c 2,38,-1
 537 182 l 2,39,40
 537 211 537 211 524 223.5 c 128,-1,41
 511 236 511 236 481 236 c 2,42,-1
 148 236 l 1,43,44
 149 231 149 231 149.5 225.5 c 128,-1,45
 150 220 150 220 150 213 c 0,46,47
 150 179 150 179 128.5 155 c 128,-1,48
 107 131 107 131 63 131 c 0,0,1
264 467 m 1,49,50
 350 472 350 472 403.5 501.5 c 128,-1,51
 457 531 457 531 457 601 c 0,52,53
 457 640 457 640 432.5 660.5 c 128,-1,54
 408 681 408 681 370 681 c 0,55,56
 311 681 311 681 282.5 643 c 128,-1,57
 254 605 254 605 254 542 c 0,58,59
 254 498 254 498 264 467 c 1,49,50
EndSplineSet
EndChar

StartChar: uni12FD
Encoding: 4861 4861 74
Width: 775
GlyphClass: 2
Flags: W
AnchorPoint: "+BBEENQQ3BEsEPARPBD0EPQQ+BDUA--0" 395 830 basechar 0
LayerCount: 2
Fore
SplineSet
73 -11 m 0,0,1
 37 -11 37 -11 15 5 c 1,2,3
 49 33 49 33 49 88 c 0,4,5
 49 106 49 106 46 121.5 c 128,-1,6
 43 137 43 137 41 144 c 1,7,-1
 282 144 l 1,8,9
 249 193 249 193 219.5 249.5 c 128,-1,10
 190 306 190 306 171.5 366.5 c 128,-1,11
 153 427 153 427 153 488 c 0,12,13
 153 589 153 589 197 649 c 128,-1,14
 241 709 241 709 326 722 c 1,15,-1
 326 830 l 1,16,-1
 411 830 l 1,17,-1
 411 723 l 1,18,19
 473 714 473 714 507 677 c 128,-1,20
 541 640 541 640 541 585 c 0,21,22
 541 559 541 559 535 536 c 1,23,-1
 749 536 l 1,24,25
 747 529 747 529 744 513.5 c 128,-1,26
 741 498 741 498 741 480 c 0,27,28
 741 425 741 425 775 397 c 1,29,30
 753 381 753 381 717 381 c 0,31,32
 674 381 674 381 652 405 c 128,-1,33
 630 429 630 429 630 463 c 0,34,35
 630 470 630 470 630.5 475.5 c 128,-1,36
 631 481 631 481 632 486 c 1,37,-1
 512 486 l 1,38,39
 479 439 479 439 415 413 c 128,-1,40
 351 387 351 387 269 377 c 1,41,42
 279 346 279 346 297.5 306 c 128,-1,43
 316 266 316 266 339.5 223.5 c 128,-1,44
 363 181 363 181 390 144 c 1,45,-1
 620 144 l 1,46,47
 618 137 618 137 615 121.5 c 128,-1,48
 612 106 612 106 612 88 c 0,49,50
 612 33 612 33 646 5 c 1,51,52
 624 -11 624 -11 588 -11 c 0,53,54
 545 -11 545 -11 523 13 c 128,-1,55
 501 37 501 37 501 71 c 0,56,57
 501 78 501 78 501.5 83.5 c 128,-1,58
 502 89 502 89 503 94 c 1,59,-1
 158 94 l 1,60,61
 159 89 159 89 159.5 83.5 c 128,-1,62
 160 78 160 78 160 71 c 0,63,64
 160 37 160 37 138.5 13 c 128,-1,65
 117 -11 117 -11 73 -11 c 0,0,1
255 425 m 1,66,67
 341 431 341 431 394.5 468.5 c 128,-1,68
 448 506 448 506 448 586 c 0,69,70
 448 631 448 631 425.5 655 c 128,-1,71
 403 679 403 679 363 679 c 0,72,73
 304 679 304 679 274.5 633 c 128,-1,74
 245 587 245 587 245 514 c 0,75,76
 245 489 245 489 247.5 466.5 c 128,-1,77
 250 444 250 444 255 425 c 1,66,67
EndSplineSet
EndChar

StartChar: uni12FC
Encoding: 4860 4860 75
Width: 712
GlyphClass: 2
Flags: W
AnchorPoint: "+BBEENQQ3BEsEPARPBD0EPQQ+BDUA--0" 351 772 basechar 0
LayerCount: 2
Fore
SplineSet
73 61 m 0,0,1
 37 61 37 61 15 77 c 1,2,3
 49 105 49 105 49 160 c 0,4,5
 49 178 49 178 46 193.5 c 128,-1,6
 43 209 43 209 41 216 c 1,7,-1
 267 216 l 1,8,9
 223 263 223 263 194 317.5 c 128,-1,10
 165 372 165 372 165 442 c 0,11,12
 165 619 165 619 325 646 c 1,13,-1
 325 772 l 1,14,-1
 416 772 l 1,15,-1
 416 650 l 1,16,17
 481 643 481 643 517 609.5 c 128,-1,18
 553 576 553 576 553 522 c 0,19,20
 553 466 553 466 518.5 430 c 128,-1,21
 484 394 484 394 423.5 374.5 c 128,-1,22
 363 355 363 355 284 346 c 1,23,24
 299 314 299 314 327 280.5 c 128,-1,25
 355 247 355 247 388 216 c 1,26,-1
 593 216 l 2,27,28
 638 216 638 216 662.5 189.5 c 128,-1,29
 687 163 687 163 687 120 c 0,30,31
 687 88 687 88 673.5 60.5 c 128,-1,32
 660 33 660 33 637 16.5 c 128,-1,33
 614 0 614 0 584 0 c 2,34,-1
 479 0 l 2,35,36
 444 0 444 0 422.5 27.5 c 128,-1,37
 401 55 401 55 401 95 c 0,38,39
 401 136 401 136 420 166 c 1,40,-1
 158 166 l 1,41,42
 159 161 159 161 159.5 155.5 c 128,-1,43
 160 150 160 150 160 143 c 0,44,45
 160 109 160 109 138.5 85 c 128,-1,46
 117 61 117 61 73 61 c 0,0,1
267 392 m 1,47,48
 353 397 353 397 406.5 426.5 c 128,-1,49
 460 456 460 456 460 526 c 0,50,51
 460 565 460 565 435.5 585.5 c 128,-1,52
 411 606 411 606 373 606 c 0,53,54
 314 606 314 606 285.5 568 c 128,-1,55
 257 530 257 530 257 467 c 0,56,57
 257 423 257 423 267 392 c 1,47,48
535 35 m 0,58,59
 569 35 569 35 587.5 60 c 128,-1,60
 606 85 606 85 606 119 c 0,61,62
 606 145 606 145 591.5 161.5 c 128,-1,63
 577 178 577 178 550 178 c 0,64,65
 519 178 519 178 500 156 c 128,-1,66
 481 134 481 134 481 96 c 0,67,68
 481 69 481 69 495.5 52 c 128,-1,69
 510 35 510 35 535 35 c 0,58,59
EndSplineSet
EndChar

StartChar: uniAB0B
Encoding: 43787 43787 76
Width: 709
GlyphClass: 2
Flags: W
AnchorPoint: "+BBEENQQ3BEsEPARPBD0EPQQ+BDUA--0" 354 830 basechar 0
LayerCount: 2
Fore
SplineSet
73 131 m 0,0,1
 37 131 37 131 15 147 c 1,2,3
 49 175 49 175 49 230 c 0,4,5
 49 248 49 248 46 263.5 c 128,-1,6
 43 279 43 279 41 286 c 1,7,-1
 278 286 l 1,8,9
 233 333 233 333 202.5 389 c 128,-1,10
 172 445 172 445 172 517 c 0,11,12
 172 696 172 696 336 722 c 1,13,-1
 336 830 l 1,14,-1
 421 830 l 1,15,-1
 421 725 l 1,16,17
 487 719 487 719 523.5 685 c 128,-1,18
 560 651 560 651 560 597 c 0,19,20
 560 541 560 541 525.5 505 c 128,-1,21
 491 469 491 469 430 449.5 c 128,-1,22
 369 430 369 430 291 421 c 1,23,24
 307 388 307 388 336 353 c 128,-1,25
 365 318 365 318 400 286 c 1,26,-1
 547 286 l 2,27,28
 598 286 598 286 619.5 264 c 128,-1,29
 641 242 641 242 641 202 c 2,30,-1
 641 98 l 2,31,32
 641 65 641 65 654 53.5 c 128,-1,33
 667 42 667 42 694 42 c 1,34,-1
 694 4 l 1,35,-1
 566 -5 l 1,36,37
 547 24 547 24 547 93 c 2,38,-1
 547 182 l 2,39,40
 547 211 547 211 534 223.5 c 128,-1,41
 521 236 521 236 491 236 c 2,42,-1
 158 236 l 1,43,44
 159 231 159 231 159.5 225.5 c 128,-1,45
 160 220 160 220 160 213 c 0,46,47
 160 179 160 179 138.5 155 c 128,-1,48
 117 131 117 131 73 131 c 0,0,1
380 681 m 0,49,50
 335 681 335 681 308 658.5 c 128,-1,51
 281 636 281 636 270 597 c 1,52,-1
 467 597 l 1,53,-1
 467 601 l 2,54,55
 467 640 467 640 442.5 660.5 c 128,-1,56
 418 681 418 681 380 681 c 0,49,50
274 467 m 1,57,58
 344 471 344 471 393 491 c 128,-1,59
 442 511 442 511 459 555 c 1,60,-1
 264 555 l 1,61,62
 264 549 264 549 264 542 c 0,63,64
 264 498 264 498 274 467 c 1,57,58
EndSplineSet
EndChar

StartChar: uniAB0D
Encoding: 43789 43789 77
Width: 790
GlyphClass: 2
Flags: W
AnchorPoint: "+BBEENQQ3BEsEPARPBD0EPQQ+BDUA--0" 395 830 basechar 0
LayerCount: 2
Fore
SplineSet
73 -11 m 0,0,1
 37 -11 37 -11 15 5 c 1,2,3
 49 33 49 33 49 88 c 0,4,5
 49 106 49 106 46 121.5 c 128,-1,6
 43 137 43 137 41 144 c 1,7,-1
 282 144 l 1,8,9
 249 193 249 193 219.5 249.5 c 128,-1,10
 190 306 190 306 171.5 366.5 c 128,-1,11
 153 427 153 427 153 488 c 0,12,13
 153 589 153 589 197 649 c 128,-1,14
 241 709 241 709 326 722 c 1,15,-1
 326 830 l 1,16,-1
 411 830 l 1,17,-1
 411 723 l 1,18,19
 473 714 473 714 507 677 c 128,-1,20
 541 640 541 640 541 585 c 0,21,22
 541 559 541 559 535 536 c 1,23,-1
 749 536 l 1,24,25
 747 529 747 529 744 513.5 c 128,-1,26
 741 498 741 498 741 480 c 0,27,28
 741 425 741 425 775 397 c 1,29,30
 753 381 753 381 717 381 c 0,31,32
 674 381 674 381 652 405 c 128,-1,33
 630 429 630 429 630 463 c 0,34,35
 630 470 630 470 630.5 475.5 c 128,-1,36
 631 481 631 481 632 486 c 1,37,-1
 512 486 l 1,38,39
 479 439 479 439 415 413 c 128,-1,40
 351 387 351 387 269 377 c 1,41,42
 279 346 279 346 297.5 306 c 128,-1,43
 316 266 316 266 339.5 223.5 c 128,-1,44
 363 181 363 181 390 144 c 1,45,-1
 620 144 l 1,46,47
 618 137 618 137 615 121.5 c 128,-1,48
 612 106 612 106 612 88 c 0,49,50
 612 33 612 33 646 5 c 1,51,52
 624 -11 624 -11 588 -11 c 0,53,54
 545 -11 545 -11 523 13 c 128,-1,55
 501 37 501 37 501 71 c 0,56,57
 501 78 501 78 501.5 83.5 c 128,-1,58
 502 89 502 89 503 94 c 1,59,-1
 158 94 l 1,60,61
 159 89 159 89 159.5 83.5 c 128,-1,62
 160 78 160 78 160 71 c 0,63,64
 160 37 160 37 138.5 13 c 128,-1,65
 117 -11 117 -11 73 -11 c 0,0,1
363 679 m 0,66,67
 318 679 318 679 290.5 652 c 128,-1,68
 263 625 263 625 252 580 c 1,69,-1
 448 580 l 1,70,71
 448 580 448 580 448 586 c 0,72,73
 448 631 448 631 425.5 655 c 128,-1,74
 403 679 403 679 363 679 c 0,66,67
255 425 m 1,75,76
 327 430 327 430 376.5 456.5 c 128,-1,77
 426 483 426 483 442 538 c 1,78,-1
 246 538 l 1,79,80
 245 527 245 527 245 514 c 0,81,82
 245 489 245 489 247.5 466.5 c 128,-1,83
 250 444 250 444 255 425 c 1,75,76
EndSplineSet
EndChar

StartChar: uniAB0C
Encoding: 43788 43788 78
Width: 712
GlyphClass: 2
Flags: W
AnchorPoint: "+BBEENQQ3BEsEPARPBD0EPQQ+BDUA--0" 351 772 basechar 0
LayerCount: 2
Fore
SplineSet
73 61 m 0,0,1
 37 61 37 61 15 77 c 1,2,3
 49 105 49 105 49 160 c 0,4,5
 49 178 49 178 46 193.5 c 128,-1,6
 43 209 43 209 41 216 c 1,7,-1
 267 216 l 1,8,9
 223 263 223 263 194 317.5 c 128,-1,10
 165 372 165 372 165 442 c 0,11,12
 165 619 165 619 325 646 c 1,13,-1
 325 772 l 1,14,-1
 416 772 l 1,15,-1
 416 650 l 1,16,17
 481 643 481 643 517 609.5 c 128,-1,18
 553 576 553 576 553 522 c 0,19,20
 553 466 553 466 518.5 430 c 128,-1,21
 484 394 484 394 423.5 374.5 c 128,-1,22
 363 355 363 355 284 346 c 1,23,24
 299 314 299 314 327 280.5 c 128,-1,25
 355 247 355 247 388 216 c 1,26,-1
 593 216 l 2,27,28
 638 216 638 216 662.5 189.5 c 128,-1,29
 687 163 687 163 687 120 c 0,30,31
 687 88 687 88 673.5 60.5 c 128,-1,32
 660 33 660 33 637 16.5 c 128,-1,33
 614 0 614 0 584 0 c 2,34,-1
 479 0 l 2,35,36
 444 0 444 0 422.5 27.5 c 128,-1,37
 401 55 401 55 401 95 c 0,38,39
 401 136 401 136 420 166 c 1,40,-1
 158 166 l 1,41,42
 159 161 159 161 159.5 155.5 c 128,-1,43
 160 150 160 150 160 143 c 0,44,45
 160 109 160 109 138.5 85 c 128,-1,46
 117 61 117 61 73 61 c 0,0,1
373 606 m 0,47,48
 331 606 331 606 304.5 586.5 c 128,-1,49
 278 567 278 567 266 532 c 1,50,-1
 460 532 l 1,51,52
 458 568 458 568 434 587 c 128,-1,53
 410 606 410 606 373 606 c 0,47,48
267 392 m 1,54,55
 341 397 341 397 391.5 418.5 c 128,-1,56
 442 440 442 440 455 490 c 1,57,-1
 258 490 l 1,58,59
 257 479 257 479 257 467 c 0,60,61
 257 423 257 423 267 392 c 1,54,55
535 35 m 0,62,63
 569 35 569 35 587.5 60 c 128,-1,64
 606 85 606 85 606 119 c 0,65,66
 606 145 606 145 591.5 161.5 c 128,-1,67
 577 178 577 178 550 178 c 0,68,69
 519 178 519 178 500 156 c 128,-1,70
 481 134 481 134 481 96 c 0,71,72
 481 69 481 69 495.5 52 c 128,-1,73
 510 35 510 35 535 35 c 0,62,63
EndSplineSet
EndChar

StartChar: uniAB0A
Encoding: 43786 43786 79
Width: 920
GlyphClass: 2
Flags: W
AnchorPoint: "+BBEENQQ3BEsEPARPBD0EPQQ+BDUA--0" 460 830 basechar 0
LayerCount: 2
Fore
SplineSet
73 131 m 0,0,1
 37 131 37 131 15 147 c 1,2,3
 49 175 49 175 49 230 c 0,4,5
 49 248 49 248 46 263.5 c 128,-1,6
 43 279 43 279 41 286 c 1,7,-1
 278 286 l 1,8,9
 233 333 233 333 202.5 389 c 128,-1,10
 172 445 172 445 172 517 c 0,11,12
 172 696 172 696 336 722 c 1,13,-1
 336 830 l 1,14,-1
 421 830 l 1,15,-1
 421 725 l 1,16,17
 487 719 487 719 523.5 685 c 128,-1,18
 560 651 560 651 560 597 c 0,19,20
 560 541 560 541 525.5 505 c 128,-1,21
 491 469 491 469 430 449.5 c 128,-1,22
 369 430 369 430 291 421 c 1,23,24
 307 388 307 388 336 353 c 128,-1,25
 365 318 365 318 400 286 c 1,26,-1
 547 286 l 2,27,28
 598 286 598 286 619.5 264 c 128,-1,29
 641 242 641 242 641 202 c 2,30,-1
 641 106 l 2,31,32
 641 73 641 73 654 61.5 c 128,-1,33
 667 50 667 50 694 50 c 2,34,-1
 764 50 l 1,35,36
 769 76 769 76 789 95.5 c 128,-1,37
 809 115 809 115 849 115 c 0,38,39
 867 115 867 115 882.5 110.5 c 128,-1,40
 898 106 898 106 905 101 c 1,41,42
 889 85 889 85 881.5 67 c 128,-1,43
 874 49 874 49 874 23 c 0,44,45
 874 -4 874 -4 883 -22 c 128,-1,46
 892 -40 892 -40 905 -51 c 1,47,48
 898 -57 898 -57 882.5 -62 c 128,-1,49
 867 -67 867 -67 849 -67 c 0,50,51
 809 -67 809 -67 789 -47 c 128,-1,52
 769 -27 769 -27 764 0 c 1,53,-1
 566 0 l 1,54,55
 556 16 556 16 551.5 38.5 c 128,-1,56
 547 61 547 61 547 93 c 2,57,-1
 547 182 l 2,58,59
 547 211 547 211 534 223.5 c 128,-1,60
 521 236 521 236 491 236 c 2,61,-1
 158 236 l 1,62,63
 159 231 159 231 159.5 225.5 c 128,-1,64
 160 220 160 220 160 213 c 0,65,66
 160 179 160 179 138.5 155 c 128,-1,67
 117 131 117 131 73 131 c 0,0,1
380 681 m 0,68,69
 335 681 335 681 308 658.5 c 128,-1,70
 281 636 281 636 270 597 c 1,71,-1
 467 597 l 1,72,-1
 467 601 l 2,73,74
 467 640 467 640 442.5 660.5 c 128,-1,75
 418 681 418 681 380 681 c 0,68,69
274 467 m 1,76,77
 344 471 344 471 393 491 c 128,-1,78
 442 511 442 511 459 555 c 1,79,-1
 264 555 l 1,80,81
 264 549 264 549 264 542 c 0,82,83
 264 498 264 498 274 467 c 1,76,77
EndSplineSet
EndChar

StartChar: uniAB0E
Encoding: 43790 43790 80
Width: 726
GlyphClass: 2
Flags: W
AnchorPoint: "+BBEENQQ3BEsEPARPBD0EPQQ+BDUA--0" 378 830 basechar 0
LayerCount: 2
Fore
SplineSet
64 -5 m 1,0,1
 45 27 45 27 45 71 c 2,2,-1
 45 87 l 2,3,4
 45 170 45 170 103 220.5 c 128,-1,5
 161 271 161 271 283 271 c 2,6,-1
 312 271 l 1,7,8
 261 321 261 321 226 380.5 c 128,-1,9
 191 440 191 440 191 517 c 0,10,11
 191 693 191 693 349 721 c 1,12,-1
 349 830 l 1,13,-1
 434 830 l 1,14,-1
 434 725 l 1,15,16
 503 720 503 720 541 686.5 c 128,-1,17
 579 653 579 653 579 597 c 256,18,19
 579 541 579 541 544.5 505 c 128,-1,20
 510 469 510 469 449.5 449.5 c 128,-1,21
 389 430 389 430 310 421 c 1,22,23
 328 384 328 384 362 345 c 128,-1,24
 396 306 396 306 435 271 c 1,25,-1
 685 271 l 1,26,27
 683 264 683 264 680 248.5 c 128,-1,28
 677 233 677 233 677 215 c 0,29,30
 677 160 677 160 711 132 c 1,31,32
 689 116 689 116 653 116 c 0,33,34
 610 116 610 116 588 140 c 128,-1,35
 566 164 566 164 566 198 c 0,36,37
 566 205 566 205 566.5 210.5 c 128,-1,38
 567 216 567 216 568 221 c 1,39,-1
 298 221 l 2,40,41
 210 221 210 221 175.5 190 c 128,-1,42
 141 159 141 159 141 106 c 2,43,-1
 141 98 l 2,44,45
 141 67 141 67 155 55 c 128,-1,46
 169 43 169 43 199 43 c 1,47,-1
 199 4 l 1,48,-1
 64 -5 l 1,0,1
399 681 m 0,49,50
 355 681 355 681 328 659.5 c 128,-1,51
 301 638 301 638 290 600 c 1,52,-1
 486 600 l 1,53,-1
 486 601 l 2,54,55
 486 640 486 640 461.5 660.5 c 128,-1,56
 437 681 437 681 399 681 c 0,49,50
293 467 m 1,57,58
 364 471 364 471 413.5 491.5 c 128,-1,59
 463 512 463 512 479 558 c 1,60,-1
 283 558 l 1,61,62
 283 551 283 551 283 542 c 0,63,64
 283 498 283 498 293 467 c 1,57,58
EndSplineSet
EndChar

StartChar: uniAB09
Encoding: 43785 43785 81
Width: 905
GlyphClass: 2
Flags: W
AnchorPoint: "+BBEENQQ3BEsEPARPBD0EPQQ+BDUA--0" 452 830 basechar 0
LayerCount: 2
Fore
SplineSet
73 131 m 0,0,1
 37 131 37 131 15 147 c 1,2,3
 49 175 49 175 49 230 c 0,4,5
 49 248 49 248 46 263.5 c 128,-1,6
 43 279 43 279 41 286 c 1,7,-1
 278 286 l 1,8,9
 233 333 233 333 202.5 389 c 128,-1,10
 172 445 172 445 172 517 c 0,11,12
 172 696 172 696 336 722 c 1,13,-1
 336 830 l 1,14,-1
 421 830 l 1,15,-1
 421 725 l 1,16,17
 487 719 487 719 523.5 685 c 128,-1,18
 560 651 560 651 560 597 c 0,19,20
 560 541 560 541 525.5 505 c 128,-1,21
 491 469 491 469 430 449.5 c 128,-1,22
 369 430 369 430 291 421 c 1,23,24
 307 388 307 388 336 353 c 128,-1,25
 365 318 365 318 400 286 c 1,26,-1
 547 286 l 2,27,28
 598 286 598 286 619.5 264 c 128,-1,29
 641 242 641 242 641 202 c 2,30,-1
 641 191 l 1,31,-1
 864 191 l 1,32,33
 862 184 862 184 859 168.5 c 128,-1,34
 856 153 856 153 856 135 c 0,35,36
 856 80 856 80 890 52 c 1,37,38
 868 36 868 36 832 36 c 0,39,40
 789 36 789 36 767 60 c 128,-1,41
 745 84 745 84 745 118 c 0,42,43
 745 125 745 125 745.5 130.5 c 128,-1,44
 746 136 746 136 747 141 c 1,45,-1
 641 141 l 1,46,-1
 641 98 l 2,47,48
 641 65 641 65 654 53.5 c 128,-1,49
 667 42 667 42 694 42 c 1,50,-1
 694 4 l 1,51,-1
 566 -5 l 1,52,53
 547 24 547 24 547 93 c 2,54,-1
 547 182 l 2,55,56
 547 211 547 211 534 223.5 c 128,-1,57
 521 236 521 236 491 236 c 2,58,-1
 158 236 l 1,59,60
 159 231 159 231 159.5 225.5 c 128,-1,61
 160 220 160 220 160 213 c 0,62,63
 160 179 160 179 138.5 155 c 128,-1,64
 117 131 117 131 73 131 c 0,0,1
380 681 m 0,65,66
 335 681 335 681 308 658.5 c 128,-1,67
 281 636 281 636 270 597 c 1,68,-1
 467 597 l 1,69,-1
 467 601 l 2,70,71
 467 640 467 640 442.5 660.5 c 128,-1,72
 418 681 418 681 380 681 c 0,65,66
274 467 m 1,73,74
 344 471 344 471 393 491 c 128,-1,75
 442 511 442 511 459 555 c 1,76,-1
 264 555 l 1,77,78
 264 549 264 549 264 542 c 0,79,80
 264 498 264 498 274 467 c 1,73,74
EndSplineSet
EndChar

StartChar: uni12FA
Encoding: 4858 4858 82
Width: 910
GlyphClass: 2
Flags: W
AnchorPoint: "+BBEENQQ3BEsEPARPBD0EPQQ+BDUA--0" 450 830 basechar 0
LayerCount: 2
Fore
SplineSet
63 131 m 0,0,1
 27 131 27 131 5 147 c 1,2,3
 39 175 39 175 39 230 c 0,4,5
 39 248 39 248 36 263.5 c 128,-1,6
 33 279 33 279 31 286 c 1,7,-1
 268 286 l 1,8,9
 223 333 223 333 192.5 389 c 128,-1,10
 162 445 162 445 162 517 c 0,11,12
 162 696 162 696 326 722 c 1,13,-1
 326 830 l 1,14,-1
 411 830 l 1,15,-1
 411 725 l 1,16,17
 477 719 477 719 513.5 685 c 128,-1,18
 550 651 550 651 550 597 c 0,19,20
 550 541 550 541 515.5 505 c 128,-1,21
 481 469 481 469 420.5 449.5 c 128,-1,22
 360 430 360 430 281 421 c 1,23,24
 297 388 297 388 326 353 c 128,-1,25
 355 318 355 318 390 286 c 1,26,-1
 537 286 l 2,27,28
 588 286 588 286 609.5 264 c 128,-1,29
 631 242 631 242 631 202 c 2,30,-1
 631 106 l 2,31,32
 631 73 631 73 644 61.5 c 128,-1,33
 657 50 657 50 684 50 c 2,34,-1
 754 50 l 1,35,36
 759 76 759 76 779 95.5 c 128,-1,37
 799 115 799 115 839 115 c 0,38,39
 857 115 857 115 872.5 110.5 c 128,-1,40
 888 106 888 106 895 101 c 1,41,42
 879 85 879 85 871.5 67 c 128,-1,43
 864 49 864 49 864 23 c 0,44,45
 864 -4 864 -4 873 -22 c 128,-1,46
 882 -40 882 -40 895 -51 c 1,47,48
 888 -57 888 -57 872.5 -62 c 128,-1,49
 857 -67 857 -67 839 -67 c 0,50,51
 799 -67 799 -67 779 -47 c 128,-1,52
 759 -27 759 -27 754 0 c 1,53,-1
 556 0 l 1,54,55
 546 16 546 16 541.5 38.5 c 128,-1,56
 537 61 537 61 537 93 c 2,57,-1
 537 182 l 2,58,59
 537 211 537 211 524 223.5 c 128,-1,60
 511 236 511 236 481 236 c 2,61,-1
 148 236 l 1,62,63
 149 231 149 231 149.5 225.5 c 128,-1,64
 150 220 150 220 150 213 c 0,65,66
 150 179 150 179 128.5 155 c 128,-1,67
 107 131 107 131 63 131 c 0,0,1
264 467 m 1,68,69
 350 472 350 472 403.5 501.5 c 128,-1,70
 457 531 457 531 457 601 c 0,71,72
 457 640 457 640 432.5 660.5 c 128,-1,73
 408 681 408 681 370 681 c 0,74,75
 311 681 311 681 282.5 643 c 128,-1,76
 254 605 254 605 254 542 c 0,77,78
 254 498 254 498 264 467 c 1,68,69
EndSplineSet
EndChar

StartChar: uni12FE
Encoding: 4862 4862 83
Width: 726
GlyphClass: 2
Flags: W
AnchorPoint: "+BBEENQQ3BEsEPARPBD0EPQQ+BDUA--0" 378 830 basechar 0
LayerCount: 2
Fore
SplineSet
64 -5 m 1,0,1
 45 27 45 27 45 71 c 2,2,-1
 45 87 l 2,3,4
 45 170 45 170 103 220.5 c 128,-1,5
 161 271 161 271 283 271 c 2,6,-1
 312 271 l 1,7,8
 261 321 261 321 226 380.5 c 128,-1,9
 191 440 191 440 191 517 c 0,10,11
 191 693 191 693 349 721 c 1,12,-1
 349 830 l 1,13,-1
 434 830 l 1,14,-1
 434 725 l 1,15,16
 503 720 503 720 541 686.5 c 128,-1,17
 579 653 579 653 579 597 c 256,18,19
 579 541 579 541 544.5 505 c 128,-1,20
 510 469 510 469 449.5 449.5 c 128,-1,21
 389 430 389 430 310 421 c 1,22,23
 328 384 328 384 362 345 c 128,-1,24
 396 306 396 306 435 271 c 1,25,-1
 685 271 l 1,26,27
 683 264 683 264 680 248.5 c 128,-1,28
 677 233 677 233 677 215 c 0,29,30
 677 160 677 160 711 132 c 1,31,32
 689 116 689 116 653 116 c 0,33,34
 610 116 610 116 588 140 c 128,-1,35
 566 164 566 164 566 198 c 0,36,37
 566 205 566 205 566.5 210.5 c 128,-1,38
 567 216 567 216 568 221 c 1,39,-1
 298 221 l 2,40,41
 210 221 210 221 175.5 190 c 128,-1,42
 141 159 141 159 141 106 c 2,43,-1
 141 98 l 2,44,45
 141 67 141 67 155 55 c 128,-1,46
 169 43 169 43 199 43 c 1,47,-1
 199 4 l 1,48,-1
 64 -5 l 1,0,1
293 467 m 1,49,50
 379 472 379 472 432.5 501.5 c 128,-1,51
 486 531 486 531 486 601 c 0,52,53
 486 640 486 640 461.5 660.5 c 128,-1,54
 437 681 437 681 399 681 c 0,55,56
 340 681 340 681 311.5 643 c 128,-1,57
 283 605 283 605 283 542 c 0,58,59
 283 498 283 498 293 467 c 1,49,50
EndSplineSet
EndChar

StartChar: uni2D8D
Encoding: 11661 11661 84
Width: 805
GlyphClass: 2
Flags: W
AnchorPoint: "+BBEENQQ3BEsEPARPBD0EPQQ+BDUA--0" 402 830 basechar 0
LayerCount: 2
Fore
SplineSet
143 -5 m 1,0,1
 124 27 124 27 124 71 c 2,2,-1
 124 87 l 2,3,4
 124 170 124 170 182 220.5 c 128,-1,5
 240 271 240 271 362 271 c 2,6,-1
 391 271 l 1,7,8
 349 312 349 312 317 359.5 c 128,-1,9
 285 407 285 407 275 465 c 1,10,-1
 156 465 l 1,11,12
 151 438 151 438 131 418 c 128,-1,13
 111 398 111 398 71 398 c 0,14,15
 53 398 53 398 38 403 c 128,-1,16
 23 408 23 408 15 414 c 1,17,18
 28 425 28 425 37 443 c 128,-1,19
 46 461 46 461 46 488 c 0,20,21
 46 514 46 514 38.5 532 c 128,-1,22
 31 550 31 550 15 566 c 1,23,24
 23 571 23 571 38 575.5 c 128,-1,25
 53 580 53 580 71 580 c 0,26,27
 111 580 111 580 131.5 560.5 c 128,-1,28
 152 541 152 541 156 515 c 1,29,-1
 270 515 l 1,30,-1
 270 517 l 2,31,32
 270 693 270 693 428 721 c 1,33,-1
 428 830 l 1,34,-1
 513 830 l 1,35,-1
 513 725 l 1,36,37
 582 720 582 720 620 686.5 c 128,-1,38
 658 653 658 653 658 597 c 256,39,40
 658 541 658 541 623.5 505 c 128,-1,41
 589 469 589 469 528.5 449.5 c 128,-1,42
 468 430 468 430 389 421 c 1,43,44
 407 384 407 384 441 345 c 128,-1,45
 475 306 475 306 514 271 c 1,46,-1
 764 271 l 1,47,48
 762 264 762 264 759 248.5 c 128,-1,49
 756 233 756 233 756 215 c 0,50,51
 756 160 756 160 790 132 c 1,52,53
 768 116 768 116 732 116 c 0,54,55
 689 116 689 116 667 140 c 128,-1,56
 645 164 645 164 645 198 c 0,57,58
 645 205 645 205 645.5 210.5 c 128,-1,59
 646 216 646 216 647 221 c 1,60,-1
 377 221 l 2,61,62
 289 221 289 221 254.5 190 c 128,-1,63
 220 159 220 159 220 106 c 2,64,-1
 220 98 l 2,65,66
 220 67 220 67 234 55 c 128,-1,67
 248 43 248 43 278 43 c 1,68,-1
 278 4 l 1,69,-1
 143 -5 l 1,0,1
372 467 m 1,70,71
 458 472 458 472 511.5 501.5 c 128,-1,72
 565 531 565 531 565 601 c 0,73,74
 565 640 565 640 540.5 660.5 c 128,-1,75
 516 681 516 681 478 681 c 0,76,77
 419 681 419 681 390.5 643 c 128,-1,78
 362 605 362 605 362 542 c 0,79,80
 362 498 362 498 372 467 c 1,70,71
EndSplineSet
EndChar

StartChar: uni12F9
Encoding: 4857 4857 85
Width: 895
GlyphClass: 2
Flags: W
AnchorPoint: "+BBEENQQ3BEsEPARPBD0EPQQ+BDUA--0" 442 830 basechar 0
LayerCount: 2
Fore
SplineSet
63 131 m 0,0,1
 27 131 27 131 5 147 c 1,2,3
 39 175 39 175 39 230 c 0,4,5
 39 248 39 248 36 263.5 c 128,-1,6
 33 279 33 279 31 286 c 1,7,-1
 268 286 l 1,8,9
 223 333 223 333 192.5 389 c 128,-1,10
 162 445 162 445 162 517 c 0,11,12
 162 696 162 696 326 722 c 1,13,-1
 326 830 l 1,14,-1
 411 830 l 1,15,-1
 411 725 l 1,16,17
 477 719 477 719 513.5 685 c 128,-1,18
 550 651 550 651 550 597 c 0,19,20
 550 541 550 541 515.5 505 c 128,-1,21
 481 469 481 469 420.5 449.5 c 128,-1,22
 360 430 360 430 281 421 c 1,23,24
 297 388 297 388 326 353 c 128,-1,25
 355 318 355 318 390 286 c 1,26,-1
 537 286 l 2,27,28
 588 286 588 286 609.5 264 c 128,-1,29
 631 242 631 242 631 202 c 2,30,-1
 631 191 l 1,31,-1
 854 191 l 1,32,33
 852 184 852 184 849 168.5 c 128,-1,34
 846 153 846 153 846 135 c 0,35,36
 846 80 846 80 880 52 c 1,37,38
 858 36 858 36 822 36 c 0,39,40
 779 36 779 36 757 60 c 128,-1,41
 735 84 735 84 735 118 c 0,42,43
 735 125 735 125 735.5 130.5 c 128,-1,44
 736 136 736 136 737 141 c 1,45,-1
 631 141 l 1,46,-1
 631 98 l 2,47,48
 631 65 631 65 644 53.5 c 128,-1,49
 657 42 657 42 684 42 c 1,50,-1
 684 4 l 1,51,-1
 556 -5 l 1,52,53
 537 24 537 24 537 93 c 2,54,-1
 537 182 l 2,55,56
 537 211 537 211 524 223.5 c 128,-1,57
 511 236 511 236 481 236 c 2,58,-1
 148 236 l 1,59,60
 149 231 149 231 149.5 225.5 c 128,-1,61
 150 220 150 220 150 213 c 0,62,63
 150 179 150 179 128.5 155 c 128,-1,64
 107 131 107 131 63 131 c 0,0,1
264 467 m 1,65,66
 350 472 350 472 403.5 501.5 c 128,-1,67
 457 531 457 531 457 601 c 0,68,69
 457 640 457 640 432.5 660.5 c 128,-1,70
 408 681 408 681 370 681 c 0,71,72
 311 681 311 681 282.5 643 c 128,-1,73
 254 605 254 605 254 542 c 0,74,75
 254 498 254 498 264 467 c 1,65,66
EndSplineSet
EndChar

StartChar: uni12FF
Encoding: 4863 4863 86
Width: 932
GlyphClass: 2
Flags: W
AnchorPoint: "+BBEENQQ3BEsEPARPBD0EPQQ+BDUA--0" 461 830 basechar 0
LayerCount: 2
Fore
SplineSet
63 131 m 0,0,1
 27 131 27 131 5 147 c 1,2,3
 39 175 39 175 39 230 c 0,4,5
 39 248 39 248 36 263.5 c 128,-1,6
 33 279 33 279 31 286 c 1,7,-1
 271 286 l 1,8,9
 226 333 226 333 195.5 389 c 128,-1,10
 165 445 165 445 165 517 c 0,11,12
 165 694 165 694 326 721 c 1,13,-1
 326 830 l 1,14,-1
 411 830 l 1,15,-1
 411 725 l 1,16,17
 478 720 478 720 515.5 686 c 128,-1,18
 553 652 553 652 553 597 c 0,19,20
 553 541 553 541 518.5 505 c 128,-1,21
 484 469 484 469 423.5 449.5 c 128,-1,22
 363 430 363 430 284 421 c 1,23,24
 300 388 300 388 329 353 c 128,-1,25
 358 318 358 318 393 286 c 1,26,-1
 557 286 l 2,27,28
 608 286 608 286 629.5 264 c 128,-1,29
 651 242 651 242 651 202 c 2,30,-1
 651 106 l 2,31,32
 651 73 651 73 664 61.5 c 128,-1,33
 677 50 677 50 704 50 c 2,34,-1
 891 50 l 1,35,36
 889 43 889 43 886 27.5 c 128,-1,37
 883 12 883 12 883 -6 c 0,38,39
 883 -61 883 -61 917 -89 c 1,40,41
 895 -105 895 -105 859 -105 c 0,42,43
 816 -105 816 -105 794 -81 c 128,-1,44
 772 -57 772 -57 772 -23 c 0,45,46
 772 -16 772 -16 772.5 -10.5 c 128,-1,47
 773 -5 773 -5 774 0 c 1,48,-1
 429 0 l 1,49,50
 430 -5 430 -5 430.5 -10.5 c 128,-1,51
 431 -16 431 -16 431 -23 c 0,52,53
 431 -57 431 -57 409.5 -81 c 128,-1,54
 388 -105 388 -105 344 -105 c 0,55,56
 308 -105 308 -105 286 -89 c 1,57,58
 320 -61 320 -61 320 -6 c 0,59,60
 320 12 320 12 317 27.5 c 128,-1,61
 314 43 314 43 312 50 c 1,62,-1
 559 50 l 1,63,64
 557 68 557 68 557 93 c 2,65,-1
 557 182 l 2,66,67
 557 211 557 211 544 223.5 c 128,-1,68
 531 236 531 236 501 236 c 2,69,-1
 148 236 l 1,70,71
 149 231 149 231 149.5 225.5 c 128,-1,72
 150 220 150 220 150 213 c 0,73,74
 150 179 150 179 128.5 155 c 128,-1,75
 107 131 107 131 63 131 c 0,0,1
267 467 m 1,76,77
 353 472 353 472 406.5 501.5 c 128,-1,78
 460 531 460 531 460 601 c 0,79,80
 460 640 460 640 435.5 660.5 c 128,-1,81
 411 681 411 681 373 681 c 0,82,83
 314 681 314 681 285.5 643 c 128,-1,84
 257 605 257 605 257 542 c 0,85,86
 257 498 257 498 267 467 c 1,76,77
EndSplineSet
EndChar

StartChar: uni12F5
Encoding: 4853 4853 87
Width: 787
GlyphClass: 2
Flags: W
AnchorPoint: "+BBEENQQ3BEsEPARPBD0EPQQ+BDUA--0" 398 726 basechar 0
LayerCount: 2
Fore
SplineSet
73 -11 m 0,0,1
 37 -11 37 -11 15 5 c 1,2,3
 49 33 49 33 49 88 c 0,4,5
 49 106 49 106 46 121.5 c 128,-1,6
 43 137 43 137 41 144 c 1,7,-1
 282 144 l 1,8,9
 249 193 249 193 219.5 249.5 c 128,-1,10
 190 306 190 306 171.5 366.5 c 128,-1,11
 153 427 153 427 153 488 c 0,12,13
 153 603 153 603 209.5 664.5 c 128,-1,14
 266 726 266 726 374 726 c 0,15,16
 453 726 453 726 497 687 c 128,-1,17
 541 648 541 648 541 585 c 0,18,19
 541 583 541 583 541 582 c 1,20,-1
 756 582 l 1,21,22
 754 575 754 575 751 559.5 c 128,-1,23
 748 544 748 544 748 526 c 0,24,25
 748 471 748 471 782 443 c 1,26,27
 760 427 760 427 724 427 c 0,28,29
 681 427 681 427 659 451 c 128,-1,30
 637 475 637 475 637 509 c 0,31,32
 637 516 637 516 637.5 521.5 c 128,-1,33
 638 527 638 527 639 532 c 1,34,-1
 534 532 l 1,35,36
 513 462 513 462 441 426 c 128,-1,37
 369 390 369 390 269 377 c 1,38,39
 279 346 279 346 297.5 306 c 128,-1,40
 316 266 316 266 339.5 223.5 c 128,-1,41
 363 181 363 181 390 144 c 1,42,-1
 620 144 l 1,43,44
 618 137 618 137 615 121.5 c 128,-1,45
 612 106 612 106 612 88 c 0,46,47
 612 33 612 33 646 5 c 1,48,49
 624 -11 624 -11 588 -11 c 0,50,51
 545 -11 545 -11 523 13 c 128,-1,52
 501 37 501 37 501 71 c 0,53,54
 501 78 501 78 501.5 83.5 c 128,-1,55
 502 89 502 89 503 94 c 1,56,-1
 158 94 l 1,57,58
 159 89 159 89 159.5 83.5 c 128,-1,59
 160 78 160 78 160 71 c 0,60,61
 160 37 160 37 138.5 13 c 128,-1,62
 117 -11 117 -11 73 -11 c 0,0,1
255 425 m 1,63,64
 341 431 341 431 394.5 468.5 c 128,-1,65
 448 506 448 506 448 586 c 0,66,67
 448 631 448 631 425.5 655 c 128,-1,68
 403 679 403 679 363 679 c 0,69,70
 304 679 304 679 274.5 633 c 128,-1,71
 245 587 245 587 245 514 c 0,72,73
 245 489 245 489 247.5 466.5 c 128,-1,74
 250 444 250 444 255 425 c 1,63,64
EndSplineSet
EndChar

StartChar: uni12F4
Encoding: 4852 4852 88
Width: 712
GlyphClass: 2
Flags: W
AnchorPoint: "+BBEENQQ3BEsEPARPBD0EPQQ+BDUA--0" 351 651 basechar 0
LayerCount: 2
Fore
SplineSet
73 61 m 0,0,1
 37 61 37 61 15 77 c 1,2,3
 49 105 49 105 49 160 c 0,4,5
 49 178 49 178 46 193.5 c 128,-1,6
 43 209 43 209 41 216 c 1,7,-1
 267 216 l 1,8,9
 223 263 223 263 194 317.5 c 128,-1,10
 165 372 165 372 165 442 c 0,11,12
 165 545 165 545 220.5 598 c 128,-1,13
 276 651 276 651 386 651 c 0,14,15
 465 651 465 651 509 616.5 c 128,-1,16
 553 582 553 582 553 522 c 0,17,18
 553 466 553 466 518.5 430 c 128,-1,19
 484 394 484 394 423.5 374.5 c 128,-1,20
 363 355 363 355 284 346 c 1,21,22
 299 314 299 314 327 280.5 c 128,-1,23
 355 247 355 247 388 216 c 1,24,-1
 593 216 l 2,25,26
 638 216 638 216 662.5 189.5 c 128,-1,27
 687 163 687 163 687 120 c 0,28,29
 687 88 687 88 673.5 60.5 c 128,-1,30
 660 33 660 33 637 16.5 c 128,-1,31
 614 0 614 0 584 0 c 2,32,-1
 479 0 l 2,33,34
 444 0 444 0 422.5 27.5 c 128,-1,35
 401 55 401 55 401 95 c 0,36,37
 401 136 401 136 420 166 c 1,38,-1
 158 166 l 1,39,40
 159 161 159 161 159.5 155.5 c 128,-1,41
 160 150 160 150 160 143 c 0,42,43
 160 109 160 109 138.5 85 c 128,-1,44
 117 61 117 61 73 61 c 0,0,1
267 392 m 1,45,46
 353 397 353 397 406.5 426.5 c 128,-1,47
 460 456 460 456 460 526 c 0,48,49
 460 565 460 565 435.5 585.5 c 128,-1,50
 411 606 411 606 373 606 c 0,51,52
 314 606 314 606 285.5 568 c 128,-1,53
 257 530 257 530 257 467 c 0,54,55
 257 423 257 423 267 392 c 1,45,46
535 35 m 0,56,57
 569 35 569 35 587.5 60 c 128,-1,58
 606 85 606 85 606 119 c 0,59,60
 606 145 606 145 591.5 161.5 c 128,-1,61
 577 178 577 178 550 178 c 0,62,63
 519 178 519 178 500 156 c 128,-1,64
 481 134 481 134 481 96 c 0,65,66
 481 69 481 69 495.5 52 c 128,-1,67
 510 35 510 35 535 35 c 0,56,57
EndSplineSet
EndChar

StartChar: uni1391
Encoding: 5009 5009 89
Width: 483
Flags: W
LayerCount: 2
Fore
SplineSet
241 0 m 0,0,1
 191 0 191 0 152.5 16 c 128,-1,2
 114 32 114 32 92.5 72.5 c 128,-1,3
 71 113 71 113 71 184 c 2,4,-1
 71 213 l 1,5,-1
 162 213 l 1,6,-1
 162 187 l 2,7,8
 162 120 162 120 183 93 c 128,-1,9
 204 66 204 66 241 66 c 0,10,11
 279 66 279 66 300 93 c 128,-1,12
 321 120 321 120 321 187 c 2,13,-1
 321 213 l 1,14,-1
 412 213 l 1,15,-1
 412 184 l 2,16,17
 412 103 412 103 372.5 51.5 c 128,-1,18
 333 0 333 0 241 0 c 0,0,1
EndSplineSet
EndChar

StartChar: uni1398
Encoding: 5016 5016 90
Width: 929
Flags: W
LayerCount: 2
Fore
SplineSet
241 0 m 2,0,1
 191 0 191 0 152.5 16 c 128,-1,2
 114 32 114 32 92.5 72.5 c 128,-1,3
 71 113 71 113 71 184 c 2,4,-1
 71 213 l 1,5,-1
 162 213 l 1,6,-1
 162 187 l 2,7,8
 162 120 162 120 183 93 c 128,-1,9
 204 66 204 66 241 66 c 0,10,11
 279 66 279 66 300 93 c 128,-1,12
 321 120 321 120 321 187 c 2,13,-1
 321 213 l 1,14,-1
 412 213 l 1,15,-1
 412 184 l 2,16,17
 412 149 412 149 405 119 c 128,-1,18
 398 89 398 89 383 66 c 1,19,-1
 879 66 l 1,20,-1
 879 0 l 1,21,-1
 241 0 l 2,0,1
EndSplineSet
EndChar

StartChar: uni12F2
Encoding: 4850 4850 91
Width: 910
GlyphClass: 2
Flags: W
AnchorPoint: "+BBEENQQ3BEsEPARPBD0EPQQ+BDUA--0" 450 726 basechar 0
LayerCount: 2
Fore
SplineSet
63 131 m 0,0,1
 27 131 27 131 5 147 c 1,2,3
 39 175 39 175 39 230 c 0,4,5
 39 248 39 248 36 263.5 c 128,-1,6
 33 279 33 279 31 286 c 1,7,-1
 268 286 l 1,8,9
 223 333 223 333 192.5 389 c 128,-1,10
 162 445 162 445 162 517 c 0,11,12
 162 620 162 620 217.5 673 c 128,-1,13
 273 726 273 726 383 726 c 0,14,15
 462 726 462 726 506 691.5 c 128,-1,16
 550 657 550 657 550 597 c 0,17,18
 550 541 550 541 515.5 505 c 128,-1,19
 481 469 481 469 420.5 449.5 c 128,-1,20
 360 430 360 430 281 421 c 1,21,22
 297 388 297 388 326 353 c 128,-1,23
 355 318 355 318 390 286 c 1,24,-1
 537 286 l 2,25,26
 588 286 588 286 609.5 264 c 128,-1,27
 631 242 631 242 631 202 c 2,28,-1
 631 106 l 2,29,30
 631 73 631 73 644 61.5 c 128,-1,31
 657 50 657 50 684 50 c 2,32,-1
 754 50 l 1,33,34
 759 76 759 76 779 95.5 c 128,-1,35
 799 115 799 115 839 115 c 0,36,37
 857 115 857 115 872.5 110.5 c 128,-1,38
 888 106 888 106 895 101 c 1,39,40
 879 85 879 85 871.5 67 c 128,-1,41
 864 49 864 49 864 23 c 0,42,43
 864 -4 864 -4 873 -22 c 128,-1,44
 882 -40 882 -40 895 -51 c 1,45,46
 888 -57 888 -57 872.5 -62 c 128,-1,47
 857 -67 857 -67 839 -67 c 0,48,49
 799 -67 799 -67 779 -47 c 128,-1,50
 759 -27 759 -27 754 0 c 1,51,-1
 556 0 l 1,52,53
 546 16 546 16 541.5 38.5 c 128,-1,54
 537 61 537 61 537 93 c 2,55,-1
 537 182 l 2,56,57
 537 211 537 211 524 223.5 c 128,-1,58
 511 236 511 236 481 236 c 2,59,-1
 148 236 l 1,60,61
 149 231 149 231 149.5 225.5 c 128,-1,62
 150 220 150 220 150 213 c 0,63,64
 150 179 150 179 128.5 155 c 128,-1,65
 107 131 107 131 63 131 c 0,0,1
264 467 m 1,66,67
 350 472 350 472 403.5 501.5 c 128,-1,68
 457 531 457 531 457 601 c 0,69,70
 457 640 457 640 432.5 660.5 c 128,-1,71
 408 681 408 681 370 681 c 0,72,73
 311 681 311 681 282.5 643 c 128,-1,74
 254 605 254 605 254 542 c 0,75,76
 254 498 254 498 264 467 c 1,66,67
EndSplineSet
EndChar

StartChar: uni0308
Encoding: 776 776 92
Width: 0
GlyphClass: 4
Flags: W
AnchorPoint: "+BBEENQQ3BEsEPARPBD0EPQQ+BDUA--1" 0 744 basemark 0
AnchorPoint: "+BBEENQQ3BEsEPARPBD0EPQQ+BDUA--1" 0 536 mark 0
AnchorPoint: "+BBEENQQ3BEsEPARPBD0EPQQ+BDUA--0" 0 536 mark 0
LayerCount: 2
Fore
SplineSet
95 632 m 0,0,1
 73 632 73 632 58.5 644.5 c 128,-1,2
 44 657 44 657 44 688 c 0,3,4
 44 720 44 720 58.5 732 c 128,-1,5
 73 744 73 744 95 744 c 0,6,7
 116 744 116 744 131 732 c 128,-1,8
 146 720 146 720 146 688 c 0,9,10
 146 657 146 657 131 644.5 c 128,-1,11
 116 632 116 632 95 632 c 0,0,1
-95 632 m 0,12,13
 -117 632 -117 632 -131.5 644.5 c 128,-1,14
 -146 657 -146 657 -146 688 c 0,15,16
 -146 720 -146 720 -131.5 732 c 128,-1,17
 -117 744 -117 744 -95 744 c 0,18,19
 -74 744 -74 744 -59 732 c 128,-1,20
 -44 720 -44 720 -44 688 c 0,21,22
 -44 657 -44 657 -59 644.5 c 128,-1,23
 -74 632 -74 632 -95 632 c 0,12,13
EndSplineSet
EndChar

StartChar: uni1394
Encoding: 5012 5012 93
Width: 483
Flags: W
LayerCount: 2
Fore
SplineSet
242 213 m 0,0,1
 292 213 292 213 330.5 197 c 128,-1,2
 369 181 369 181 390.5 141 c 128,-1,3
 412 101 412 101 412 29 c 2,4,-1
 412 0 l 1,5,-1
 321 0 l 1,6,-1
 321 26 l 2,7,8
 321 93 321 93 300 120 c 128,-1,9
 279 147 279 147 242 147 c 256,10,11
 205 147 205 147 183.5 120 c 128,-1,12
 162 93 162 93 162 26 c 2,13,-1
 162 0 l 1,14,-1
 71 0 l 1,15,-1
 71 29 l 2,16,17
 71 110 71 110 111 161.5 c 128,-1,18
 151 213 151 213 242 213 c 0,0,1
EndSplineSet
EndChar

StartChar: uni12F6
Encoding: 4854 4854 94
Width: 716
GlyphClass: 2
Flags: W
AnchorPoint: "+BBEENQQ3BEsEPARPBD0EPQQ+BDUA--0" 378 726 basechar 0
LayerCount: 2
Fore
SplineSet
64 -5 m 1,0,1
 45 27 45 27 45 71 c 2,2,-1
 45 87 l 2,3,4
 45 170 45 170 103 220.5 c 128,-1,5
 161 271 161 271 283 271 c 2,6,-1
 312 271 l 1,7,8
 261 321 261 321 226 380.5 c 128,-1,9
 191 440 191 440 191 517 c 0,10,11
 191 620 191 620 246.5 673 c 128,-1,12
 302 726 302 726 412 726 c 0,13,14
 491 726 491 726 535 691.5 c 128,-1,15
 579 657 579 657 579 597 c 0,16,17
 579 541 579 541 544.5 505 c 128,-1,18
 510 469 510 469 449.5 449.5 c 128,-1,19
 389 430 389 430 310 421 c 1,20,21
 328 384 328 384 362 345 c 128,-1,22
 396 306 396 306 435 271 c 1,23,-1
 685 271 l 1,24,25
 683 264 683 264 680 248.5 c 128,-1,26
 677 233 677 233 677 215 c 0,27,28
 677 160 677 160 711 132 c 1,29,30
 689 116 689 116 653 116 c 0,31,32
 610 116 610 116 588 140 c 128,-1,33
 566 164 566 164 566 198 c 0,34,35
 566 205 566 205 566.5 210.5 c 128,-1,36
 567 216 567 216 568 221 c 1,37,-1
 298 221 l 2,38,39
 210 221 210 221 175.5 190 c 128,-1,40
 141 159 141 159 141 106 c 2,41,-1
 141 98 l 2,42,43
 141 67 141 67 155 55 c 128,-1,44
 169 43 169 43 199 43 c 1,45,-1
 199 4 l 1,46,-1
 64 -5 l 1,0,1
293 467 m 1,47,48
 379 472 379 472 432.5 501.5 c 128,-1,49
 486 531 486 531 486 601 c 0,50,51
 486 640 486 640 461.5 660.5 c 128,-1,52
 437 681 437 681 399 681 c 0,53,54
 340 681 340 681 311.5 643 c 128,-1,55
 283 605 283 605 283 542 c 0,56,57
 283 498 283 498 293 467 c 1,47,48
EndSplineSet
EndChar

